<ttFont>
    <TTGlyph name="A" xMin="-1" yMin="-9" xMax="641" yMax="684">
      <contour>
        <pt x="591" y="677" on="1"/>
        <pt x="567" y="550" on="0"/>
        <pt x="567" y="129" on="0"/>
        <pt x="581" y="34" on="1"/>
        <pt x="620" y="27" on="0"/>
        <pt x="641" y="17" on="1"/>
        <pt x="638" y="-9" on="1"/>
        <pt x="566" y="0" on="0"/>
        <pt x="397" y="0" on="0"/>
        <pt x="337" y="-9" on="1"/>
        <pt x="333" y="18" on="1"/>
        <pt x="355" y="30" on="0"/>
        <pt x="389" y="37" on="1"/>
        <pt x="397" y="101" on="0"/>
        <pt x="401" y="230" on="1"/>
        <pt x="374" y="234" on="0"/>
        <pt x="279" y="234" on="0"/>
        <pt x="246" y="229" on="1"/>
        <pt x="231" y="132" on="0"/>
        <pt x="231" y="60" on="0"/>
        <pt x="248" y="19" on="0"/>
        <pt x="273" y="9" on="1"/>
        <pt x="270" y="-7" on="1"/>
        <pt x="216" y="0" on="0"/>
        <pt x="67" y="0" on="0"/>
        <pt x="13" y="-9" on="1"/>
        <pt x="9" y="18" on="1"/>
        <pt x="29" y="29" on="0"/>
        <pt x="65" y="37" on="1"/>
        <pt x="211" y="582" on="1"/>
        <pt x="123" y="582" on="0"/>
        <pt x="101" y="560" on="1"/>
        <pt x="92" y="535" on="0"/>
        <pt x="92" y="482" on="0"/>
        <pt x="107" y="473" on="1"/>
        <pt x="106" y="466" on="1"/>
        <pt x="59" y="447" on="0"/>
        <pt x="25" y="416" on="1"/>
        <pt x="-1" y="418" on="0"/>
        <pt x="-1" y="445" on="1"/>
        <pt x="-1" y="510" on="0"/>
        <pt x="122" y="643" on="0"/>
        <pt x="192" y="666" on="1"/>
        <pt x="345" y="641" on="0"/>
        <pt x="535" y="625" on="1"/>
        <pt x="554" y="645" on="0"/>
        <pt x="566" y="684" on="1"/>
      </contour>
      <contour>
        <pt x="402" y="326" on="1"/>
        <pt x="402" y="460" on="0"/>
        <pt x="395" y="567" on="1"/>
        <pt x="392" y="570" on="1"/>
        <pt x="357" y="576" on="0"/>
        <pt x="304" y="576" on="1"/>
        <pt x="256" y="301" on="1"/>
        <pt x="292" y="297" on="0"/>
        <pt x="375" y="297" on="0"/>
        <pt x="402" y="301" on="1"/>
      </contour>
    </TTGlyph>
    <TTGlyph name="AE" xMin="-21" yMin="-15" xMax="761" yMax="682">
      <contour>
        <pt x="106" y="576" on="1"/>
        <pt x="97" y="551" on="0"/>
        <pt x="97" y="498" on="0"/>
        <pt x="112" y="489" on="1"/>
        <pt x="111" y="482" on="1"/>
        <pt x="64" y="463" on="0"/>
        <pt x="30" y="432" on="1"/>
        <pt x="4" y="434" on="0"/>
        <pt x="4" y="461" on="1"/>
        <pt x="4" y="526" on="0"/>
        <pt x="127" y="659" on="0"/>
        <pt x="197" y="682" on="1"/>
        <pt x="301" y="651" on="0"/>
        <pt x="664" y="651" on="0"/>
        <pt x="755" y="664" on="1"/>
        <pt x="761" y="643" on="1"/>
        <pt x="722" y="591" on="0"/>
        <pt x="719" y="480" on="1"/>
        <pt x="692" y="480" on="1"/>
        <pt x="683" y="526" on="0"/>
        <pt x="683" y="567" on="1"/>
        <pt x="647" y="584" on="0"/>
        <pt x="546" y="584" on="0"/>
        <pt x="529" y="577" on="1"/>
        <pt x="504" y="511" on="0"/>
        <pt x="501" y="382" on="1"/>
        <pt x="535" y="374" on="0"/>
        <pt x="563" y="374" on="1"/>
        <pt x="622" y="374" on="0"/>
        <pt x="653" y="410" on="1"/>
        <pt x="675" y="405" on="1"/>
        <pt x="662" y="366" on="0"/>
        <pt x="662" y="284" on="0"/>
        <pt x="672" y="236" on="1"/>
        <pt x="647" y="232" on="1"/>
        <pt x="633" y="268" on="0"/>
        <pt x="626" y="306" on="1"/>
        <pt x="604" y="312" on="0"/>
        <pt x="535" y="312" on="0"/>
        <pt x="500" y="307" on="1"/>
        <pt x="500" y="152" on="0"/>
        <pt x="524" y="118" on="1"/>
        <pt x="548" y="83" on="0"/>
        <pt x="603" y="83" on="1"/>
        <pt x="681" y="83" on="0"/>
        <pt x="744" y="144" on="1"/>
        <pt x="760" y="129" on="1"/>
        <pt x="671" y="8" on="0"/>
        <pt x="552" y="-15" on="1"/>
        <pt x="492" y="-15" on="0"/>
        <pt x="413" y="17" on="0"/>
        <pt x="371" y="59" on="0"/>
        <pt x="351" y="158" on="0"/>
        <pt x="348" y="231" on="0"/>
        <pt x="348" y="308" on="1"/>
        <pt x="329" y="312" on="0"/>
        <pt x="270" y="312" on="0"/>
        <pt x="238" y="307" on="1"/>
        <pt x="201" y="133" on="0"/>
        <pt x="201" y="60" on="0"/>
        <pt x="218" y="19" on="0"/>
        <pt x="243" y="9" on="1"/>
        <pt x="240" y="-7" on="1"/>
        <pt x="186" y="0" on="0"/>
        <pt x="37" y="0" on="0"/>
        <pt x="-17" y="-9" on="1"/>
        <pt x="-21" y="18" on="1"/>
        <pt x="-1" y="29" on="0"/>
        <pt x="35" y="37" on="1"/>
        <pt x="216" y="598" on="1"/>
        <pt x="128" y="598" on="0"/>
      </contour>
      <contour>
        <pt x="251" y="377" on="1"/>
        <pt x="271" y="373" on="0"/>
        <pt x="333" y="373" on="0"/>
        <pt x="352" y="377" on="1"/>
        <pt x="371" y="536" on="1"/>
        <pt x="373" y="554" on="0"/>
        <pt x="373" y="582" on="0"/>
        <pt x="371" y="594" on="1"/>
        <pt x="358" y="598" on="0"/>
        <pt x="313" y="598" on="0"/>
        <pt x="298" y="595" on="1"/>
        <pt x="259" y="418" on="0"/>
      </contour>
    </TTGlyph>
    <TTGlyph name="Aacute" xMin="-1" yMin="-9" xMax="641" yMax="886">
      <contour>
        <pt x="591" y="677" on="1"/>
        <pt x="567" y="550" on="0"/>
        <pt x="567" y="129" on="0"/>
        <pt x="581" y="34" on="1"/>
        <pt x="620" y="27" on="0"/>
        <pt x="641" y="17" on="1"/>
        <pt x="638" y="-9" on="1"/>
        <pt x="566" y="0" on="0"/>
        <pt x="397" y="0" on="0"/>
        <pt x="337" y="-9" on="1"/>
        <pt x="333" y="18" on="1"/>
        <pt x="355" y="30" on="0"/>
        <pt x="389" y="37" on="1"/>
        <pt x="397" y="101" on="0"/>
        <pt x="401" y="230" on="1"/>
        <pt x="374" y="234" on="0"/>
        <pt x="279" y="234" on="0"/>
        <pt x="246" y="229" on="1"/>
        <pt x="231" y="132" on="0"/>
        <pt x="231" y="60" on="0"/>
        <pt x="248" y="19" on="0"/>
        <pt x="273" y="9" on="1"/>
        <pt x="270" y="-7" on="1"/>
        <pt x="216" y="0" on="0"/>
        <pt x="67" y="0" on="0"/>
        <pt x="13" y="-9" on="1"/>
        <pt x="9" y="18" on="1"/>
        <pt x="29" y="29" on="0"/>
        <pt x="65" y="37" on="1"/>
        <pt x="211" y="582" on="1"/>
        <pt x="123" y="582" on="0"/>
        <pt x="101" y="560" on="1"/>
        <pt x="92" y="535" on="0"/>
        <pt x="92" y="482" on="0"/>
        <pt x="107" y="473" on="1"/>
        <pt x="106" y="466" on="1"/>
        <pt x="59" y="447" on="0"/>
        <pt x="25" y="416" on="1"/>
        <pt x="-1" y="418" on="0"/>
        <pt x="-1" y="445" on="1"/>
        <pt x="-1" y="510" on="0"/>
        <pt x="122" y="643" on="0"/>
        <pt x="192" y="666" on="1"/>
        <pt x="345" y="641" on="0"/>
        <pt x="535" y="625" on="1"/>
        <pt x="554" y="645" on="0"/>
        <pt x="566" y="684" on="1"/>
      </contour>
      <contour>
        <pt x="402" y="326" on="1"/>
        <pt x="402" y="460" on="0"/>
        <pt x="395" y="567" on="1"/>
        <pt x="392" y="570" on="1"/>
        <pt x="357" y="576" on="0"/>
        <pt x="304" y="576" on="1"/>
        <pt x="256" y="301" on="1"/>
        <pt x="292" y="297" on="0"/>
        <pt x="375" y="297" on="0"/>
        <pt x="402" y="301" on="1"/>
      </contour>
      <contour>
        <pt x="516" y="883" on="1"/>
        <pt x="525" y="886" on="0"/>
        <pt x="556" y="886" on="0"/>
        <pt x="564" y="883" on="1"/>
        <pt x="573" y="867" on="0"/>
        <pt x="588" y="799" on="0"/>
        <pt x="589" y="773" on="1"/>
        <pt x="327" y="707" on="1"/>
        <pt x="317" y="731" on="1"/>
        <pt x="460" y="798" on="0"/>
      </contour>
    </TTGlyph>
    <TTGlyph name="Acircumflex" xMin="-1" yMin="-9" xMax="641" yMax="886">
      <contour>
        <pt x="591" y="677" on="1"/>
        <pt x="567" y="550" on="0"/>
        <pt x="567" y="129" on="0"/>
        <pt x="581" y="34" on="1"/>
        <pt x="620" y="27" on="0"/>
        <pt x="641" y="17" on="1"/>
        <pt x="638" y="-9" on="1"/>
        <pt x="566" y="0" on="0"/>
        <pt x="397" y="0" on="0"/>
        <pt x="337" y="-9" on="1"/>
        <pt x="333" y="18" on="1"/>
        <pt x="355" y="30" on="0"/>
        <pt x="389" y="37" on="1"/>
        <pt x="397" y="101" on="0"/>
        <pt x="401" y="230" on="1"/>
        <pt x="374" y="234" on="0"/>
        <pt x="279" y="234" on="0"/>
        <pt x="246" y="229" on="1"/>
        <pt x="231" y="132" on="0"/>
        <pt x="231" y="60" on="0"/>
        <pt x="248" y="19" on="0"/>
        <pt x="273" y="9" on="1"/>
        <pt x="270" y="-7" on="1"/>
        <pt x="216" y="0" on="0"/>
        <pt x="67" y="0" on="0"/>
        <pt x="13" y="-9" on="1"/>
        <pt x="9" y="18" on="1"/>
        <pt x="29" y="29" on="0"/>
        <pt x="65" y="37" on="1"/>
        <pt x="211" y="582" on="1"/>
        <pt x="123" y="582" on="0"/>
        <pt x="101" y="560" on="1"/>
        <pt x="92" y="535" on="0"/>
        <pt x="92" y="482" on="0"/>
        <pt x="107" y="473" on="1"/>
        <pt x="106" y="466" on="1"/>
        <pt x="59" y="447" on="0"/>
        <pt x="25" y="416" on="1"/>
        <pt x="-1" y="418" on="0"/>
        <pt x="-1" y="445" on="1"/>
        <pt x="-1" y="510" on="0"/>
        <pt x="122" y="643" on="0"/>
        <pt x="192" y="666" on="1"/>
        <pt x="345" y="641" on="0"/>
        <pt x="535" y="625" on="1"/>
        <pt x="554" y="645" on="0"/>
        <pt x="566" y="684" on="1"/>
      </contour>
      <contour>
        <pt x="402" y="326" on="1"/>
        <pt x="402" y="460" on="0"/>
        <pt x="395" y="567" on="1"/>
        <pt x="392" y="570" on="1"/>
        <pt x="357" y="576" on="0"/>
        <pt x="304" y="576" on="1"/>
        <pt x="256" y="301" on="1"/>
        <pt x="292" y="297" on="0"/>
        <pt x="375" y="297" on="0"/>
        <pt x="402" y="301" on="1"/>
      </contour>
      <contour>
        <pt x="359" y="883" on="1"/>
        <pt x="369" y="886" on="0"/>
        <pt x="410" y="886" on="0"/>
        <pt x="421" y="883" on="1"/>
        <pt x="478" y="798" on="0"/>
        <pt x="604" y="731" on="1"/>
        <pt x="594" y="707" on="1"/>
        <pt x="390" y="769" on="1"/>
        <pt x="186" y="707" on="1"/>
        <pt x="176" y="731" on="1"/>
        <pt x="302" y="798" on="0"/>
      </contour>
    </TTGlyph>
    <TTGlyph name="Adieresis" xMin="-1" yMin="-9" xMax="641" yMax="885">
      <contour>
        <pt x="591" y="677" on="1"/>
        <pt x="567" y="550" on="0"/>
        <pt x="567" y="129" on="0"/>
        <pt x="581" y="34" on="1"/>
        <pt x="620" y="27" on="0"/>
        <pt x="641" y="17" on="1"/>
        <pt x="638" y="-9" on="1"/>
        <pt x="566" y="0" on="0"/>
        <pt x="397" y="0" on="0"/>
        <pt x="337" y="-9" on="1"/>
        <pt x="333" y="18" on="1"/>
        <pt x="355" y="30" on="0"/>
        <pt x="389" y="37" on="1"/>
        <pt x="397" y="101" on="0"/>
        <pt x="401" y="230" on="1"/>
        <pt x="374" y="234" on="0"/>
        <pt x="279" y="234" on="0"/>
        <pt x="246" y="229" on="1"/>
        <pt x="231" y="132" on="0"/>
        <pt x="231" y="60" on="0"/>
        <pt x="248" y="19" on="0"/>
        <pt x="273" y="9" on="1"/>
        <pt x="270" y="-7" on="1"/>
        <pt x="216" y="0" on="0"/>
        <pt x="67" y="0" on="0"/>
        <pt x="13" y="-9" on="1"/>
        <pt x="9" y="18" on="1"/>
        <pt x="29" y="29" on="0"/>
        <pt x="65" y="37" on="1"/>
        <pt x="211" y="582" on="1"/>
        <pt x="123" y="582" on="0"/>
        <pt x="101" y="560" on="1"/>
        <pt x="92" y="535" on="0"/>
        <pt x="92" y="482" on="0"/>
        <pt x="107" y="473" on="1"/>
        <pt x="106" y="466" on="1"/>
        <pt x="59" y="447" on="0"/>
        <pt x="25" y="416" on="1"/>
        <pt x="-1" y="418" on="0"/>
        <pt x="-1" y="445" on="1"/>
        <pt x="-1" y="510" on="0"/>
        <pt x="122" y="643" on="0"/>
        <pt x="192" y="666" on="1"/>
        <pt x="345" y="641" on="0"/>
        <pt x="535" y="625" on="1"/>
        <pt x="554" y="645" on="0"/>
        <pt x="566" y="684" on="1"/>
      </contour>
      <contour>
        <pt x="402" y="326" on="1"/>
        <pt x="402" y="460" on="0"/>
        <pt x="395" y="567" on="1"/>
        <pt x="392" y="570" on="1"/>
        <pt x="357" y="576" on="0"/>
        <pt x="304" y="576" on="1"/>
        <pt x="256" y="301" on="1"/>
        <pt x="292" y="297" on="0"/>
        <pt x="375" y="297" on="0"/>
        <pt x="402" y="301" on="1"/>
      </contour>
      <contour>
        <pt x="365" y="809" on="1"/>
        <pt x="355" y="788" on="0"/>
        <pt x="298" y="729" on="0"/>
        <pt x="276" y="714" on="1"/>
        <pt x="254" y="729" on="0"/>
        <pt x="197" y="788" on="0"/>
        <pt x="186" y="809" on="1"/>
        <pt x="198" y="829" on="0"/>
        <pt x="251" y="874" on="0"/>
        <pt x="276" y="885" on="1"/>
        <pt x="299" y="873" on="0"/>
        <pt x="352" y="828" on="0"/>
      </contour>
      <contour>
        <pt x="587" y="809" on="1"/>
        <pt x="577" y="788" on="0"/>
        <pt x="520" y="729" on="0"/>
        <pt x="498" y="714" on="1"/>
        <pt x="476" y="729" on="0"/>
        <pt x="419" y="788" on="0"/>
        <pt x="408" y="809" on="1"/>
        <pt x="420" y="829" on="0"/>
        <pt x="473" y="874" on="0"/>
        <pt x="498" y="885" on="1"/>
        <pt x="521" y="873" on="0"/>
        <pt x="574" y="828" on="0"/>
      </contour>
    </TTGlyph>
    <TTGlyph name="Agrave" xMin="-1" yMin="-9" xMax="641" yMax="896">
      <contour>
        <pt x="591" y="677" on="1"/>
        <pt x="567" y="550" on="0"/>
        <pt x="567" y="129" on="0"/>
        <pt x="581" y="34" on="1"/>
        <pt x="620" y="27" on="0"/>
        <pt x="641" y="17" on="1"/>
        <pt x="638" y="-9" on="1"/>
        <pt x="566" y="0" on="0"/>
        <pt x="397" y="0" on="0"/>
        <pt x="337" y="-9" on="1"/>
        <pt x="333" y="18" on="1"/>
        <pt x="355" y="30" on="0"/>
        <pt x="389" y="37" on="1"/>
        <pt x="397" y="101" on="0"/>
        <pt x="401" y="230" on="1"/>
        <pt x="374" y="234" on="0"/>
        <pt x="279" y="234" on="0"/>
        <pt x="246" y="229" on="1"/>
        <pt x="231" y="132" on="0"/>
        <pt x="231" y="60" on="0"/>
        <pt x="248" y="19" on="0"/>
        <pt x="273" y="9" on="1"/>
        <pt x="270" y="-7" on="1"/>
        <pt x="216" y="0" on="0"/>
        <pt x="67" y="0" on="0"/>
        <pt x="13" y="-9" on="1"/>
        <pt x="9" y="18" on="1"/>
        <pt x="29" y="29" on="0"/>
        <pt x="65" y="37" on="1"/>
        <pt x="211" y="582" on="1"/>
        <pt x="123" y="582" on="0"/>
        <pt x="101" y="560" on="1"/>
        <pt x="92" y="535" on="0"/>
        <pt x="92" y="482" on="0"/>
        <pt x="107" y="473" on="1"/>
        <pt x="106" y="466" on="1"/>
        <pt x="59" y="447" on="0"/>
        <pt x="25" y="416" on="1"/>
        <pt x="-1" y="418" on="0"/>
        <pt x="-1" y="445" on="1"/>
        <pt x="-1" y="510" on="0"/>
        <pt x="122" y="643" on="0"/>
        <pt x="192" y="666" on="1"/>
        <pt x="345" y="641" on="0"/>
        <pt x="535" y="625" on="1"/>
        <pt x="554" y="645" on="0"/>
        <pt x="566" y="684" on="1"/>
      </contour>
      <contour>
        <pt x="402" y="326" on="1"/>
        <pt x="402" y="460" on="0"/>
        <pt x="395" y="567" on="1"/>
        <pt x="392" y="570" on="1"/>
        <pt x="357" y="576" on="0"/>
        <pt x="304" y="576" on="1"/>
        <pt x="256" y="301" on="1"/>
        <pt x="292" y="297" on="0"/>
        <pt x="375" y="297" on="0"/>
        <pt x="402" y="301" on="1"/>
      </contour>
      <contour>
        <pt x="214" y="893" on="1"/>
        <pt x="222" y="896" on="0"/>
        <pt x="251" y="896" on="0"/>
        <pt x="262" y="893" on="1"/>
        <pt x="318" y="808" on="0"/>
        <pt x="461" y="741" on="1"/>
        <pt x="451" y="717" on="1"/>
        <pt x="189" y="783" on="1"/>
        <pt x="190" y="809" on="0"/>
        <pt x="205" y="877" on="0"/>
      </contour>
    </TTGlyph>
    <TTGlyph name="Aring" xMin="-1" yMin="-9" xMax="641" yMax="896">
      <contour>
        <pt x="591" y="677" on="1"/>
        <pt x="567" y="550" on="0"/>
        <pt x="567" y="129" on="0"/>
        <pt x="581" y="34" on="1"/>
        <pt x="620" y="27" on="0"/>
        <pt x="641" y="17" on="1"/>
        <pt x="638" y="-9" on="1"/>
        <pt x="566" y="0" on="0"/>
        <pt x="397" y="0" on="0"/>
        <pt x="337" y="-9" on="1"/>
        <pt x="333" y="18" on="1"/>
        <pt x="355" y="30" on="0"/>
        <pt x="389" y="37" on="1"/>
        <pt x="397" y="101" on="0"/>
        <pt x="401" y="230" on="1"/>
        <pt x="374" y="234" on="0"/>
        <pt x="279" y="234" on="0"/>
        <pt x="246" y="229" on="1"/>
        <pt x="231" y="132" on="0"/>
        <pt x="231" y="60" on="0"/>
        <pt x="248" y="19" on="0"/>
        <pt x="273" y="9" on="1"/>
        <pt x="270" y="-7" on="1"/>
        <pt x="216" y="0" on="0"/>
        <pt x="67" y="0" on="0"/>
        <pt x="13" y="-9" on="1"/>
        <pt x="9" y="18" on="1"/>
        <pt x="29" y="29" on="0"/>
        <pt x="65" y="37" on="1"/>
        <pt x="211" y="582" on="1"/>
        <pt x="123" y="582" on="0"/>
        <pt x="101" y="560" on="1"/>
        <pt x="92" y="535" on="0"/>
        <pt x="92" y="482" on="0"/>
        <pt x="107" y="473" on="1"/>
        <pt x="106" y="466" on="1"/>
        <pt x="59" y="447" on="0"/>
        <pt x="25" y="416" on="1"/>
        <pt x="-1" y="418" on="0"/>
        <pt x="-1" y="445" on="1"/>
        <pt x="-1" y="510" on="0"/>
        <pt x="122" y="643" on="0"/>
        <pt x="192" y="666" on="1"/>
        <pt x="345" y="641" on="0"/>
        <pt x="535" y="625" on="1"/>
        <pt x="554" y="645" on="0"/>
        <pt x="566" y="684" on="1"/>
      </contour>
      <contour>
        <pt x="402" y="326" on="1"/>
        <pt x="402" y="460" on="0"/>
        <pt x="395" y="567" on="1"/>
        <pt x="392" y="570" on="1"/>
        <pt x="357" y="576" on="0"/>
        <pt x="304" y="576" on="1"/>
        <pt x="256" y="301" on="1"/>
        <pt x="292" y="297" on="0"/>
        <pt x="375" y="297" on="0"/>
        <pt x="402" y="301" on="1"/>
      </contour>
      <contour>
        <pt x="348" y="689" on="0"/>
        <pt x="284" y="732" on="0"/>
        <pt x="284" y="818" on="0"/>
        <pt x="351" y="885" on="0"/>
        <pt x="402" y="896" on="1"/>
        <pt x="505" y="896" on="0"/>
        <pt x="505" y="812" on="1"/>
        <pt x="505" y="767" on="0"/>
        <pt x="443" y="703" on="0"/>
        <pt x="395" y="689" on="1"/>
      </contour>
      <contour>
        <pt x="444" y="816" on="0"/>
        <pt x="413" y="848" on="0"/>
        <pt x="363" y="848" on="0"/>
        <pt x="352" y="840" on="1"/>
        <pt x="345" y="822" on="0"/>
        <pt x="345" y="769" on="0"/>
        <pt x="377" y="736" on="0"/>
        <pt x="424" y="736" on="0"/>
        <pt x="437" y="745" on="1"/>
        <pt x="444" y="763" on="0"/>
      </contour>
    </TTGlyph>
    <TTGlyph name="Atilde" xMin="-1" yMin="-9" xMax="641" yMax="886">
      <contour>
        <pt x="591" y="677" on="1"/>
        <pt x="567" y="550" on="0"/>
        <pt x="567" y="129" on="0"/>
        <pt x="581" y="34" on="1"/>
        <pt x="620" y="27" on="0"/>
        <pt x="641" y="17" on="1"/>
        <pt x="638" y="-9" on="1"/>
        <pt x="566" y="0" on="0"/>
        <pt x="397" y="0" on="0"/>
        <pt x="337" y="-9" on="1"/>
        <pt x="333" y="18" on="1"/>
        <pt x="355" y="30" on="0"/>
        <pt x="389" y="37" on="1"/>
        <pt x="397" y="101" on="0"/>
        <pt x="401" y="230" on="1"/>
        <pt x="374" y="234" on="0"/>
        <pt x="279" y="234" on="0"/>
        <pt x="246" y="229" on="1"/>
        <pt x="231" y="132" on="0"/>
        <pt x="231" y="60" on="0"/>
        <pt x="248" y="19" on="0"/>
        <pt x="273" y="9" on="1"/>
        <pt x="270" y="-7" on="1"/>
        <pt x="216" y="0" on="0"/>
        <pt x="67" y="0" on="0"/>
        <pt x="13" y="-9" on="1"/>
        <pt x="9" y="18" on="1"/>
        <pt x="29" y="29" on="0"/>
        <pt x="65" y="37" on="1"/>
        <pt x="211" y="582" on="1"/>
        <pt x="123" y="582" on="0"/>
        <pt x="101" y="560" on="1"/>
        <pt x="92" y="535" on="0"/>
        <pt x="92" y="482" on="0"/>
        <pt x="107" y="473" on="1"/>
        <pt x="106" y="466" on="1"/>
        <pt x="59" y="447" on="0"/>
        <pt x="25" y="416" on="1"/>
        <pt x="-1" y="418" on="0"/>
        <pt x="-1" y="445" on="1"/>
        <pt x="-1" y="510" on="0"/>
        <pt x="122" y="643" on="0"/>
        <pt x="192" y="666" on="1"/>
        <pt x="345" y="641" on="0"/>
        <pt x="535" y="625" on="1"/>
        <pt x="554" y="645" on="0"/>
        <pt x="566" y="684" on="1"/>
      </contour>
      <contour>
        <pt x="402" y="326" on="1"/>
        <pt x="402" y="460" on="0"/>
        <pt x="395" y="567" on="1"/>
        <pt x="392" y="570" on="1"/>
        <pt x="357" y="576" on="0"/>
        <pt x="304" y="576" on="1"/>
        <pt x="256" y="301" on="1"/>
        <pt x="292" y="297" on="0"/>
        <pt x="375" y="297" on="0"/>
        <pt x="402" y="301" on="1"/>
      </contour>
      <contour>
        <pt x="510" y="835" on="1"/>
        <pt x="569" y="835" on="0"/>
        <pt x="596" y="874" on="1"/>
        <pt x="620" y="857" on="1"/>
        <pt x="545" y="755" on="0"/>
        <pt x="482" y="721" on="1"/>
        <pt x="455" y="721" on="0"/>
        <pt x="319" y="773" on="0"/>
        <pt x="290" y="773" on="1"/>
        <pt x="233" y="773" on="0"/>
        <pt x="208" y="734" on="1"/>
        <pt x="184" y="751" on="1"/>
        <pt x="256" y="851" on="0"/>
        <pt x="353" y="886" on="1"/>
        <pt x="432" y="835" on="0"/>
      </contour>
    </TTGlyph>
    <TTGlyph name="B" xMin="-100" yMin="-23" xMax="612" yMax="658">
      <contour>
        <pt x="71" y="658" on="1"/>
        <pt x="175" y="651" on="0"/>
        <pt x="402" y="651" on="0"/>
        <pt x="443" y="650" on="0"/>
        <pt x="507" y="644" on="0"/>
        <pt x="538" y="629" on="0"/>
        <pt x="556" y="616" on="1"/>
        <pt x="587" y="593" on="0"/>
        <pt x="587" y="482" on="0"/>
        <pt x="515" y="393" on="0"/>
        <pt x="462" y="370" on="1"/>
        <pt x="462" y="362" on="1"/>
        <pt x="531" y="362" on="0"/>
        <pt x="612" y="299" on="0"/>
        <pt x="612" y="237" on="1"/>
        <pt x="612" y="155" on="0"/>
        <pt x="416" y="1" on="0"/>
        <pt x="320" y="-15" on="1"/>
        <pt x="239" y="-15" on="0"/>
        <pt x="134" y="25" on="1"/>
        <pt x="120" y="8" on="0"/>
        <pt x="109" y="-23" on="1"/>
        <pt x="84" y="-17" on="1"/>
        <pt x="112" y="110" on="0"/>
        <pt x="112" y="460" on="0"/>
        <pt x="102" y="583" on="1"/>
        <pt x="21" y="580" on="0"/>
        <pt x="2" y="561" on="1"/>
        <pt x="-7" y="536" on="0"/>
        <pt x="-7" y="483" on="0"/>
        <pt x="8" y="474" on="1"/>
        <pt x="7" y="467" on="1"/>
        <pt x="-40" y="448" on="0"/>
        <pt x="-74" y="417" on="1"/>
        <pt x="-100" y="419" on="0"/>
        <pt x="-100" y="446" on="1"/>
        <pt x="-100" y="506" on="0"/>
        <pt x="7" y="630" on="0"/>
      </contour>
      <contour>
        <pt x="333" y="380" on="1"/>
        <pt x="372" y="380" on="0"/>
        <pt x="390" y="393" on="1"/>
        <pt x="412" y="435" on="0"/>
        <pt x="412" y="544" on="0"/>
        <pt x="374" y="586" on="0"/>
        <pt x="327" y="586" on="1"/>
        <pt x="304" y="586" on="0"/>
        <pt x="285" y="583" on="1"/>
        <pt x="277" y="502" on="0"/>
        <pt x="277" y="209" on="0"/>
        <pt x="284" y="92" on="1"/>
        <pt x="315" y="69" on="0"/>
        <pt x="402" y="69" on="0"/>
        <pt x="420" y="82" on="1"/>
        <pt x="435" y="129" on="0"/>
        <pt x="435" y="269" on="0"/>
        <pt x="384" y="338" on="0"/>
        <pt x="314" y="338" on="1"/>
        <pt x="319" y="380" on="1"/>
      </contour>
    </TTGlyph>
    <TTGlyph name="C" xMin="30" yMin="-115" xMax="555" yMax="666">
      <contour>
        <pt x="273" y="26" on="1"/>
        <pt x="303" y="-1" on="0"/>
        <pt x="392" y="-1" on="0"/>
        <pt x="461" y="32" on="0"/>
        <pt x="501" y="68" on="1"/>
        <pt x="516" y="53" on="1"/>
        <pt x="447" y="-64" on="0"/>
        <pt x="318" y="-115" on="1"/>
        <pt x="180" y="-115" on="0"/>
        <pt x="30" y="50" on="0"/>
        <pt x="30" y="367" on="0"/>
        <pt x="204" y="610" on="0"/>
        <pt x="346" y="666" on="1"/>
        <pt x="450" y="666" on="0"/>
        <pt x="555" y="647" on="1"/>
        <pt x="554" y="623" on="1"/>
        <pt x="528" y="623" on="0"/>
        <pt x="505" y="614" on="1"/>
        <pt x="476" y="535" on="0"/>
        <pt x="476" y="456" on="1"/>
        <pt x="449" y="456" on="1"/>
        <pt x="439" y="494" on="0"/>
        <pt x="437" y="540" on="1"/>
        <pt x="392" y="582" on="0"/>
        <pt x="321" y="582" on="1"/>
        <pt x="274" y="582" on="0"/>
        <pt x="252" y="562" on="1"/>
        <pt x="209" y="451" on="0"/>
        <pt x="209" y="298" on="1"/>
        <pt x="209" y="82" on="0"/>
      </contour>
    </TTGlyph>
    <TTGlyph name="Ccedilla" xMin="30" yMin="-345" xMax="555" yMax="666">
      <contour>
        <pt x="273" y="26" on="1"/>
        <pt x="303" y="-1" on="0"/>
        <pt x="392" y="-1" on="0"/>
        <pt x="461" y="32" on="0"/>
        <pt x="501" y="68" on="1"/>
        <pt x="516" y="53" on="1"/>
        <pt x="447" y="-64" on="0"/>
        <pt x="318" y="-115" on="1"/>
        <pt x="180" y="-115" on="0"/>
        <pt x="30" y="50" on="0"/>
        <pt x="30" y="367" on="0"/>
        <pt x="204" y="610" on="0"/>
        <pt x="346" y="666" on="1"/>
        <pt x="450" y="666" on="0"/>
        <pt x="555" y="647" on="1"/>
        <pt x="554" y="623" on="1"/>
        <pt x="528" y="623" on="0"/>
        <pt x="505" y="614" on="1"/>
        <pt x="476" y="535" on="0"/>
        <pt x="476" y="456" on="1"/>
        <pt x="449" y="456" on="1"/>
        <pt x="439" y="494" on="0"/>
        <pt x="437" y="540" on="1"/>
        <pt x="392" y="582" on="0"/>
        <pt x="321" y="582" on="1"/>
        <pt x="274" y="582" on="0"/>
        <pt x="252" y="562" on="1"/>
        <pt x="209" y="451" on="0"/>
        <pt x="209" y="298" on="1"/>
        <pt x="209" y="82" on="0"/>
      </contour>
      <contour>
        <pt x="278" y="-285" on="1"/>
        <pt x="295" y="-285" on="0"/>
        <pt x="307" y="-280" on="1"/>
        <pt x="313" y="-270" on="0"/>
        <pt x="313" y="-257" on="1"/>
        <pt x="313" y="-217" on="0"/>
        <pt x="224" y="-217" on="1"/>
        <pt x="218" y="-213" on="1"/>
        <pt x="256" y="-96" on="1"/>
        <pt x="295" y="-94" on="1"/>
        <pt x="272" y="-146" on="1"/>
        <pt x="276" y="-149" on="1"/>
        <pt x="390" y="-149" on="0"/>
        <pt x="390" y="-226" on="1"/>
        <pt x="351" y="-301" on="0"/>
        <pt x="268" y="-345" on="1"/>
        <pt x="214" y="-345" on="0"/>
        <pt x="170" y="-324" on="1"/>
        <pt x="197" y="-283" on="0"/>
        <pt x="206" y="-248" on="1"/>
        <pt x="210" y="-246" on="1"/>
        <pt x="234" y="-285" on="0"/>
      </contour>
    </TTGlyph>
    <TTGlyph name="D" xMin="-100" yMin="-23" xMax="651" yMax="658">
      <contour>
        <pt x="374" y="651" on="1"/>
        <pt x="514" y="651" on="0"/>
        <pt x="651" y="523" on="0"/>
        <pt x="651" y="237" on="0"/>
        <pt x="471" y="12" on="0"/>
        <pt x="327" y="-15" on="1"/>
        <pt x="248" y="-15" on="0"/>
        <pt x="134" y="25" on="1"/>
        <pt x="120" y="8" on="0"/>
        <pt x="109" y="-23" on="1"/>
        <pt x="84" y="-17" on="1"/>
        <pt x="112" y="116" on="0"/>
        <pt x="112" y="485" on="0"/>
        <pt x="102" y="583" on="1"/>
        <pt x="21" y="580" on="0"/>
        <pt x="2" y="561" on="1"/>
        <pt x="-7" y="536" on="0"/>
        <pt x="-7" y="483" on="0"/>
        <pt x="8" y="474" on="1"/>
        <pt x="7" y="467" on="1"/>
        <pt x="-40" y="448" on="0"/>
        <pt x="-74" y="417" on="1"/>
        <pt x="-100" y="419" on="0"/>
        <pt x="-100" y="446" on="1"/>
        <pt x="-100" y="506" on="0"/>
        <pt x="7" y="630" on="0"/>
        <pt x="71" y="658" on="1"/>
        <pt x="175" y="651" on="0"/>
      </contour>
      <contour>
        <pt x="322" y="586" on="1"/>
        <pt x="303" y="586" on="0"/>
        <pt x="285" y="583" on="1"/>
        <pt x="277" y="494" on="0"/>
        <pt x="277" y="213" on="0"/>
        <pt x="284" y="96" on="1"/>
        <pt x="322" y="69" on="0"/>
        <pt x="408" y="69" on="0"/>
        <pt x="435" y="86" on="1"/>
        <pt x="472" y="176" on="0"/>
        <pt x="472" y="320" on="1"/>
        <pt x="472" y="586" on="0"/>
      </contour>
    </TTGlyph>
    <TTGlyph name="E" xMin="26" yMin="-15" xMax="528" yMax="682">
      <contour>
        <pt x="26" y="177" on="1"/>
        <pt x="26" y="250" on="0"/>
        <pt x="141" y="344" on="0"/>
        <pt x="219" y="344" on="1"/>
        <pt x="219" y="353" on="1"/>
        <pt x="148" y="360" on="0"/>
        <pt x="61" y="429" on="0"/>
        <pt x="60" y="492" on="1"/>
        <pt x="152" y="607" on="0"/>
        <pt x="323" y="666" on="1"/>
        <pt x="404" y="666" on="0"/>
        <pt x="464" y="646" on="1"/>
        <pt x="470" y="650" on="0"/>
        <pt x="505" y="682" on="1"/>
        <pt x="528" y="667" on="1"/>
        <pt x="493" y="617" on="0"/>
        <pt x="457" y="520" on="0"/>
        <pt x="448" y="453" on="1"/>
        <pt x="420" y="453" on="1"/>
        <pt x="420" y="506" on="0"/>
        <pt x="414" y="540" on="1"/>
        <pt x="369" y="582" on="0"/>
        <pt x="299" y="582" on="1"/>
        <pt x="255" y="582" on="0"/>
        <pt x="229" y="562" on="1"/>
        <pt x="228" y="548" on="0"/>
        <pt x="228" y="536" on="1"/>
        <pt x="228" y="376" on="0"/>
        <pt x="402" y="376" on="1"/>
        <pt x="397" y="333" on="1"/>
        <pt x="385" y="333" on="1"/>
        <pt x="307" y="333" on="0"/>
        <pt x="206" y="278" on="0"/>
        <pt x="206" y="153" on="0"/>
        <pt x="274" y="83" on="0"/>
        <pt x="335" y="83" on="1"/>
        <pt x="375" y="83" on="0"/>
        <pt x="399" y="94" on="1"/>
        <pt x="407" y="116" on="0"/>
        <pt x="407" y="171" on="0"/>
        <pt x="396" y="181" on="1"/>
        <pt x="397" y="188" on="1"/>
        <pt x="450" y="207" on="0"/>
        <pt x="485" y="238" on="1"/>
        <pt x="511" y="236" on="0"/>
        <pt x="511" y="209" on="1"/>
        <pt x="511" y="138" on="0"/>
        <pt x="392" y="8" on="0"/>
        <pt x="318" y="-15" on="1"/>
        <pt x="201" y="-15" on="0"/>
        <pt x="118" y="26" on="1"/>
        <pt x="76" y="48" on="0"/>
        <pt x="26" y="125" on="0"/>
      </contour>
    </TTGlyph>
    <TTGlyph name="Eacute" xMin="26" yMin="-15" xMax="528" yMax="886">
      <contour>
        <pt x="26" y="177" on="1"/>
        <pt x="26" y="250" on="0"/>
        <pt x="141" y="344" on="0"/>
        <pt x="219" y="344" on="1"/>
        <pt x="219" y="353" on="1"/>
        <pt x="148" y="360" on="0"/>
        <pt x="61" y="429" on="0"/>
        <pt x="60" y="492" on="1"/>
        <pt x="152" y="607" on="0"/>
        <pt x="323" y="666" on="1"/>
        <pt x="404" y="666" on="0"/>
        <pt x="464" y="646" on="1"/>
        <pt x="470" y="650" on="0"/>
        <pt x="505" y="682" on="1"/>
        <pt x="528" y="667" on="1"/>
        <pt x="493" y="617" on="0"/>
        <pt x="457" y="520" on="0"/>
        <pt x="448" y="453" on="1"/>
        <pt x="420" y="453" on="1"/>
        <pt x="420" y="506" on="0"/>
        <pt x="414" y="540" on="1"/>
        <pt x="369" y="582" on="0"/>
        <pt x="299" y="582" on="1"/>
        <pt x="255" y="582" on="0"/>
        <pt x="229" y="562" on="1"/>
        <pt x="228" y="548" on="0"/>
        <pt x="228" y="536" on="1"/>
        <pt x="228" y="376" on="0"/>
        <pt x="402" y="376" on="1"/>
        <pt x="397" y="333" on="1"/>
        <pt x="385" y="333" on="1"/>
        <pt x="307" y="333" on="0"/>
        <pt x="206" y="278" on="0"/>
        <pt x="206" y="153" on="0"/>
        <pt x="274" y="83" on="0"/>
        <pt x="335" y="83" on="1"/>
        <pt x="375" y="83" on="0"/>
        <pt x="399" y="94" on="1"/>
        <pt x="407" y="116" on="0"/>
        <pt x="407" y="171" on="0"/>
        <pt x="396" y="181" on="1"/>
        <pt x="397" y="188" on="1"/>
        <pt x="450" y="207" on="0"/>
        <pt x="485" y="238" on="1"/>
        <pt x="511" y="236" on="0"/>
        <pt x="511" y="209" on="1"/>
        <pt x="511" y="138" on="0"/>
        <pt x="392" y="8" on="0"/>
        <pt x="318" y="-15" on="1"/>
        <pt x="201" y="-15" on="0"/>
        <pt x="118" y="26" on="1"/>
        <pt x="76" y="48" on="0"/>
        <pt x="26" y="125" on="0"/>
      </contour>
      <contour>
        <pt x="434" y="883" on="1"/>
        <pt x="443" y="886" on="0"/>
        <pt x="474" y="886" on="0"/>
        <pt x="482" y="883" on="1"/>
        <pt x="491" y="867" on="0"/>
        <pt x="506" y="799" on="0"/>
        <pt x="507" y="773" on="1"/>
        <pt x="245" y="707" on="1"/>
        <pt x="235" y="731" on="1"/>
        <pt x="378" y="798" on="0"/>
      </contour>
    </TTGlyph>
    <TTGlyph name="Ecircumflex" xMin="26" yMin="-15" xMax="537" yMax="886">
      <contour>
        <pt x="26" y="177" on="1"/>
        <pt x="26" y="250" on="0"/>
        <pt x="141" y="344" on="0"/>
        <pt x="219" y="344" on="1"/>
        <pt x="219" y="353" on="1"/>
        <pt x="148" y="360" on="0"/>
        <pt x="61" y="429" on="0"/>
        <pt x="60" y="492" on="1"/>
        <pt x="152" y="607" on="0"/>
        <pt x="323" y="666" on="1"/>
        <pt x="404" y="666" on="0"/>
        <pt x="464" y="646" on="1"/>
        <pt x="470" y="650" on="0"/>
        <pt x="505" y="682" on="1"/>
        <pt x="528" y="667" on="1"/>
        <pt x="493" y="617" on="0"/>
        <pt x="457" y="520" on="0"/>
        <pt x="448" y="453" on="1"/>
        <pt x="420" y="453" on="1"/>
        <pt x="420" y="506" on="0"/>
        <pt x="414" y="540" on="1"/>
        <pt x="369" y="582" on="0"/>
        <pt x="299" y="582" on="1"/>
        <pt x="255" y="582" on="0"/>
        <pt x="229" y="562" on="1"/>
        <pt x="228" y="548" on="0"/>
        <pt x="228" y="536" on="1"/>
        <pt x="228" y="376" on="0"/>
        <pt x="402" y="376" on="1"/>
        <pt x="397" y="333" on="1"/>
        <pt x="385" y="333" on="1"/>
        <pt x="307" y="333" on="0"/>
        <pt x="206" y="278" on="0"/>
        <pt x="206" y="153" on="0"/>
        <pt x="274" y="83" on="0"/>
        <pt x="335" y="83" on="1"/>
        <pt x="375" y="83" on="0"/>
        <pt x="399" y="94" on="1"/>
        <pt x="407" y="116" on="0"/>
        <pt x="407" y="171" on="0"/>
        <pt x="396" y="181" on="1"/>
        <pt x="397" y="188" on="1"/>
        <pt x="450" y="207" on="0"/>
        <pt x="485" y="238" on="1"/>
        <pt x="511" y="236" on="0"/>
        <pt x="511" y="209" on="1"/>
        <pt x="511" y="138" on="0"/>
        <pt x="392" y="8" on="0"/>
        <pt x="318" y="-15" on="1"/>
        <pt x="201" y="-15" on="0"/>
        <pt x="118" y="26" on="1"/>
        <pt x="76" y="48" on="0"/>
        <pt x="26" y="125" on="0"/>
      </contour>
      <contour>
        <pt x="292" y="883" on="1"/>
        <pt x="303" y="886" on="0"/>
        <pt x="344" y="886" on="0"/>
        <pt x="354" y="883" on="1"/>
        <pt x="411" y="798" on="0"/>
        <pt x="537" y="731" on="1"/>
        <pt x="527" y="707" on="1"/>
        <pt x="323" y="769" on="1"/>
        <pt x="119" y="707" on="1"/>
        <pt x="109" y="731" on="1"/>
        <pt x="235" y="798" on="0"/>
      </contour>
    </TTGlyph>
    <TTGlyph name="Edieresis" xMin="26" yMin="-15" xMax="528" yMax="885">
      <contour>
        <pt x="26" y="177" on="1"/>
        <pt x="26" y="250" on="0"/>
        <pt x="141" y="344" on="0"/>
        <pt x="219" y="344" on="1"/>
        <pt x="219" y="353" on="1"/>
        <pt x="148" y="360" on="0"/>
        <pt x="61" y="429" on="0"/>
        <pt x="60" y="492" on="1"/>
        <pt x="152" y="607" on="0"/>
        <pt x="323" y="666" on="1"/>
        <pt x="404" y="666" on="0"/>
        <pt x="464" y="646" on="1"/>
        <pt x="470" y="650" on="0"/>
        <pt x="505" y="682" on="1"/>
        <pt x="528" y="667" on="1"/>
        <pt x="493" y="617" on="0"/>
        <pt x="457" y="520" on="0"/>
        <pt x="448" y="453" on="1"/>
        <pt x="420" y="453" on="1"/>
        <pt x="420" y="506" on="0"/>
        <pt x="414" y="540" on="1"/>
        <pt x="369" y="582" on="0"/>
        <pt x="299" y="582" on="1"/>
        <pt x="255" y="582" on="0"/>
        <pt x="229" y="562" on="1"/>
        <pt x="228" y="548" on="0"/>
        <pt x="228" y="536" on="1"/>
        <pt x="228" y="376" on="0"/>
        <pt x="402" y="376" on="1"/>
        <pt x="397" y="333" on="1"/>
        <pt x="385" y="333" on="1"/>
        <pt x="307" y="333" on="0"/>
        <pt x="206" y="278" on="0"/>
        <pt x="206" y="153" on="0"/>
        <pt x="274" y="83" on="0"/>
        <pt x="335" y="83" on="1"/>
        <pt x="375" y="83" on="0"/>
        <pt x="399" y="94" on="1"/>
        <pt x="407" y="116" on="0"/>
        <pt x="407" y="171" on="0"/>
        <pt x="396" y="181" on="1"/>
        <pt x="397" y="188" on="1"/>
        <pt x="450" y="207" on="0"/>
        <pt x="485" y="238" on="1"/>
        <pt x="511" y="236" on="0"/>
        <pt x="511" y="209" on="1"/>
        <pt x="511" y="138" on="0"/>
        <pt x="392" y="8" on="0"/>
        <pt x="318" y="-15" on="1"/>
        <pt x="201" y="-15" on="0"/>
        <pt x="118" y="26" on="1"/>
        <pt x="76" y="48" on="0"/>
        <pt x="26" y="125" on="0"/>
      </contour>
      <contour>
        <pt x="287" y="809" on="1"/>
        <pt x="277" y="788" on="0"/>
        <pt x="220" y="729" on="0"/>
        <pt x="198" y="714" on="1"/>
        <pt x="176" y="729" on="0"/>
        <pt x="119" y="788" on="0"/>
        <pt x="108" y="809" on="1"/>
        <pt x="120" y="829" on="0"/>
        <pt x="173" y="874" on="0"/>
        <pt x="198" y="885" on="1"/>
        <pt x="221" y="873" on="0"/>
        <pt x="274" y="828" on="0"/>
      </contour>
      <contour>
        <pt x="509" y="809" on="1"/>
        <pt x="499" y="788" on="0"/>
        <pt x="442" y="729" on="0"/>
        <pt x="420" y="714" on="1"/>
        <pt x="398" y="729" on="0"/>
        <pt x="341" y="788" on="0"/>
        <pt x="330" y="809" on="1"/>
        <pt x="342" y="829" on="0"/>
        <pt x="395" y="874" on="0"/>
        <pt x="420" y="885" on="1"/>
        <pt x="443" y="873" on="0"/>
        <pt x="496" y="828" on="0"/>
      </contour>
    </TTGlyph>
    <TTGlyph name="Egrave" xMin="26" yMin="-15" xMax="528" yMax="896">
      <contour>
        <pt x="26" y="177" on="1"/>
        <pt x="26" y="250" on="0"/>
        <pt x="141" y="344" on="0"/>
        <pt x="219" y="344" on="1"/>
        <pt x="219" y="353" on="1"/>
        <pt x="148" y="360" on="0"/>
        <pt x="61" y="429" on="0"/>
        <pt x="60" y="492" on="1"/>
        <pt x="152" y="607" on="0"/>
        <pt x="323" y="666" on="1"/>
        <pt x="404" y="666" on="0"/>
        <pt x="464" y="646" on="1"/>
        <pt x="470" y="650" on="0"/>
        <pt x="505" y="682" on="1"/>
        <pt x="528" y="667" on="1"/>
        <pt x="493" y="617" on="0"/>
        <pt x="457" y="520" on="0"/>
        <pt x="448" y="453" on="1"/>
        <pt x="420" y="453" on="1"/>
        <pt x="420" y="506" on="0"/>
        <pt x="414" y="540" on="1"/>
        <pt x="369" y="582" on="0"/>
        <pt x="299" y="582" on="1"/>
        <pt x="255" y="582" on="0"/>
        <pt x="229" y="562" on="1"/>
        <pt x="228" y="548" on="0"/>
        <pt x="228" y="536" on="1"/>
        <pt x="228" y="376" on="0"/>
        <pt x="402" y="376" on="1"/>
        <pt x="397" y="333" on="1"/>
        <pt x="385" y="333" on="1"/>
        <pt x="307" y="333" on="0"/>
        <pt x="206" y="278" on="0"/>
        <pt x="206" y="153" on="0"/>
        <pt x="274" y="83" on="0"/>
        <pt x="335" y="83" on="1"/>
        <pt x="375" y="83" on="0"/>
        <pt x="399" y="94" on="1"/>
        <pt x="407" y="116" on="0"/>
        <pt x="407" y="171" on="0"/>
        <pt x="396" y="181" on="1"/>
        <pt x="397" y="188" on="1"/>
        <pt x="450" y="207" on="0"/>
        <pt x="485" y="238" on="1"/>
        <pt x="511" y="236" on="0"/>
        <pt x="511" y="209" on="1"/>
        <pt x="511" y="138" on="0"/>
        <pt x="392" y="8" on="0"/>
        <pt x="318" y="-15" on="1"/>
        <pt x="201" y="-15" on="0"/>
        <pt x="118" y="26" on="1"/>
        <pt x="76" y="48" on="0"/>
        <pt x="26" y="125" on="0"/>
      </contour>
      <contour>
        <pt x="163" y="893" on="1"/>
        <pt x="171" y="896" on="0"/>
        <pt x="200" y="896" on="0"/>
        <pt x="211" y="893" on="1"/>
        <pt x="267" y="808" on="0"/>
        <pt x="410" y="741" on="1"/>
        <pt x="400" y="717" on="1"/>
        <pt x="138" y="783" on="1"/>
        <pt x="139" y="809" on="0"/>
        <pt x="154" y="877" on="0"/>
      </contour>
    </TTGlyph>
    <TTGlyph name="Eth" xMin="-100" yMin="-23" xMax="651" yMax="658">
      <contour>
        <pt x="256" y="315" on="1"/>
        <pt x="157" y="310" on="1"/>
        <pt x="85" y="308" on="0"/>
        <pt x="39" y="301" on="1"/>
        <pt x="36" y="305" on="1"/>
        <pt x="41" y="323" on="0"/>
        <pt x="43" y="343" on="1"/>
        <pt x="281" y="354" on="1"/>
        <pt x="350" y="357" on="0"/>
        <pt x="369" y="359" on="1"/>
        <pt x="373" y="333" on="0"/>
        <pt x="378" y="322" on="1"/>
        <pt x="378" y="317" on="1"/>
      </contour>
      <contour>
        <pt x="374" y="651" on="1"/>
        <pt x="514" y="651" on="0"/>
        <pt x="651" y="523" on="0"/>
        <pt x="651" y="237" on="0"/>
        <pt x="471" y="12" on="0"/>
        <pt x="327" y="-15" on="1"/>
        <pt x="248" y="-15" on="0"/>
        <pt x="134" y="25" on="1"/>
        <pt x="120" y="8" on="0"/>
        <pt x="109" y="-23" on="1"/>
        <pt x="84" y="-17" on="1"/>
        <pt x="112" y="116" on="0"/>
        <pt x="112" y="485" on="0"/>
        <pt x="102" y="583" on="1"/>
        <pt x="21" y="580" on="0"/>
        <pt x="2" y="561" on="1"/>
        <pt x="-7" y="536" on="0"/>
        <pt x="-7" y="483" on="0"/>
        <pt x="8" y="474" on="1"/>
        <pt x="7" y="467" on="1"/>
        <pt x="-40" y="448" on="0"/>
        <pt x="-74" y="417" on="1"/>
        <pt x="-100" y="419" on="0"/>
        <pt x="-100" y="446" on="1"/>
        <pt x="-100" y="506" on="0"/>
        <pt x="7" y="630" on="0"/>
        <pt x="71" y="658" on="1"/>
        <pt x="175" y="651" on="0"/>
      </contour>
      <contour>
        <pt x="322" y="586" on="1"/>
        <pt x="303" y="586" on="0"/>
        <pt x="285" y="583" on="1"/>
        <pt x="277" y="494" on="0"/>
        <pt x="277" y="213" on="0"/>
        <pt x="284" y="96" on="1"/>
        <pt x="322" y="69" on="0"/>
        <pt x="408" y="69" on="0"/>
        <pt x="435" y="86" on="1"/>
        <pt x="472" y="176" on="0"/>
        <pt x="472" y="320" on="1"/>
        <pt x="472" y="586" on="0"/>
      </contour>
    </TTGlyph>
    <TTGlyph name="Euro" xMin="25" yMin="-15" xMax="530" yMax="555">
      <contour>
        <pt x="334" y="485" on="1"/>
        <pt x="294" y="485" on="0"/>
        <pt x="277" y="471" on="1"/>
        <pt x="255" y="419" on="0"/>
        <pt x="248" y="332" on="1"/>
        <pt x="358" y="332" on="0"/>
        <pt x="445" y="337" on="1"/>
        <pt x="455" y="306" on="0"/>
        <pt x="455" y="305" on="1"/>
        <pt x="455" y="299" on="1"/>
        <pt x="411" y="299" on="0"/>
        <pt x="246" y="296" on="1"/>
        <pt x="246" y="252" on="1"/>
        <pt x="357" y="252" on="0"/>
        <pt x="445" y="257" on="1"/>
        <pt x="455" y="226" on="0"/>
        <pt x="455" y="225" on="1"/>
        <pt x="455" y="219" on="1"/>
        <pt x="415" y="219" on="0"/>
        <pt x="247" y="216" on="1"/>
        <pt x="252" y="148" on="0"/>
        <pt x="300" y="74" on="0"/>
        <pt x="420" y="74" on="0"/>
        <pt x="482" y="126" on="1"/>
        <pt x="499" y="109" on="1"/>
        <pt x="427" y="17" on="0"/>
        <pt x="333" y="-15" on="1"/>
        <pt x="218" y="-15" on="0"/>
        <pt x="85" y="103" on="0"/>
        <pt x="83" y="213" on="1"/>
        <pt x="28" y="210" on="1"/>
        <pt x="25" y="216" on="1"/>
        <pt x="37" y="236" on="0"/>
        <pt x="42" y="255" on="1"/>
        <pt x="84" y="252" on="1"/>
        <pt x="88" y="277" on="0"/>
        <pt x="91" y="293" on="1"/>
        <pt x="90" y="293" on="1"/>
        <pt x="35" y="290" on="1"/>
        <pt x="32" y="296" on="1"/>
        <pt x="44" y="316" on="0"/>
        <pt x="49" y="335" on="1"/>
        <pt x="101" y="332" on="1"/>
        <pt x="102" y="332" on="1"/>
        <pt x="131" y="414" on="0"/>
        <pt x="265" y="533" on="0"/>
        <pt x="355" y="555" on="1"/>
        <pt x="441" y="555" on="0"/>
        <pt x="530" y="539" on="1"/>
        <pt x="529" y="516" on="1"/>
        <pt x="512" y="516" on="0"/>
        <pt x="491" y="508" on="1"/>
        <pt x="468" y="447" on="0"/>
        <pt x="466" y="379" on="1"/>
        <pt x="441" y="379" on="1"/>
        <pt x="432" y="414" on="0"/>
        <pt x="430" y="450" on="1"/>
        <pt x="393" y="485" on="0"/>
      </contour>
    </TTGlyph>
    <TTGlyph name="F" xMin="-100" yMin="-9" xMax="528" yMax="672">
      <contour>
        <pt x="146" y="666" on="0"/>
        <pt x="355" y="645" on="0"/>
        <pt x="483" y="645" on="0"/>
        <pt x="509" y="672" on="1"/>
        <pt x="528" y="662" on="1"/>
        <pt x="485" y="584" on="0"/>
        <pt x="478" y="480" on="1"/>
        <pt x="453" y="480" on="1"/>
        <pt x="441" y="525" on="0"/>
        <pt x="441" y="576" on="1"/>
        <pt x="414" y="568" on="0"/>
        <pt x="333" y="568" on="0"/>
        <pt x="285" y="576" on="1"/>
        <pt x="277" y="476" on="0"/>
        <pt x="277" y="362" on="1"/>
        <pt x="296" y="358" on="0"/>
        <pt x="319" y="358" on="1"/>
        <pt x="395" y="358" on="0"/>
        <pt x="429" y="393" on="1"/>
        <pt x="451" y="388" on="1"/>
        <pt x="438" y="349" on="0"/>
        <pt x="438" y="267" on="0"/>
        <pt x="448" y="219" on="1"/>
        <pt x="423" y="215" on="1"/>
        <pt x="409" y="251" on="0"/>
        <pt x="402" y="289" on="1"/>
        <pt x="371" y="294" on="0"/>
        <pt x="293" y="294" on="0"/>
        <pt x="277" y="292" on="1"/>
        <pt x="278" y="112" on="0"/>
        <pt x="291" y="34" on="1"/>
        <pt x="330" y="27" on="0"/>
        <pt x="351" y="17" on="1"/>
        <pt x="348" y="-9" on="1"/>
        <pt x="276" y="0" on="0"/>
        <pt x="107" y="0" on="0"/>
        <pt x="47" y="-9" on="1"/>
        <pt x="43" y="18" on="1"/>
        <pt x="65" y="30" on="0"/>
        <pt x="99" y="37" on="1"/>
        <pt x="112" y="135" on="0"/>
        <pt x="112" y="448" on="0"/>
        <pt x="100" y="582" on="1"/>
        <pt x="21" y="579" on="0"/>
        <pt x="2" y="560" on="1"/>
        <pt x="-7" y="535" on="0"/>
        <pt x="-7" y="482" on="0"/>
        <pt x="8" y="473" on="1"/>
        <pt x="7" y="466" on="1"/>
        <pt x="-40" y="447" on="0"/>
        <pt x="-74" y="416" on="1"/>
        <pt x="-100" y="418" on="0"/>
        <pt x="-100" y="445" on="1"/>
        <pt x="-100" y="510" on="0"/>
        <pt x="23" y="643" on="0"/>
        <pt x="93" y="666" on="1"/>
      </contour>
    </TTGlyph>
    <TTGlyph name="G" xMin="30" yMin="-199" xMax="562" yMax="666">
      <contour>
        <pt x="264" y="101" on="0"/>
        <pt x="310" y="83" on="0"/>
        <pt x="363" y="83" on="0"/>
        <pt x="381" y="86" on="1"/>
        <pt x="376" y="194" on="1"/>
        <pt x="374" y="228" on="0"/>
        <pt x="367" y="261" on="1"/>
        <pt x="345" y="273" on="0"/>
        <pt x="306" y="280" on="1"/>
        <pt x="309" y="302" on="1"/>
        <pt x="331" y="299" on="0"/>
        <pt x="401" y="299" on="0"/>
        <pt x="509" y="325" on="0"/>
        <pt x="546" y="350" on="1"/>
        <pt x="561" y="333" on="1"/>
        <pt x="538" y="314" on="0"/>
        <pt x="527" y="294" on="1"/>
        <pt x="513" y="152" on="0"/>
        <pt x="505" y="-4" on="1"/>
        <pt x="473" y="-75" on="0"/>
        <pt x="338" y="-199" on="0"/>
        <pt x="274" y="-199" on="1"/>
        <pt x="247" y="-199" on="0"/>
        <pt x="245" y="-173" on="1"/>
        <pt x="276" y="-139" on="0"/>
        <pt x="295" y="-92" on="1"/>
        <pt x="302" y="-91" on="1"/>
        <pt x="311" y="-106" on="0"/>
        <pt x="364" y="-106" on="0"/>
        <pt x="389" y="-97" on="1"/>
        <pt x="399" y="-73" on="0"/>
        <pt x="399" y="6" on="0"/>
        <pt x="394" y="24" on="1"/>
        <pt x="394" y="25" on="1"/>
        <pt x="357" y="1" on="0"/>
        <pt x="311" y="-15" on="1"/>
        <pt x="174" y="-15" on="0"/>
        <pt x="30" y="129" on="0"/>
        <pt x="30" y="406" on="0"/>
        <pt x="198" y="618" on="0"/>
        <pt x="339" y="666" on="1"/>
        <pt x="449" y="666" on="0"/>
        <pt x="562" y="642" on="1"/>
        <pt x="561" y="618" on="1"/>
        <pt x="534" y="618" on="0"/>
        <pt x="512" y="609" on="1"/>
        <pt x="483" y="530" on="0"/>
        <pt x="483" y="451" on="1"/>
        <pt x="456" y="451" on="1"/>
        <pt x="446" y="489" on="0"/>
        <pt x="444" y="535" on="1"/>
        <pt x="420" y="556" on="0"/>
        <pt x="347" y="582" on="0"/>
        <pt x="267" y="582" on="0"/>
        <pt x="245" y="565" on="1"/>
        <pt x="228" y="526" on="0"/>
        <pt x="209" y="390" on="0"/>
        <pt x="209" y="298" on="0"/>
        <pt x="211" y="250" on="0"/>
        <pt x="218" y="181" on="0"/>
        <pt x="236" y="141" on="0"/>
      </contour>
    </TTGlyph>
    <TTGlyph name="H" xMin="-99" yMin="-9" xMax="789" yMax="858">
      <contour>
        <pt x="716" y="-9" on="1"/>
        <pt x="652" y="0" on="0"/>
        <pt x="475" y="0" on="0"/>
        <pt x="416" y="-9" on="1"/>
        <pt x="412" y="18" on="1"/>
        <pt x="431" y="30" on="0"/>
        <pt x="458" y="37" on="1"/>
        <pt x="468" y="139" on="0"/>
        <pt x="469" y="315" on="1"/>
        <pt x="425" y="322" on="0"/>
        <pt x="319" y="322" on="0"/>
        <pt x="275" y="315" on="1"/>
        <pt x="276" y="113" on="0"/>
        <pt x="288" y="34" on="1"/>
        <pt x="327" y="27" on="0"/>
        <pt x="348" y="17" on="1"/>
        <pt x="345" y="-9" on="1"/>
        <pt x="273" y="0" on="0"/>
        <pt x="105" y="0" on="0"/>
        <pt x="45" y="-9" on="1"/>
        <pt x="41" y="18" on="1"/>
        <pt x="63" y="30" on="0"/>
        <pt x="97" y="37" on="1"/>
        <pt x="110" y="135" on="0"/>
        <pt x="110" y="476" on="0"/>
        <pt x="102" y="582" on="1"/>
        <pt x="23" y="580" on="0"/>
        <pt x="3" y="560" on="1"/>
        <pt x="-6" y="535" on="0"/>
        <pt x="-6" y="482" on="0"/>
        <pt x="9" y="473" on="1"/>
        <pt x="8" y="466" on="1"/>
        <pt x="-39" y="447" on="0"/>
        <pt x="-73" y="416" on="1"/>
        <pt x="-99" y="418" on="0"/>
        <pt x="-99" y="445" on="1"/>
        <pt x="-99" y="509" on="0"/>
        <pt x="20" y="639" on="0"/>
        <pt x="88" y="664" on="1"/>
        <pt x="101" y="664" on="0"/>
        <pt x="216" y="651" on="0"/>
        <pt x="300" y="651" on="0"/>
        <pt x="342" y="660" on="1"/>
        <pt x="346" y="633" on="1"/>
        <pt x="327" y="623" on="0"/>
        <pt x="289" y="611" on="1"/>
        <pt x="278" y="539" on="0"/>
        <pt x="275" y="394" on="1"/>
        <pt x="315" y="385" on="0"/>
        <pt x="434" y="385" on="0"/>
        <pt x="469" y="393" on="1"/>
        <pt x="466" y="549" on="0"/>
        <pt x="458" y="633" on="1"/>
        <pt x="495" y="703" on="0"/>
        <pt x="691" y="858" on="0"/>
        <pt x="760" y="858" on="1"/>
        <pt x="787" y="858" on="0"/>
        <pt x="789" y="832" on="1"/>
        <pt x="758" y="798" on="0"/>
        <pt x="739" y="751" on="1"/>
        <pt x="732" y="750" on="1"/>
        <pt x="723" y="765" on="0"/>
        <pt x="670" y="765" on="0"/>
        <pt x="645" y="756" on="1"/>
        <pt x="635" y="730" on="0"/>
        <pt x="635" y="651" on="1"/>
        <pt x="634" y="326" on="1"/>
        <pt x="634" y="119" on="0"/>
        <pt x="649" y="34" on="1"/>
        <pt x="693" y="27" on="0"/>
        <pt x="719" y="17" on="1"/>
      </contour>
    </TTGlyph>
    <TTGlyph name="I" xMin="39" yMin="-9" xMax="349" yMax="660">
      <contour>
        <pt x="287" y="617" on="1"/>
        <pt x="275" y="540" on="0"/>
        <pt x="275" y="129" on="0"/>
        <pt x="289" y="34" on="1"/>
        <pt x="328" y="27" on="0"/>
        <pt x="349" y="17" on="1"/>
        <pt x="346" y="-9" on="1"/>
        <pt x="274" y="0" on="0"/>
        <pt x="105" y="0" on="0"/>
        <pt x="45" y="-9" on="1"/>
        <pt x="41" y="18" on="1"/>
        <pt x="63" y="30" on="0"/>
        <pt x="97" y="37" on="1"/>
        <pt x="110" y="135" on="0"/>
        <pt x="110" y="503" on="0"/>
        <pt x="95" y="614" on="1"/>
        <pt x="61" y="621" on="0"/>
        <pt x="39" y="633" on="1"/>
        <pt x="43" y="660" on="1"/>
        <pt x="103" y="651" on="0"/>
        <pt x="272" y="651" on="0"/>
        <pt x="344" y="660" on="1"/>
        <pt x="347" y="634" on="1"/>
        <pt x="326" y="624" on="0"/>
      </contour>
    </TTGlyph>
    <TTGlyph name="IJ" xMin="39" yMin="-182" xMax="731" yMax="660">
      <contour>
        <pt x="495" y="164" on="1"/>
        <pt x="495" y="354" on="1"/>
        <pt x="495" y="540" on="0"/>
        <pt x="483" y="617" on="1"/>
        <pt x="444" y="624" on="0"/>
        <pt x="423" y="634" on="1"/>
        <pt x="426" y="660" on="1"/>
        <pt x="498" y="651" on="0"/>
        <pt x="667" y="651" on="0"/>
        <pt x="727" y="660" on="1"/>
        <pt x="731" y="633" on="1"/>
        <pt x="709" y="621" on="0"/>
        <pt x="675" y="614" on="1"/>
        <pt x="660" y="503" on="0"/>
        <pt x="660" y="134" on="0"/>
        <pt x="673" y="37" on="1"/>
        <pt x="572" y="-92" on="0"/>
        <pt x="373" y="-182" on="1"/>
        <pt x="356" y="-161" on="1"/>
        <pt x="436" y="-100" on="0"/>
        <pt x="495" y="51" on="0"/>
      </contour>
      <contour>
        <pt x="287" y="617" on="1"/>
        <pt x="275" y="540" on="0"/>
        <pt x="275" y="129" on="0"/>
        <pt x="289" y="34" on="1"/>
        <pt x="328" y="27" on="0"/>
        <pt x="349" y="17" on="1"/>
        <pt x="346" y="-9" on="1"/>
        <pt x="274" y="0" on="0"/>
        <pt x="105" y="0" on="0"/>
        <pt x="45" y="-9" on="1"/>
        <pt x="41" y="18" on="1"/>
        <pt x="63" y="30" on="0"/>
        <pt x="97" y="37" on="1"/>
        <pt x="110" y="135" on="0"/>
        <pt x="110" y="503" on="0"/>
        <pt x="95" y="614" on="1"/>
        <pt x="61" y="621" on="0"/>
        <pt x="39" y="633" on="1"/>
        <pt x="43" y="660" on="1"/>
        <pt x="103" y="651" on="0"/>
        <pt x="272" y="651" on="0"/>
        <pt x="344" y="660" on="1"/>
        <pt x="347" y="634" on="1"/>
        <pt x="326" y="624" on="0"/>
      </contour>
    </TTGlyph>
    <TTGlyph name="Iacute" xMin="39" yMin="-9" xMax="349" yMax="886">
      <contour>
        <pt x="287" y="617" on="1"/>
        <pt x="275" y="540" on="0"/>
        <pt x="275" y="129" on="0"/>
        <pt x="289" y="34" on="1"/>
        <pt x="328" y="27" on="0"/>
        <pt x="349" y="17" on="1"/>
        <pt x="346" y="-9" on="1"/>
        <pt x="274" y="0" on="0"/>
        <pt x="105" y="0" on="0"/>
        <pt x="45" y="-9" on="1"/>
        <pt x="41" y="18" on="1"/>
        <pt x="63" y="30" on="0"/>
        <pt x="97" y="37" on="1"/>
        <pt x="110" y="135" on="0"/>
        <pt x="110" y="503" on="0"/>
        <pt x="95" y="614" on="1"/>
        <pt x="61" y="621" on="0"/>
        <pt x="39" y="633" on="1"/>
        <pt x="43" y="660" on="1"/>
        <pt x="103" y="651" on="0"/>
        <pt x="272" y="651" on="0"/>
        <pt x="344" y="660" on="1"/>
        <pt x="347" y="634" on="1"/>
        <pt x="326" y="624" on="0"/>
      </contour>
      <contour>
        <pt x="261" y="883" on="1"/>
        <pt x="270" y="886" on="0"/>
        <pt x="302" y="886" on="0"/>
        <pt x="309" y="883" on="1"/>
        <pt x="318" y="867" on="0"/>
        <pt x="333" y="799" on="0"/>
        <pt x="334" y="773" on="1"/>
        <pt x="72" y="707" on="1"/>
        <pt x="62" y="731" on="1"/>
        <pt x="205" y="798" on="0"/>
      </contour>
    </TTGlyph>
    <TTGlyph name="Icircumflex" xMin="-2" yMin="-9" xMax="386" yMax="886">
      <contour>
        <pt x="172" y="886" on="0"/>
        <pt x="212" y="886" on="0"/>
        <pt x="223" y="883" on="1"/>
        <pt x="291" y="781" on="0"/>
        <pt x="386" y="731" on="1"/>
        <pt x="376" y="707" on="1"/>
        <pt x="192" y="769" on="1"/>
        <pt x="8" y="707" on="1"/>
        <pt x="-2" y="731" on="1"/>
        <pt x="93" y="781" on="0"/>
        <pt x="161" y="883" on="1"/>
      </contour>
      <contour>
        <pt x="287" y="617" on="1"/>
        <pt x="275" y="540" on="0"/>
        <pt x="275" y="129" on="0"/>
        <pt x="289" y="34" on="1"/>
        <pt x="328" y="27" on="0"/>
        <pt x="349" y="17" on="1"/>
        <pt x="346" y="-9" on="1"/>
        <pt x="274" y="0" on="0"/>
        <pt x="105" y="0" on="0"/>
        <pt x="45" y="-9" on="1"/>
        <pt x="41" y="18" on="1"/>
        <pt x="63" y="30" on="0"/>
        <pt x="97" y="37" on="1"/>
        <pt x="110" y="135" on="0"/>
        <pt x="110" y="503" on="0"/>
        <pt x="95" y="614" on="1"/>
        <pt x="61" y="621" on="0"/>
        <pt x="39" y="633" on="1"/>
        <pt x="43" y="660" on="1"/>
        <pt x="103" y="651" on="0"/>
        <pt x="272" y="651" on="0"/>
        <pt x="344" y="660" on="1"/>
        <pt x="347" y="634" on="1"/>
        <pt x="326" y="624" on="0"/>
      </contour>
      <contour>
        <pt x="287" y="617" on="1"/>
        <pt x="326" y="624" on="0"/>
        <pt x="347" y="634" on="1"/>
        <pt x="344" y="660" on="1"/>
        <pt x="272" y="651" on="0"/>
        <pt x="103" y="651" on="0"/>
        <pt x="43" y="660" on="1"/>
        <pt x="39" y="633" on="1"/>
        <pt x="61" y="621" on="0"/>
        <pt x="95" y="614" on="1"/>
        <pt x="110" y="503" on="0"/>
        <pt x="110" y="135" on="0"/>
        <pt x="97" y="37" on="1"/>
        <pt x="63" y="30" on="0"/>
        <pt x="41" y="18" on="1"/>
        <pt x="41" y="18" on="0"/>
        <pt x="45" y="-9" on="1"/>
        <pt x="105" y="0" on="0"/>
        <pt x="274" y="0" on="0"/>
        <pt x="346" y="-9" on="1"/>
        <pt x="349" y="17" on="1"/>
        <pt x="328" y="27" on="0"/>
        <pt x="289" y="34" on="1"/>
        <pt x="275" y="129" on="0"/>
        <pt x="275" y="540" on="0"/>
      </contour>
    </TTGlyph>
    <TTGlyph name="Idieresis" xMin="-9" yMin="-9" xMax="392" yMax="885">
      <contour>
        <pt x="287" y="617" on="1"/>
        <pt x="275" y="540" on="0"/>
        <pt x="275" y="129" on="0"/>
        <pt x="289" y="34" on="1"/>
        <pt x="328" y="27" on="0"/>
        <pt x="349" y="17" on="1"/>
        <pt x="346" y="-9" on="1"/>
        <pt x="274" y="0" on="0"/>
        <pt x="105" y="0" on="0"/>
        <pt x="45" y="-9" on="1"/>
        <pt x="41" y="18" on="1"/>
        <pt x="63" y="30" on="0"/>
        <pt x="97" y="37" on="1"/>
        <pt x="110" y="135" on="0"/>
        <pt x="110" y="503" on="0"/>
        <pt x="95" y="614" on="1"/>
        <pt x="61" y="621" on="0"/>
        <pt x="39" y="633" on="1"/>
        <pt x="43" y="660" on="1"/>
        <pt x="103" y="651" on="0"/>
        <pt x="272" y="651" on="0"/>
        <pt x="344" y="660" on="1"/>
        <pt x="347" y="634" on="1"/>
        <pt x="326" y="624" on="0"/>
      </contour>
      <contour>
        <pt x="170" y="809" on="1"/>
        <pt x="160" y="788" on="0"/>
        <pt x="103" y="729" on="0"/>
        <pt x="81" y="714" on="1"/>
        <pt x="59" y="729" on="0"/>
        <pt x="2" y="788" on="0"/>
        <pt x="-9" y="809" on="1"/>
        <pt x="3" y="829" on="0"/>
        <pt x="56" y="874" on="0"/>
        <pt x="81" y="885" on="1"/>
        <pt x="104" y="873" on="0"/>
        <pt x="157" y="828" on="0"/>
      </contour>
      <contour>
        <pt x="392" y="809" on="1"/>
        <pt x="382" y="788" on="0"/>
        <pt x="325" y="729" on="0"/>
        <pt x="303" y="714" on="1"/>
        <pt x="281" y="729" on="0"/>
        <pt x="224" y="788" on="0"/>
        <pt x="213" y="809" on="1"/>
        <pt x="225" y="829" on="0"/>
        <pt x="278" y="874" on="0"/>
        <pt x="303" y="885" on="1"/>
        <pt x="326" y="873" on="0"/>
        <pt x="379" y="828" on="0"/>
      </contour>
    </TTGlyph>
    <TTGlyph name="Igrave" xMin="39" yMin="-9" xMax="349" yMax="896">
      <contour>
        <pt x="287" y="617" on="1"/>
        <pt x="275" y="540" on="0"/>
        <pt x="275" y="129" on="0"/>
        <pt x="289" y="34" on="1"/>
        <pt x="328" y="27" on="0"/>
        <pt x="349" y="17" on="1"/>
        <pt x="346" y="-9" on="1"/>
        <pt x="274" y="0" on="0"/>
        <pt x="105" y="0" on="0"/>
        <pt x="45" y="-9" on="1"/>
        <pt x="41" y="18" on="1"/>
        <pt x="63" y="30" on="0"/>
        <pt x="97" y="37" on="1"/>
        <pt x="110" y="135" on="0"/>
        <pt x="110" y="503" on="0"/>
        <pt x="95" y="614" on="1"/>
        <pt x="61" y="621" on="0"/>
        <pt x="39" y="633" on="1"/>
        <pt x="43" y="660" on="1"/>
        <pt x="103" y="651" on="0"/>
        <pt x="272" y="651" on="0"/>
        <pt x="344" y="660" on="1"/>
        <pt x="347" y="634" on="1"/>
        <pt x="326" y="624" on="0"/>
      </contour>
      <contour>
        <pt x="74" y="896" on="0"/>
        <pt x="104" y="896" on="0"/>
        <pt x="115" y="893" on="1"/>
        <pt x="171" y="808" on="0"/>
        <pt x="314" y="741" on="1"/>
        <pt x="304" y="717" on="1"/>
        <pt x="42" y="783" on="1"/>
        <pt x="43" y="809" on="0"/>
        <pt x="58" y="877" on="0"/>
        <pt x="67" y="893" on="1"/>
      </contour>
    </TTGlyph>
    <TTGlyph name="Itilde" xMin="11" yMin="-9" xMax="427" yMax="885">
      <contour>
        <pt x="317" y="834" on="1"/>
        <pt x="376" y="834" on="0"/>
        <pt x="403" y="873" on="1"/>
        <pt x="427" y="856" on="1"/>
        <pt x="352" y="754" on="0"/>
        <pt x="289" y="720" on="1"/>
        <pt x="268" y="720" on="0"/>
        <pt x="147" y="772" on="0"/>
        <pt x="117" y="772" on="1"/>
        <pt x="60" y="772" on="0"/>
        <pt x="35" y="733" on="1"/>
        <pt x="11" y="750" on="1"/>
        <pt x="83" y="850" on="0"/>
        <pt x="180" y="885" on="1"/>
        <pt x="222" y="858" on="0"/>
        <pt x="280" y="834" on="0"/>
      </contour>
      <contour>
        <pt x="287" y="617" on="1"/>
        <pt x="275" y="540" on="0"/>
        <pt x="275" y="129" on="0"/>
        <pt x="289" y="34" on="1"/>
        <pt x="328" y="27" on="0"/>
        <pt x="349" y="17" on="1"/>
        <pt x="346" y="-9" on="1"/>
        <pt x="274" y="0" on="0"/>
        <pt x="105" y="0" on="0"/>
        <pt x="45" y="-9" on="1"/>
        <pt x="41" y="18" on="1"/>
        <pt x="63" y="30" on="0"/>
        <pt x="97" y="37" on="1"/>
        <pt x="110" y="135" on="0"/>
        <pt x="110" y="503" on="0"/>
        <pt x="95" y="614" on="1"/>
        <pt x="61" y="621" on="0"/>
        <pt x="39" y="633" on="1"/>
        <pt x="43" y="660" on="1"/>
        <pt x="103" y="651" on="0"/>
        <pt x="272" y="651" on="0"/>
        <pt x="344" y="660" on="1"/>
        <pt x="347" y="634" on="1"/>
        <pt x="326" y="624" on="0"/>
      </contour>
    </TTGlyph>
    <TTGlyph name="J" xMin="-100" yMin="-182" xMax="345" yMax="664">
      <contour>
        <pt x="100" y="664" on="0"/>
        <pt x="215" y="651" on="0"/>
        <pt x="299" y="651" on="0"/>
        <pt x="341" y="660" on="1"/>
        <pt x="345" y="633" on="1"/>
        <pt x="326" y="623" on="0"/>
        <pt x="288" y="611" on="1"/>
        <pt x="274" y="507" on="0"/>
        <pt x="274" y="134" on="0"/>
        <pt x="287" y="37" on="1"/>
        <pt x="186" y="-92" on="0"/>
        <pt x="-13" y="-182" on="1"/>
        <pt x="-30" y="-161" on="1"/>
        <pt x="50" y="-100" on="0"/>
        <pt x="109" y="51" on="0"/>
        <pt x="109" y="164" on="1"/>
        <pt x="109" y="354" on="1"/>
        <pt x="109" y="476" on="0"/>
        <pt x="101" y="582" on="1"/>
        <pt x="22" y="580" on="0"/>
        <pt x="2" y="560" on="1"/>
        <pt x="-7" y="535" on="0"/>
        <pt x="-7" y="482" on="0"/>
        <pt x="8" y="473" on="1"/>
        <pt x="7" y="466" on="1"/>
        <pt x="-40" y="447" on="0"/>
        <pt x="-74" y="416" on="1"/>
        <pt x="-100" y="418" on="0"/>
        <pt x="-100" y="445" on="1"/>
        <pt x="-100" y="509" on="0"/>
        <pt x="19" y="639" on="0"/>
        <pt x="87" y="664" on="1"/>
      </contour>
    </TTGlyph>
    <TTGlyph name="Jcircumflex" xMin="-100" yMin="-182" xMax="385" yMax="886">
      <contour>
        <pt x="170" y="886" on="0"/>
        <pt x="212" y="886" on="0"/>
        <pt x="222" y="883" on="1"/>
        <pt x="290" y="781" on="0"/>
        <pt x="385" y="731" on="1"/>
        <pt x="375" y="707" on="1"/>
        <pt x="191" y="769" on="1"/>
        <pt x="7" y="707" on="1"/>
        <pt x="-3" y="731" on="1"/>
        <pt x="92" y="781" on="0"/>
        <pt x="160" y="883" on="1"/>
      </contour>
      <contour>
        <pt x="100" y="664" on="0"/>
        <pt x="215" y="651" on="0"/>
        <pt x="299" y="651" on="0"/>
        <pt x="341" y="660" on="1"/>
        <pt x="345" y="633" on="1"/>
        <pt x="326" y="623" on="0"/>
        <pt x="288" y="611" on="1"/>
        <pt x="274" y="507" on="0"/>
        <pt x="274" y="134" on="0"/>
        <pt x="287" y="37" on="1"/>
        <pt x="186" y="-92" on="0"/>
        <pt x="-13" y="-182" on="1"/>
        <pt x="-30" y="-161" on="1"/>
        <pt x="50" y="-100" on="0"/>
        <pt x="109" y="51" on="0"/>
        <pt x="109" y="164" on="1"/>
        <pt x="109" y="354" on="1"/>
        <pt x="109" y="476" on="0"/>
        <pt x="101" y="582" on="1"/>
        <pt x="22" y="580" on="0"/>
        <pt x="2" y="560" on="1"/>
        <pt x="-7" y="535" on="0"/>
        <pt x="-7" y="482" on="0"/>
        <pt x="8" y="473" on="1"/>
        <pt x="7" y="466" on="1"/>
        <pt x="-40" y="447" on="0"/>
        <pt x="-74" y="416" on="1"/>
        <pt x="-100" y="418" on="0"/>
        <pt x="-100" y="445" on="1"/>
        <pt x="-100" y="509" on="0"/>
        <pt x="19" y="639" on="0"/>
        <pt x="87" y="664" on="1"/>
      </contour>
    </TTGlyph>
    <TTGlyph name="K" xMin="-100" yMin="-119" xMax="883" yMax="664">
      <contour>
        <pt x="411" y="530" on="0"/>
        <pt x="423" y="573" on="0"/>
        <pt x="423" y="625" on="0"/>
        <pt x="401" y="642" on="1"/>
        <pt x="404" y="658" on="1"/>
        <pt x="458" y="651" on="0"/>
        <pt x="631" y="651" on="0"/>
        <pt x="674" y="660" on="1"/>
        <pt x="678" y="633" on="1"/>
        <pt x="658" y="622" on="0"/>
        <pt x="622" y="614" on="1"/>
        <pt x="439" y="427" on="1"/>
        <pt x="647" y="32" on="1"/>
        <pt x="682" y="-35" on="0"/>
        <pt x="717" y="-60" on="1"/>
        <pt x="789" y="-52" on="0"/>
        <pt x="794" y="-20" on="1"/>
        <pt x="802" y="-17" on="1"/>
        <pt x="837" y="-52" on="0"/>
        <pt x="880" y="-72" on="1"/>
        <pt x="883" y="-78" on="0"/>
        <pt x="883" y="-84" on="1"/>
        <pt x="883" y="-103" on="0"/>
        <pt x="826" y="-119" on="0"/>
        <pt x="796" y="-119" on="1"/>
        <pt x="709" y="-119" on="0"/>
        <pt x="502" y="-38" on="0"/>
        <pt x="428" y="20" on="1"/>
        <pt x="434" y="42" on="0"/>
        <pt x="434" y="69" on="1"/>
        <pt x="434" y="123" on="0"/>
        <pt x="402" y="201" on="1"/>
        <pt x="347" y="334" on="1"/>
        <pt x="277" y="262" on="1"/>
        <pt x="280" y="114" on="0"/>
        <pt x="291" y="34" on="1"/>
        <pt x="330" y="27" on="0"/>
        <pt x="351" y="17" on="1"/>
        <pt x="348" y="-9" on="1"/>
        <pt x="276" y="0" on="0"/>
        <pt x="107" y="0" on="0"/>
        <pt x="47" y="-9" on="1"/>
        <pt x="43" y="18" on="1"/>
        <pt x="65" y="30" on="0"/>
        <pt x="99" y="37" on="1"/>
        <pt x="112" y="135" on="0"/>
        <pt x="112" y="465" on="0"/>
        <pt x="101" y="582" on="1"/>
        <pt x="100" y="582" on="1"/>
        <pt x="21" y="579" on="0"/>
        <pt x="2" y="560" on="1"/>
        <pt x="-7" y="535" on="0"/>
        <pt x="-7" y="482" on="0"/>
        <pt x="8" y="473" on="1"/>
        <pt x="7" y="466" on="1"/>
        <pt x="-40" y="447" on="0"/>
        <pt x="-74" y="416" on="1"/>
        <pt x="-100" y="418" on="0"/>
        <pt x="-100" y="445" on="1"/>
        <pt x="-100" y="509" on="0"/>
        <pt x="19" y="639" on="0"/>
        <pt x="87" y="664" on="1"/>
        <pt x="100" y="664" on="0"/>
        <pt x="215" y="651" on="0"/>
        <pt x="299" y="651" on="0"/>
        <pt x="341" y="660" on="1"/>
        <pt x="345" y="633" on="1"/>
        <pt x="326" y="623" on="0"/>
        <pt x="288" y="611" on="1"/>
        <pt x="277" y="523" on="0"/>
        <pt x="277" y="329" on="1"/>
        <pt x="343" y="416" on="0"/>
      </contour>
    </TTGlyph>
    <TTGlyph name="L" xMin="39" yMin="-23" xMax="535" yMax="660">
      <contour>
        <pt x="82" y="-17" on="1"/>
        <pt x="110" y="116" on="0"/>
        <pt x="110" y="503" on="0"/>
        <pt x="95" y="614" on="1"/>
        <pt x="61" y="621" on="0"/>
        <pt x="39" y="633" on="1"/>
        <pt x="43" y="660" on="1"/>
        <pt x="103" y="651" on="0"/>
        <pt x="272" y="651" on="0"/>
        <pt x="344" y="660" on="1"/>
        <pt x="347" y="634" on="1"/>
        <pt x="326" y="624" on="0"/>
        <pt x="287" y="617" on="1"/>
        <pt x="275" y="540" on="0"/>
        <pt x="275" y="150" on="0"/>
        <pt x="283" y="70" on="1"/>
        <pt x="301" y="63" on="0"/>
        <pt x="336" y="63" on="1"/>
        <pt x="398" y="63" on="0"/>
        <pt x="433" y="88" on="1"/>
        <pt x="442" y="113" on="0"/>
        <pt x="442" y="167" on="0"/>
        <pt x="427" y="176" on="1"/>
        <pt x="428" y="183" on="1"/>
        <pt x="475" y="202" on="0"/>
        <pt x="509" y="233" on="1"/>
        <pt x="535" y="231" on="0"/>
        <pt x="535" y="204" on="1"/>
        <pt x="535" y="140" on="0"/>
        <pt x="416" y="10" on="0"/>
        <pt x="348" y="-15" on="1"/>
        <pt x="246" y="-15" on="0"/>
        <pt x="132" y="25" on="1"/>
        <pt x="118" y="8" on="0"/>
        <pt x="107" y="-23" on="1"/>
      </contour>
    </TTGlyph>
    <TTGlyph name="Ldotaccent" xMin="39" yMin="-23" xMax="535" yMax="660">
      <contour>
        <pt x="495" y="385" on="1"/>
        <pt x="485" y="364" on="0"/>
        <pt x="428" y="305" on="0"/>
        <pt x="406" y="290" on="1"/>
        <pt x="384" y="305" on="0"/>
        <pt x="327" y="364" on="0"/>
        <pt x="316" y="385" on="1"/>
        <pt x="328" y="405" on="0"/>
        <pt x="381" y="450" on="0"/>
        <pt x="406" y="461" on="1"/>
        <pt x="429" y="449" on="0"/>
        <pt x="482" y="404" on="0"/>
      </contour>
      <contour>
        <pt x="82" y="-17" on="1"/>
        <pt x="110" y="116" on="0"/>
        <pt x="110" y="503" on="0"/>
        <pt x="95" y="614" on="1"/>
        <pt x="61" y="621" on="0"/>
        <pt x="39" y="633" on="1"/>
        <pt x="43" y="660" on="1"/>
        <pt x="103" y="651" on="0"/>
        <pt x="272" y="651" on="0"/>
        <pt x="344" y="660" on="1"/>
        <pt x="347" y="634" on="1"/>
        <pt x="326" y="624" on="0"/>
        <pt x="287" y="617" on="1"/>
        <pt x="275" y="540" on="0"/>
        <pt x="275" y="150" on="0"/>
        <pt x="283" y="70" on="1"/>
        <pt x="301" y="63" on="0"/>
        <pt x="336" y="63" on="1"/>
        <pt x="398" y="63" on="0"/>
        <pt x="433" y="88" on="1"/>
        <pt x="442" y="113" on="0"/>
        <pt x="442" y="167" on="0"/>
        <pt x="427" y="176" on="1"/>
        <pt x="428" y="183" on="1"/>
        <pt x="475" y="202" on="0"/>
        <pt x="509" y="233" on="1"/>
        <pt x="535" y="231" on="0"/>
        <pt x="535" y="204" on="1"/>
        <pt x="535" y="140" on="0"/>
        <pt x="416" y="10" on="0"/>
        <pt x="348" y="-15" on="1"/>
        <pt x="246" y="-15" on="0"/>
        <pt x="132" y="25" on="1"/>
        <pt x="118" y="8" on="0"/>
        <pt x="107" y="-23" on="1"/>
      </contour>
    </TTGlyph>
    <TTGlyph name="Lslash" xMin="29" yMin="-23" xMax="535" yMax="660">
      <contour>
        <pt x="397" y="442" on="1"/>
        <pt x="405" y="396" on="1"/>
        <pt x="48" y="266" on="1"/>
        <pt x="39" y="270" on="1"/>
        <pt x="29" y="318" on="1"/>
        <pt x="154" y="354" on="0"/>
        <pt x="355" y="427" on="0"/>
        <pt x="390" y="445" on="1"/>
      </contour>
      <contour>
        <pt x="82" y="-17" on="1"/>
        <pt x="110" y="116" on="0"/>
        <pt x="110" y="503" on="0"/>
        <pt x="95" y="614" on="1"/>
        <pt x="61" y="621" on="0"/>
        <pt x="39" y="633" on="1"/>
        <pt x="43" y="660" on="1"/>
        <pt x="103" y="651" on="0"/>
        <pt x="272" y="651" on="0"/>
        <pt x="344" y="660" on="1"/>
        <pt x="347" y="634" on="1"/>
        <pt x="326" y="624" on="0"/>
        <pt x="287" y="617" on="1"/>
        <pt x="275" y="540" on="0"/>
        <pt x="275" y="150" on="0"/>
        <pt x="283" y="70" on="1"/>
        <pt x="301" y="63" on="0"/>
        <pt x="336" y="63" on="1"/>
        <pt x="398" y="63" on="0"/>
        <pt x="433" y="88" on="1"/>
        <pt x="442" y="113" on="0"/>
        <pt x="442" y="167" on="0"/>
        <pt x="427" y="176" on="1"/>
        <pt x="428" y="183" on="1"/>
        <pt x="475" y="202" on="0"/>
        <pt x="509" y="233" on="1"/>
        <pt x="535" y="231" on="0"/>
        <pt x="535" y="204" on="1"/>
        <pt x="535" y="140" on="0"/>
        <pt x="416" y="10" on="0"/>
        <pt x="348" y="-15" on="1"/>
        <pt x="246" y="-15" on="0"/>
        <pt x="132" y="25" on="1"/>
        <pt x="118" y="8" on="0"/>
        <pt x="107" y="-23" on="1"/>
      </contour>
    </TTGlyph>
    <TTGlyph name="M" xMin="-50" yMin="-9" xMax="862" yMax="664">
      <contour>
        <pt x="159" y="664" on="0"/>
        <pt x="274" y="651" on="0"/>
        <pt x="363" y="651" on="0"/>
        <pt x="396" y="659" on="1"/>
        <pt x="399" y="641" on="1"/>
        <pt x="365" y="632" on="0"/>
        <pt x="365" y="607" on="1"/>
        <pt x="365" y="588" on="0"/>
        <pt x="416" y="364" on="0"/>
        <pt x="434" y="283" on="1"/>
        <pt x="440" y="255" on="1"/>
        <pt x="450" y="258" on="1"/>
        <pt x="453" y="314" on="0"/>
        <pt x="536" y="607" on="1"/>
        <pt x="536" y="632" on="0"/>
        <pt x="510" y="640" on="1"/>
        <pt x="513" y="657" on="1"/>
        <pt x="564" y="651" on="0"/>
        <pt x="738" y="651" on="0"/>
        <pt x="790" y="659" on="1"/>
        <pt x="795" y="634" on="1"/>
        <pt x="775" y="623" on="0"/>
        <pt x="748" y="616" on="1"/>
        <pt x="742" y="588" on="0"/>
        <pt x="742" y="461" on="0"/>
        <pt x="776" y="114" on="0"/>
        <pt x="792" y="34" on="1"/>
        <pt x="836" y="27" on="0"/>
        <pt x="862" y="17" on="1"/>
        <pt x="859" y="-9" on="1"/>
        <pt x="795" y="0" on="0"/>
        <pt x="625" y="0" on="0"/>
        <pt x="566" y="-9" on="1"/>
        <pt x="562" y="18" on="1"/>
        <pt x="581" y="30" on="0"/>
        <pt x="608" y="37" on="1"/>
        <pt x="606" y="268" on="0"/>
        <pt x="575" y="477" on="1"/>
        <pt x="568" y="478" on="1"/>
        <pt x="509" y="295" on="0"/>
        <pt x="479" y="157" on="0"/>
        <pt x="479" y="105" on="1"/>
        <pt x="393" y="75" on="0"/>
        <pt x="329" y="30" on="1"/>
        <pt x="316" y="37" on="1"/>
        <pt x="317" y="48" on="0"/>
        <pt x="317" y="70" on="1"/>
        <pt x="317" y="144" on="0"/>
        <pt x="251" y="384" on="0"/>
        <pt x="213" y="478" on="1"/>
        <pt x="205" y="477" on="1"/>
        <pt x="193" y="347" on="1"/>
        <pt x="183" y="236" on="0"/>
        <pt x="183" y="109" on="1"/>
        <pt x="183" y="33" on="0"/>
        <pt x="225" y="11" on="1"/>
        <pt x="222" y="-5" on="1"/>
        <pt x="175" y="0" on="0"/>
        <pt x="69" y="0" on="0"/>
        <pt x="16" y="-8" on="1"/>
        <pt x="12" y="19" on="1"/>
        <pt x="31" y="29" on="0"/>
        <pt x="68" y="37" on="1"/>
        <pt x="157" y="582" on="1"/>
        <pt x="71" y="579" on="0"/>
        <pt x="52" y="560" on="1"/>
        <pt x="43" y="535" on="0"/>
        <pt x="43" y="482" on="0"/>
        <pt x="58" y="473" on="1"/>
        <pt x="57" y="466" on="1"/>
        <pt x="10" y="447" on="0"/>
        <pt x="-24" y="416" on="1"/>
        <pt x="-50" y="418" on="0"/>
        <pt x="-50" y="445" on="1"/>
        <pt x="-50" y="510" on="0"/>
        <pt x="76" y="641" on="0"/>
        <pt x="146" y="664" on="1"/>
      </contour>
    </TTGlyph>
    <TTGlyph name="N" xMin="-100" yMin="-9" xMax="681" yMax="664">
      <contour>
        <pt x="98" y="37" on="1"/>
        <pt x="111" y="135" on="0"/>
        <pt x="111" y="436" on="0"/>
        <pt x="99" y="582" on="1"/>
        <pt x="18" y="576" on="0"/>
        <pt x="2" y="560" on="1"/>
        <pt x="-7" y="535" on="0"/>
        <pt x="-7" y="482" on="0"/>
        <pt x="8" y="473" on="1"/>
        <pt x="7" y="466" on="1"/>
        <pt x="-40" y="447" on="0"/>
        <pt x="-74" y="416" on="1"/>
        <pt x="-100" y="418" on="0"/>
        <pt x="-100" y="445" on="1"/>
        <pt x="-100" y="510" on="0"/>
        <pt x="26" y="641" on="0"/>
        <pt x="96" y="664" on="1"/>
        <pt x="109" y="664" on="0"/>
        <pt x="224" y="651" on="0"/>
        <pt x="303" y="651" on="0"/>
        <pt x="336" y="659" on="1"/>
        <pt x="339" y="641" on="1"/>
        <pt x="315" y="634" on="0"/>
        <pt x="315" y="588" on="0"/>
        <pt x="327" y="548" on="0"/>
        <pt x="419" y="378" on="0"/>
        <pt x="511" y="227" on="1"/>
        <pt x="515" y="229" on="1"/>
        <pt x="515" y="323" on="1"/>
        <pt x="515" y="495" on="0"/>
        <pt x="482" y="624" on="0"/>
        <pt x="422" y="639" on="1"/>
        <pt x="425" y="660" on="1"/>
        <pt x="483" y="651" on="0"/>
        <pt x="618" y="651" on="0"/>
        <pt x="678" y="660" on="1"/>
        <pt x="681" y="634" on="1"/>
        <pt x="655" y="624" on="0"/>
        <pt x="611" y="617" on="1"/>
        <pt x="606" y="592" on="0"/>
        <pt x="596" y="413" on="0"/>
        <pt x="596" y="119" on="0"/>
        <pt x="611" y="34" on="1"/>
        <pt x="649" y="28" on="0"/>
        <pt x="681" y="17" on="1"/>
        <pt x="678" y="-9" on="1"/>
        <pt x="616" y="0" on="0"/>
        <pt x="486" y="0" on="0"/>
        <pt x="434" y="-6" on="1"/>
        <pt x="434" y="37" on="0"/>
        <pt x="350" y="205" on="0"/>
        <pt x="196" y="461" on="1"/>
        <pt x="192" y="459" on="1"/>
        <pt x="192" y="382" on="1"/>
        <pt x="192" y="227" on="0"/>
        <pt x="214" y="66" on="0"/>
        <pt x="251" y="34" on="1"/>
        <pt x="290" y="27" on="0"/>
        <pt x="311" y="17" on="1"/>
        <pt x="308" y="-9" on="1"/>
        <pt x="225" y="0" on="0"/>
        <pt x="106" y="0" on="0"/>
        <pt x="46" y="-9" on="1"/>
        <pt x="42" y="18" on="1"/>
        <pt x="64" y="30" on="0"/>
      </contour>
    </TTGlyph>
    <TTGlyph name="Nacute" xMin="-100" yMin="-9" xMax="681" yMax="886">
      <contour>
        <pt x="98" y="37" on="1"/>
        <pt x="111" y="135" on="0"/>
        <pt x="111" y="436" on="0"/>
        <pt x="99" y="582" on="1"/>
        <pt x="18" y="576" on="0"/>
        <pt x="2" y="560" on="1"/>
        <pt x="-7" y="535" on="0"/>
        <pt x="-7" y="482" on="0"/>
        <pt x="8" y="473" on="1"/>
        <pt x="7" y="466" on="1"/>
        <pt x="-40" y="447" on="0"/>
        <pt x="-74" y="416" on="1"/>
        <pt x="-100" y="418" on="0"/>
        <pt x="-100" y="445" on="1"/>
        <pt x="-100" y="510" on="0"/>
        <pt x="26" y="641" on="0"/>
        <pt x="96" y="664" on="1"/>
        <pt x="109" y="664" on="0"/>
        <pt x="224" y="651" on="0"/>
        <pt x="303" y="651" on="0"/>
        <pt x="336" y="659" on="1"/>
        <pt x="339" y="641" on="1"/>
        <pt x="315" y="634" on="0"/>
        <pt x="315" y="588" on="0"/>
        <pt x="327" y="548" on="0"/>
        <pt x="419" y="378" on="0"/>
        <pt x="511" y="227" on="1"/>
        <pt x="515" y="229" on="1"/>
        <pt x="515" y="323" on="1"/>
        <pt x="515" y="495" on="0"/>
        <pt x="482" y="624" on="0"/>
        <pt x="422" y="639" on="1"/>
        <pt x="425" y="660" on="1"/>
        <pt x="483" y="651" on="0"/>
        <pt x="618" y="651" on="0"/>
        <pt x="678" y="660" on="1"/>
        <pt x="681" y="634" on="1"/>
        <pt x="655" y="624" on="0"/>
        <pt x="611" y="617" on="1"/>
        <pt x="606" y="592" on="0"/>
        <pt x="596" y="413" on="0"/>
        <pt x="596" y="119" on="0"/>
        <pt x="611" y="34" on="1"/>
        <pt x="649" y="28" on="0"/>
        <pt x="681" y="17" on="1"/>
        <pt x="678" y="-9" on="1"/>
        <pt x="616" y="0" on="0"/>
        <pt x="486" y="0" on="0"/>
        <pt x="434" y="-6" on="1"/>
        <pt x="434" y="37" on="0"/>
        <pt x="350" y="205" on="0"/>
        <pt x="196" y="461" on="1"/>
        <pt x="192" y="459" on="1"/>
        <pt x="192" y="382" on="1"/>
        <pt x="192" y="227" on="0"/>
        <pt x="214" y="66" on="0"/>
        <pt x="251" y="34" on="1"/>
        <pt x="290" y="27" on="0"/>
        <pt x="311" y="17" on="1"/>
        <pt x="308" y="-9" on="1"/>
        <pt x="225" y="0" on="0"/>
        <pt x="106" y="0" on="0"/>
        <pt x="46" y="-9" on="1"/>
        <pt x="42" y="18" on="1"/>
        <pt x="64" y="30" on="0"/>
      </contour>
      <contour>
        <pt x="498" y="883" on="1"/>
        <pt x="507" y="886" on="0"/>
        <pt x="538" y="886" on="0"/>
        <pt x="546" y="883" on="1"/>
        <pt x="555" y="867" on="0"/>
        <pt x="570" y="799" on="0"/>
        <pt x="571" y="773" on="1"/>
        <pt x="309" y="707" on="1"/>
        <pt x="299" y="731" on="1"/>
        <pt x="442" y="798" on="0"/>
      </contour>
    </TTGlyph>
    <TTGlyph name="Ntilde" xMin="-100" yMin="-9" xMax="681" yMax="886">
      <contour>
        <pt x="98" y="37" on="1"/>
        <pt x="111" y="135" on="0"/>
        <pt x="111" y="436" on="0"/>
        <pt x="99" y="582" on="1"/>
        <pt x="18" y="576" on="0"/>
        <pt x="2" y="560" on="1"/>
        <pt x="-7" y="535" on="0"/>
        <pt x="-7" y="482" on="0"/>
        <pt x="8" y="473" on="1"/>
        <pt x="7" y="466" on="1"/>
        <pt x="-40" y="447" on="0"/>
        <pt x="-74" y="416" on="1"/>
        <pt x="-100" y="418" on="0"/>
        <pt x="-100" y="445" on="1"/>
        <pt x="-100" y="510" on="0"/>
        <pt x="26" y="641" on="0"/>
        <pt x="96" y="664" on="1"/>
        <pt x="109" y="664" on="0"/>
        <pt x="224" y="651" on="0"/>
        <pt x="303" y="651" on="0"/>
        <pt x="336" y="659" on="1"/>
        <pt x="339" y="641" on="1"/>
        <pt x="315" y="634" on="0"/>
        <pt x="315" y="588" on="0"/>
        <pt x="327" y="548" on="0"/>
        <pt x="419" y="378" on="0"/>
        <pt x="511" y="227" on="1"/>
        <pt x="515" y="229" on="1"/>
        <pt x="515" y="323" on="1"/>
        <pt x="515" y="495" on="0"/>
        <pt x="482" y="624" on="0"/>
        <pt x="422" y="639" on="1"/>
        <pt x="425" y="660" on="1"/>
        <pt x="483" y="651" on="0"/>
        <pt x="618" y="651" on="0"/>
        <pt x="678" y="660" on="1"/>
        <pt x="681" y="634" on="1"/>
        <pt x="655" y="624" on="0"/>
        <pt x="611" y="617" on="1"/>
        <pt x="606" y="592" on="0"/>
        <pt x="596" y="413" on="0"/>
        <pt x="596" y="119" on="0"/>
        <pt x="611" y="34" on="1"/>
        <pt x="649" y="28" on="0"/>
        <pt x="681" y="17" on="1"/>
        <pt x="678" y="-9" on="1"/>
        <pt x="616" y="0" on="0"/>
        <pt x="486" y="0" on="0"/>
        <pt x="434" y="-6" on="1"/>
        <pt x="434" y="37" on="0"/>
        <pt x="350" y="205" on="0"/>
        <pt x="196" y="461" on="1"/>
        <pt x="192" y="459" on="1"/>
        <pt x="192" y="382" on="1"/>
        <pt x="192" y="227" on="0"/>
        <pt x="214" y="66" on="0"/>
        <pt x="251" y="34" on="1"/>
        <pt x="290" y="27" on="0"/>
        <pt x="311" y="17" on="1"/>
        <pt x="308" y="-9" on="1"/>
        <pt x="225" y="0" on="0"/>
        <pt x="106" y="0" on="0"/>
        <pt x="46" y="-9" on="1"/>
        <pt x="42" y="18" on="1"/>
        <pt x="64" y="30" on="0"/>
      </contour>
      <contour>
        <pt x="498" y="835" on="1"/>
        <pt x="557" y="835" on="0"/>
        <pt x="584" y="874" on="1"/>
        <pt x="608" y="857" on="1"/>
        <pt x="533" y="755" on="0"/>
        <pt x="470" y="721" on="1"/>
        <pt x="443" y="721" on="0"/>
        <pt x="307" y="773" on="0"/>
        <pt x="278" y="773" on="1"/>
        <pt x="221" y="773" on="0"/>
        <pt x="196" y="734" on="1"/>
        <pt x="172" y="751" on="1"/>
        <pt x="244" y="851" on="0"/>
        <pt x="341" y="886" on="1"/>
        <pt x="420" y="835" on="0"/>
      </contour>
    </TTGlyph>
    <TTGlyph name="O" xMin="30" yMin="-15" xMax="628" yMax="666">
      <contour>
        <pt x="486" y="666" on="0"/>
        <pt x="628" y="525" on="0"/>
        <pt x="628" y="244" on="0"/>
        <pt x="472" y="33" on="0"/>
        <pt x="334" y="-15" on="1"/>
        <pt x="197" y="-15" on="0"/>
        <pt x="30" y="141" on="0"/>
        <pt x="30" y="275" on="1"/>
        <pt x="30" y="378" on="0"/>
        <pt x="127" y="545" on="0"/>
        <pt x="217" y="598" on="1"/>
        <pt x="236" y="587" on="1"/>
        <pt x="209" y="487" on="0"/>
        <pt x="209" y="349" on="1"/>
        <pt x="209" y="247" on="0"/>
        <pt x="237" y="165" on="1"/>
        <pt x="252" y="121" on="0"/>
        <pt x="313" y="69" on="0"/>
        <pt x="387" y="69" on="0"/>
        <pt x="412" y="86" on="1"/>
        <pt x="449" y="171" on="0"/>
        <pt x="449" y="310" on="1"/>
        <pt x="449" y="582" on="0"/>
        <pt x="344" y="582" on="1"/>
        <pt x="316" y="582" on="0"/>
        <pt x="310" y="561" on="1"/>
        <pt x="329" y="491" on="0"/>
        <pt x="362" y="491" on="1"/>
        <pt x="364" y="485" on="1"/>
        <pt x="335" y="446" on="0"/>
        <pt x="322" y="399" on="1"/>
        <pt x="315" y="395" on="0"/>
        <pt x="308" y="395" on="1"/>
        <pt x="287" y="395" on="0"/>
        <pt x="262" y="462" on="0"/>
        <pt x="262" y="493" on="1"/>
        <pt x="262" y="615" on="0"/>
        <pt x="348" y="666" on="1"/>
      </contour>
    </TTGlyph>
    <TTGlyph name="OE" xMin="31" yMin="-15" xMax="800" yMax="666">
      <contour>
        <pt x="642" y="83" on="1"/>
        <pt x="720" y="83" on="0"/>
        <pt x="783" y="144" on="1"/>
        <pt x="799" y="129" on="1"/>
        <pt x="713" y="19" on="0"/>
        <pt x="611" y="-15" on="1"/>
        <pt x="488" y="-15" on="0"/>
        <pt x="432" y="57" on="1"/>
        <pt x="360" y="3" on="0"/>
        <pt x="275" y="-15" on="1"/>
        <pt x="157" y="-15" on="0"/>
        <pt x="31" y="139" on="0"/>
        <pt x="31" y="406" on="0"/>
        <pt x="199" y="618" on="0"/>
        <pt x="340" y="666" on="1"/>
        <pt x="396" y="666" on="0"/>
        <pt x="535" y="651" on="0"/>
        <pt x="700" y="651" on="0"/>
        <pt x="794" y="664" on="1"/>
        <pt x="800" y="643" on="1"/>
        <pt x="761" y="591" on="0"/>
        <pt x="758" y="480" on="1"/>
        <pt x="731" y="480" on="1"/>
        <pt x="722" y="526" on="0"/>
        <pt x="722" y="567" on="1"/>
        <pt x="686" y="584" on="0"/>
        <pt x="585" y="584" on="0"/>
        <pt x="568" y="577" on="1"/>
        <pt x="543" y="511" on="0"/>
        <pt x="540" y="382" on="1"/>
        <pt x="569" y="375" on="0"/>
        <pt x="602" y="375" on="1"/>
        <pt x="662" y="375" on="0"/>
        <pt x="692" y="410" on="1"/>
        <pt x="714" y="405" on="1"/>
        <pt x="701" y="366" on="0"/>
        <pt x="701" y="284" on="0"/>
        <pt x="711" y="236" on="1"/>
        <pt x="686" y="232" on="1"/>
        <pt x="672" y="268" on="0"/>
        <pt x="665" y="306" on="1"/>
        <pt x="646" y="311" on="0"/>
        <pt x="567" y="311" on="0"/>
        <pt x="539" y="307" on="1"/>
        <pt x="539" y="152" on="0"/>
        <pt x="562" y="118" on="1"/>
        <pt x="587" y="83" on="0"/>
      </contour>
      <contour>
        <pt x="377" y="93" on="0"/>
        <pt x="388" y="164" on="0"/>
        <pt x="388" y="321" on="0"/>
        <pt x="400" y="561" on="1"/>
        <pt x="360" y="582" on="0"/>
        <pt x="268" y="582" on="0"/>
        <pt x="246" y="565" on="1"/>
        <pt x="229" y="526" on="0"/>
        <pt x="210" y="390" on="0"/>
        <pt x="210" y="298" on="0"/>
        <pt x="212" y="250" on="0"/>
        <pt x="219" y="181" on="0"/>
        <pt x="237" y="141" on="0"/>
        <pt x="251" y="121" on="1"/>
        <pt x="278" y="83" on="0"/>
        <pt x="343" y="83" on="1"/>
        <pt x="360" y="83" on="1"/>
      </contour>
    </TTGlyph>
    <TTGlyph name="Oacute" xMin="30" yMin="-15" xMax="628" yMax="886">
      <contour>
        <pt x="486" y="666" on="0"/>
        <pt x="628" y="525" on="0"/>
        <pt x="628" y="244" on="0"/>
        <pt x="472" y="33" on="0"/>
        <pt x="334" y="-15" on="1"/>
        <pt x="197" y="-15" on="0"/>
        <pt x="30" y="141" on="0"/>
        <pt x="30" y="275" on="1"/>
        <pt x="30" y="378" on="0"/>
        <pt x="127" y="545" on="0"/>
        <pt x="217" y="598" on="1"/>
        <pt x="236" y="587" on="1"/>
        <pt x="209" y="487" on="0"/>
        <pt x="209" y="349" on="1"/>
        <pt x="209" y="247" on="0"/>
        <pt x="237" y="165" on="1"/>
        <pt x="252" y="121" on="0"/>
        <pt x="313" y="69" on="0"/>
        <pt x="387" y="69" on="0"/>
        <pt x="412" y="86" on="1"/>
        <pt x="449" y="171" on="0"/>
        <pt x="449" y="310" on="1"/>
        <pt x="449" y="582" on="0"/>
        <pt x="344" y="582" on="1"/>
        <pt x="316" y="582" on="0"/>
        <pt x="310" y="561" on="1"/>
        <pt x="329" y="491" on="0"/>
        <pt x="362" y="491" on="1"/>
        <pt x="364" y="485" on="1"/>
        <pt x="335" y="446" on="0"/>
        <pt x="322" y="399" on="1"/>
        <pt x="315" y="395" on="0"/>
        <pt x="308" y="395" on="1"/>
        <pt x="287" y="395" on="0"/>
        <pt x="262" y="462" on="0"/>
        <pt x="262" y="493" on="1"/>
        <pt x="262" y="615" on="0"/>
        <pt x="348" y="666" on="1"/>
      </contour>
      <contour>
        <pt x="467" y="883" on="1"/>
        <pt x="476" y="886" on="0"/>
        <pt x="508" y="886" on="0"/>
        <pt x="515" y="883" on="1"/>
        <pt x="524" y="867" on="0"/>
        <pt x="539" y="799" on="0"/>
        <pt x="540" y="773" on="1"/>
        <pt x="278" y="707" on="1"/>
        <pt x="268" y="731" on="1"/>
        <pt x="411" y="798" on="0"/>
      </contour>
    </TTGlyph>
    <TTGlyph name="Ocircumflex" xMin="30" yMin="-15" xMax="628" yMax="886">
      <contour>
        <pt x="486" y="666" on="0"/>
        <pt x="628" y="525" on="0"/>
        <pt x="628" y="244" on="0"/>
        <pt x="472" y="33" on="0"/>
        <pt x="334" y="-15" on="1"/>
        <pt x="197" y="-15" on="0"/>
        <pt x="30" y="141" on="0"/>
        <pt x="30" y="275" on="1"/>
        <pt x="30" y="378" on="0"/>
        <pt x="127" y="545" on="0"/>
        <pt x="217" y="598" on="1"/>
        <pt x="236" y="587" on="1"/>
        <pt x="209" y="487" on="0"/>
        <pt x="209" y="349" on="1"/>
        <pt x="209" y="247" on="0"/>
        <pt x="237" y="165" on="1"/>
        <pt x="252" y="121" on="0"/>
        <pt x="313" y="69" on="0"/>
        <pt x="387" y="69" on="0"/>
        <pt x="412" y="86" on="1"/>
        <pt x="449" y="171" on="0"/>
        <pt x="449" y="310" on="1"/>
        <pt x="449" y="582" on="0"/>
        <pt x="344" y="582" on="1"/>
        <pt x="316" y="582" on="0"/>
        <pt x="310" y="561" on="1"/>
        <pt x="329" y="491" on="0"/>
        <pt x="362" y="491" on="1"/>
        <pt x="364" y="485" on="1"/>
        <pt x="335" y="446" on="0"/>
        <pt x="322" y="399" on="1"/>
        <pt x="315" y="395" on="0"/>
        <pt x="308" y="395" on="1"/>
        <pt x="287" y="395" on="0"/>
        <pt x="262" y="462" on="0"/>
        <pt x="262" y="493" on="1"/>
        <pt x="262" y="615" on="0"/>
        <pt x="348" y="666" on="1"/>
      </contour>
      <contour>
        <pt x="326" y="886" on="0"/>
        <pt x="366" y="886" on="0"/>
        <pt x="377" y="883" on="1"/>
        <pt x="434" y="798" on="0"/>
        <pt x="560" y="731" on="1"/>
        <pt x="550" y="707" on="1"/>
        <pt x="346" y="769" on="1"/>
        <pt x="142" y="707" on="1"/>
        <pt x="132" y="731" on="1"/>
        <pt x="258" y="798" on="0"/>
        <pt x="315" y="883" on="1"/>
      </contour>
    </TTGlyph>
    <TTGlyph name="Odieresis" xMin="30" yMin="-15" xMax="628" yMax="885">
      <contour>
        <pt x="486" y="666" on="0"/>
        <pt x="628" y="525" on="0"/>
        <pt x="628" y="244" on="0"/>
        <pt x="472" y="33" on="0"/>
        <pt x="334" y="-15" on="1"/>
        <pt x="197" y="-15" on="0"/>
        <pt x="30" y="141" on="0"/>
        <pt x="30" y="275" on="1"/>
        <pt x="30" y="378" on="0"/>
        <pt x="127" y="545" on="0"/>
        <pt x="217" y="598" on="1"/>
        <pt x="236" y="587" on="1"/>
        <pt x="209" y="487" on="0"/>
        <pt x="209" y="349" on="1"/>
        <pt x="209" y="247" on="0"/>
        <pt x="237" y="165" on="1"/>
        <pt x="252" y="121" on="0"/>
        <pt x="313" y="69" on="0"/>
        <pt x="387" y="69" on="0"/>
        <pt x="412" y="86" on="1"/>
        <pt x="449" y="171" on="0"/>
        <pt x="449" y="310" on="1"/>
        <pt x="449" y="582" on="0"/>
        <pt x="344" y="582" on="1"/>
        <pt x="316" y="582" on="0"/>
        <pt x="310" y="561" on="1"/>
        <pt x="329" y="491" on="0"/>
        <pt x="362" y="491" on="1"/>
        <pt x="364" y="485" on="1"/>
        <pt x="335" y="446" on="0"/>
        <pt x="322" y="399" on="1"/>
        <pt x="315" y="395" on="0"/>
        <pt x="308" y="395" on="1"/>
        <pt x="287" y="395" on="0"/>
        <pt x="262" y="462" on="0"/>
        <pt x="262" y="493" on="1"/>
        <pt x="262" y="615" on="0"/>
        <pt x="348" y="666" on="1"/>
      </contour>
      <contour>
        <pt x="316" y="809" on="1"/>
        <pt x="306" y="788" on="0"/>
        <pt x="249" y="729" on="0"/>
        <pt x="227" y="714" on="1"/>
        <pt x="205" y="729" on="0"/>
        <pt x="148" y="788" on="0"/>
        <pt x="137" y="809" on="1"/>
        <pt x="149" y="829" on="0"/>
        <pt x="202" y="874" on="0"/>
        <pt x="227" y="885" on="1"/>
        <pt x="250" y="873" on="0"/>
        <pt x="303" y="828" on="0"/>
      </contour>
      <contour>
        <pt x="538" y="809" on="1"/>
        <pt x="528" y="788" on="0"/>
        <pt x="471" y="729" on="0"/>
        <pt x="449" y="714" on="1"/>
        <pt x="427" y="729" on="0"/>
        <pt x="370" y="788" on="0"/>
        <pt x="359" y="809" on="1"/>
        <pt x="371" y="829" on="0"/>
        <pt x="424" y="874" on="0"/>
        <pt x="449" y="885" on="1"/>
        <pt x="472" y="873" on="0"/>
        <pt x="525" y="828" on="0"/>
      </contour>
    </TTGlyph>
    <TTGlyph name="Ograve" xMin="30" yMin="-15" xMax="628" yMax="896">
      <contour>
        <pt x="486" y="666" on="0"/>
        <pt x="628" y="525" on="0"/>
        <pt x="628" y="244" on="0"/>
        <pt x="472" y="33" on="0"/>
        <pt x="334" y="-15" on="1"/>
        <pt x="197" y="-15" on="0"/>
        <pt x="30" y="141" on="0"/>
        <pt x="30" y="275" on="1"/>
        <pt x="30" y="378" on="0"/>
        <pt x="127" y="545" on="0"/>
        <pt x="217" y="598" on="1"/>
        <pt x="236" y="587" on="1"/>
        <pt x="209" y="487" on="0"/>
        <pt x="209" y="349" on="1"/>
        <pt x="209" y="247" on="0"/>
        <pt x="237" y="165" on="1"/>
        <pt x="252" y="121" on="0"/>
        <pt x="313" y="69" on="0"/>
        <pt x="387" y="69" on="0"/>
        <pt x="412" y="86" on="1"/>
        <pt x="449" y="171" on="0"/>
        <pt x="449" y="310" on="1"/>
        <pt x="449" y="582" on="0"/>
        <pt x="344" y="582" on="1"/>
        <pt x="316" y="582" on="0"/>
        <pt x="310" y="561" on="1"/>
        <pt x="329" y="491" on="0"/>
        <pt x="362" y="491" on="1"/>
        <pt x="364" y="485" on="1"/>
        <pt x="335" y="446" on="0"/>
        <pt x="322" y="399" on="1"/>
        <pt x="315" y="395" on="0"/>
        <pt x="308" y="395" on="1"/>
        <pt x="287" y="395" on="0"/>
        <pt x="262" y="462" on="0"/>
        <pt x="262" y="493" on="1"/>
        <pt x="262" y="615" on="0"/>
        <pt x="348" y="666" on="1"/>
      </contour>
      <contour>
        <pt x="169" y="893" on="1"/>
        <pt x="177" y="896" on="0"/>
        <pt x="206" y="896" on="0"/>
        <pt x="217" y="893" on="1"/>
        <pt x="273" y="808" on="0"/>
        <pt x="416" y="741" on="1"/>
        <pt x="406" y="717" on="1"/>
        <pt x="144" y="783" on="1"/>
        <pt x="145" y="809" on="0"/>
        <pt x="160" y="877" on="0"/>
      </contour>
    </TTGlyph>
    <TTGlyph name="Oslash" xMin="30" yMin="-87" xMax="628" yMax="739">
      <contour>
        <pt x="208" y="-87" on="1"/>
        <pt x="203" y="-87" on="1"/>
        <pt x="181" y="-77" on="0"/>
        <pt x="170" y="-63" on="1"/>
        <pt x="218" y="44" on="0"/>
        <pt x="256" y="143" on="1"/>
        <pt x="396" y="511" on="1"/>
        <pt x="438" y="620" on="0"/>
        <pt x="474" y="731" on="1"/>
        <pt x="504" y="733" on="0"/>
        <pt x="519" y="739" on="1"/>
        <pt x="523" y="736" on="1"/>
        <pt x="510" y="706" on="0"/>
        <pt x="440" y="524" on="1"/>
      </contour>
      <contour>
        <pt x="486" y="666" on="0"/>
        <pt x="628" y="525" on="0"/>
        <pt x="628" y="244" on="0"/>
        <pt x="472" y="33" on="0"/>
        <pt x="334" y="-15" on="1"/>
        <pt x="197" y="-15" on="0"/>
        <pt x="30" y="141" on="0"/>
        <pt x="30" y="275" on="1"/>
        <pt x="30" y="378" on="0"/>
        <pt x="127" y="545" on="0"/>
        <pt x="217" y="598" on="1"/>
        <pt x="236" y="587" on="1"/>
        <pt x="209" y="487" on="0"/>
        <pt x="209" y="349" on="1"/>
        <pt x="209" y="247" on="0"/>
        <pt x="237" y="165" on="1"/>
        <pt x="252" y="121" on="0"/>
        <pt x="313" y="69" on="0"/>
        <pt x="387" y="69" on="0"/>
        <pt x="412" y="86" on="1"/>
        <pt x="449" y="171" on="0"/>
        <pt x="449" y="310" on="1"/>
        <pt x="449" y="582" on="0"/>
        <pt x="344" y="582" on="1"/>
        <pt x="316" y="582" on="0"/>
        <pt x="310" y="561" on="1"/>
        <pt x="329" y="491" on="0"/>
        <pt x="362" y="491" on="1"/>
        <pt x="364" y="485" on="1"/>
        <pt x="335" y="446" on="0"/>
        <pt x="322" y="399" on="1"/>
        <pt x="315" y="395" on="0"/>
        <pt x="308" y="395" on="1"/>
        <pt x="287" y="395" on="0"/>
        <pt x="262" y="462" on="0"/>
        <pt x="262" y="493" on="1"/>
        <pt x="262" y="615" on="0"/>
        <pt x="348" y="666" on="1"/>
      </contour>
    </TTGlyph>
    <TTGlyph name="Otilde" xMin="30" yMin="-15" xMax="628" yMax="886">
      <contour>
        <pt x="486" y="666" on="0"/>
        <pt x="628" y="525" on="0"/>
        <pt x="628" y="244" on="0"/>
        <pt x="472" y="33" on="0"/>
        <pt x="334" y="-15" on="1"/>
        <pt x="197" y="-15" on="0"/>
        <pt x="30" y="141" on="0"/>
        <pt x="30" y="275" on="1"/>
        <pt x="30" y="378" on="0"/>
        <pt x="127" y="545" on="0"/>
        <pt x="217" y="598" on="1"/>
        <pt x="236" y="587" on="1"/>
        <pt x="209" y="487" on="0"/>
        <pt x="209" y="349" on="1"/>
        <pt x="209" y="247" on="0"/>
        <pt x="237" y="165" on="1"/>
        <pt x="252" y="121" on="0"/>
        <pt x="313" y="69" on="0"/>
        <pt x="387" y="69" on="0"/>
        <pt x="412" y="86" on="1"/>
        <pt x="449" y="171" on="0"/>
        <pt x="449" y="310" on="1"/>
        <pt x="449" y="582" on="0"/>
        <pt x="344" y="582" on="1"/>
        <pt x="316" y="582" on="0"/>
        <pt x="310" y="561" on="1"/>
        <pt x="329" y="491" on="0"/>
        <pt x="362" y="491" on="1"/>
        <pt x="364" y="485" on="1"/>
        <pt x="335" y="446" on="0"/>
        <pt x="322" y="399" on="1"/>
        <pt x="315" y="395" on="0"/>
        <pt x="308" y="395" on="1"/>
        <pt x="287" y="395" on="0"/>
        <pt x="262" y="462" on="0"/>
        <pt x="262" y="493" on="1"/>
        <pt x="262" y="615" on="0"/>
        <pt x="348" y="666" on="1"/>
      </contour>
      <contour>
        <pt x="485" y="835" on="1"/>
        <pt x="544" y="835" on="0"/>
        <pt x="571" y="874" on="1"/>
        <pt x="595" y="857" on="1"/>
        <pt x="520" y="755" on="0"/>
        <pt x="457" y="721" on="1"/>
        <pt x="430" y="721" on="0"/>
        <pt x="294" y="773" on="0"/>
        <pt x="265" y="773" on="1"/>
        <pt x="208" y="773" on="0"/>
        <pt x="183" y="734" on="1"/>
        <pt x="159" y="751" on="1"/>
        <pt x="231" y="851" on="0"/>
        <pt x="328" y="886" on="1"/>
        <pt x="407" y="835" on="0"/>
      </contour>
    </TTGlyph>
    <TTGlyph name="P" xMin="-100" yMin="-9" xMax="595" yMax="658">
      <contour>
        <pt x="287" y="583" on="1"/>
        <pt x="279" y="466" on="0"/>
        <pt x="279" y="129" on="0"/>
        <pt x="293" y="34" on="1"/>
        <pt x="332" y="27" on="0"/>
        <pt x="353" y="17" on="1"/>
        <pt x="350" y="-9" on="1"/>
        <pt x="278" y="0" on="0"/>
        <pt x="109" y="0" on="0"/>
        <pt x="49" y="-9" on="1"/>
        <pt x="45" y="18" on="1"/>
        <pt x="67" y="30" on="0"/>
        <pt x="101" y="37" on="1"/>
        <pt x="114" y="135" on="0"/>
        <pt x="114" y="451" on="0"/>
        <pt x="102" y="583" on="1"/>
        <pt x="21" y="580" on="0"/>
        <pt x="2" y="561" on="1"/>
        <pt x="-7" y="536" on="0"/>
        <pt x="-7" y="483" on="0"/>
        <pt x="8" y="474" on="1"/>
        <pt x="7" y="467" on="1"/>
        <pt x="-40" y="448" on="0"/>
        <pt x="-74" y="417" on="1"/>
        <pt x="-100" y="419" on="0"/>
        <pt x="-100" y="446" on="1"/>
        <pt x="-100" y="506" on="0"/>
        <pt x="7" y="630" on="0"/>
        <pt x="71" y="658" on="1"/>
        <pt x="177" y="651" on="0"/>
        <pt x="331" y="651" on="0"/>
        <pt x="407" y="651" on="0"/>
        <pt x="473" y="645" on="0"/>
        <pt x="535" y="625" on="0"/>
        <pt x="554" y="607" on="1"/>
        <pt x="595" y="568" on="0"/>
        <pt x="595" y="394" on="0"/>
        <pt x="443" y="274" on="0"/>
        <pt x="343" y="274" on="1"/>
        <pt x="325" y="274" on="0"/>
        <pt x="317" y="275" on="1"/>
        <pt x="321" y="321" on="1"/>
        <pt x="333" y="321" on="1"/>
        <pt x="415" y="321" on="0"/>
        <pt x="415" y="463" on="1"/>
        <pt x="415" y="522" on="0"/>
        <pt x="376" y="586" on="0"/>
        <pt x="326" y="586" on="1"/>
        <pt x="304" y="586" on="0"/>
      </contour>
    </TTGlyph>
    <TTGlyph name="Q" xMin="30" yMin="-241" xMax="790" yMax="666">
      <contour>
        <pt x="372" y="-163" on="0"/>
        <pt x="224" y="-97" on="0"/>
        <pt x="97" y="-97" on="0"/>
        <pt x="54" y="-133" on="1"/>
        <pt x="36" y="-117" on="1"/>
        <pt x="72" y="-74" on="0"/>
        <pt x="188" y="-3" on="0"/>
        <pt x="246" y="14" on="1"/>
        <pt x="266" y="11" on="0"/>
        <pt x="290" y="5" on="1"/>
        <pt x="288" y="6" on="1"/>
        <pt x="329" y="9" on="0"/>
        <pt x="391" y="71" on="0"/>
        <pt x="408" y="118" on="1"/>
        <pt x="441" y="211" on="0"/>
        <pt x="441" y="310" on="1"/>
        <pt x="441" y="422" on="0"/>
        <pt x="418" y="493" on="1"/>
        <pt x="389" y="582" on="0"/>
        <pt x="297" y="582" on="1"/>
        <pt x="264" y="582" on="0"/>
        <pt x="241" y="566" on="1"/>
        <pt x="206" y="481" on="0"/>
        <pt x="206" y="367" on="1"/>
        <pt x="206" y="290" on="0"/>
        <pt x="222" y="242" on="1"/>
        <pt x="251" y="150" on="0"/>
        <pt x="311" y="150" on="1"/>
        <pt x="339" y="150" on="0"/>
        <pt x="345" y="171" on="1"/>
        <pt x="326" y="241" on="0"/>
        <pt x="293" y="241" on="1"/>
        <pt x="291" y="247" on="1"/>
        <pt x="320" y="286" on="0"/>
        <pt x="333" y="333" on="1"/>
        <pt x="340" y="337" on="0"/>
        <pt x="347" y="337" on="1"/>
        <pt x="368" y="337" on="0"/>
        <pt x="393" y="270" on="0"/>
        <pt x="393" y="239" on="1"/>
        <pt x="393" y="117" on="0"/>
        <pt x="307" y="66" on="1"/>
        <pt x="292" y="65" on="0"/>
        <pt x="278" y="65" on="1"/>
        <pt x="177" y="65" on="0"/>
        <pt x="108" y="116" on="1"/>
        <pt x="30" y="174" on="0"/>
        <pt x="30" y="415" on="0"/>
        <pt x="202" y="622" on="0"/>
        <pt x="332" y="666" on="1"/>
        <pt x="471" y="666" on="0"/>
        <pt x="616" y="525" on="0"/>
        <pt x="616" y="387" on="1"/>
        <pt x="616" y="308" on="0"/>
        <pt x="570" y="170" on="0"/>
        <pt x="530" y="120" on="1"/>
        <pt x="460" y="32" on="0"/>
        <pt x="364" y="-22" on="1"/>
        <pt x="384" y="-31" on="0"/>
        <pt x="515" y="-99" on="0"/>
        <pt x="601" y="-128" on="0"/>
        <pt x="644" y="-128" on="1"/>
        <pt x="681" y="-91" on="0"/>
        <pt x="681" y="-63" on="1"/>
        <pt x="681" y="-54" on="0"/>
        <pt x="677" y="-49" on="1"/>
        <pt x="681" y="-41" on="1"/>
        <pt x="695" y="-42" on="0"/>
        <pt x="744" y="-42" on="0"/>
        <pt x="776" y="-33" on="1"/>
        <pt x="790" y="-41" on="0"/>
        <pt x="790" y="-53" on="1"/>
        <pt x="790" y="-102" on="0"/>
        <pt x="591" y="-217" on="0"/>
        <pt x="471" y="-241" on="1"/>
        <pt x="430" y="-208" on="1"/>
      </contour>
    </TTGlyph>
    <TTGlyph name="R" xMin="-104" yMin="-9" xMax="679" yMax="658">
      <contour>
        <pt x="283" y="583" on="1"/>
        <pt x="275" y="466" on="0"/>
        <pt x="275" y="129" on="0"/>
        <pt x="289" y="34" on="1"/>
        <pt x="328" y="27" on="0"/>
        <pt x="349" y="17" on="1"/>
        <pt x="346" y="-9" on="1"/>
        <pt x="274" y="0" on="0"/>
        <pt x="105" y="0" on="0"/>
        <pt x="45" y="-9" on="1"/>
        <pt x="41" y="18" on="1"/>
        <pt x="63" y="30" on="0"/>
        <pt x="97" y="37" on="1"/>
        <pt x="110" y="135" on="0"/>
        <pt x="110" y="451" on="0"/>
        <pt x="98" y="583" on="1"/>
        <pt x="17" y="580" on="0"/>
        <pt x="-2" y="561" on="1"/>
        <pt x="-11" y="536" on="0"/>
        <pt x="-11" y="483" on="0"/>
        <pt x="4" y="474" on="1"/>
        <pt x="3" y="467" on="1"/>
        <pt x="-44" y="448" on="0"/>
        <pt x="-78" y="417" on="1"/>
        <pt x="-104" y="419" on="0"/>
        <pt x="-104" y="446" on="1"/>
        <pt x="-104" y="506" on="0"/>
        <pt x="3" y="630" on="0"/>
        <pt x="67" y="658" on="1"/>
        <pt x="170" y="651" on="0"/>
        <pt x="403" y="651" on="0"/>
        <pt x="467" y="645" on="0"/>
        <pt x="531" y="627" on="0"/>
        <pt x="550" y="610" on="1"/>
        <pt x="592" y="572" on="0"/>
        <pt x="592" y="494" on="1"/>
        <pt x="592" y="441" on="0"/>
        <pt x="531" y="356" on="0"/>
        <pt x="479" y="329" on="1"/>
        <pt x="623" y="37" on="1"/>
        <pt x="659" y="29" on="0"/>
        <pt x="679" y="18" on="1"/>
        <pt x="675" y="-9" on="1"/>
        <pt x="626" y="0" on="0"/>
        <pt x="465" y="0" on="0"/>
        <pt x="408" y="-5" on="1"/>
        <pt x="405" y="13" on="1"/>
        <pt x="423" y="31" on="0"/>
        <pt x="423" y="77" on="1"/>
        <pt x="423" y="145" on="0"/>
        <pt x="363" y="304" on="1"/>
        <pt x="339" y="308" on="0"/>
        <pt x="313" y="308" on="1"/>
        <pt x="317" y="349" on="1"/>
        <pt x="328" y="349" on="1"/>
        <pt x="370" y="349" on="0"/>
        <pt x="410" y="421" on="0"/>
        <pt x="410" y="528" on="0"/>
        <pt x="371" y="586" on="0"/>
        <pt x="322" y="586" on="1"/>
        <pt x="300" y="586" on="0"/>
      </contour>
    </TTGlyph>
    <TTGlyph name="Racute" xMin="-104" yMin="-9" xMax="679" yMax="886">
      <contour>
        <pt x="283" y="583" on="1"/>
        <pt x="275" y="466" on="0"/>
        <pt x="275" y="129" on="0"/>
        <pt x="289" y="34" on="1"/>
        <pt x="328" y="27" on="0"/>
        <pt x="349" y="17" on="1"/>
        <pt x="346" y="-9" on="1"/>
        <pt x="274" y="0" on="0"/>
        <pt x="105" y="0" on="0"/>
        <pt x="45" y="-9" on="1"/>
        <pt x="41" y="18" on="1"/>
        <pt x="63" y="30" on="0"/>
        <pt x="97" y="37" on="1"/>
        <pt x="110" y="135" on="0"/>
        <pt x="110" y="451" on="0"/>
        <pt x="98" y="583" on="1"/>
        <pt x="17" y="580" on="0"/>
        <pt x="-2" y="561" on="1"/>
        <pt x="-11" y="536" on="0"/>
        <pt x="-11" y="483" on="0"/>
        <pt x="4" y="474" on="1"/>
        <pt x="3" y="467" on="1"/>
        <pt x="-44" y="448" on="0"/>
        <pt x="-78" y="417" on="1"/>
        <pt x="-104" y="419" on="0"/>
        <pt x="-104" y="446" on="1"/>
        <pt x="-104" y="506" on="0"/>
        <pt x="3" y="630" on="0"/>
        <pt x="67" y="658" on="1"/>
        <pt x="170" y="651" on="0"/>
        <pt x="403" y="651" on="0"/>
        <pt x="467" y="645" on="0"/>
        <pt x="531" y="627" on="0"/>
        <pt x="550" y="610" on="1"/>
        <pt x="592" y="572" on="0"/>
        <pt x="592" y="494" on="1"/>
        <pt x="592" y="441" on="0"/>
        <pt x="531" y="356" on="0"/>
        <pt x="479" y="329" on="1"/>
        <pt x="623" y="37" on="1"/>
        <pt x="659" y="29" on="0"/>
        <pt x="679" y="18" on="1"/>
        <pt x="675" y="-9" on="1"/>
        <pt x="626" y="0" on="0"/>
        <pt x="465" y="0" on="0"/>
        <pt x="408" y="-5" on="1"/>
        <pt x="405" y="13" on="1"/>
        <pt x="423" y="31" on="0"/>
        <pt x="423" y="77" on="1"/>
        <pt x="423" y="145" on="0"/>
        <pt x="363" y="304" on="1"/>
        <pt x="339" y="308" on="0"/>
        <pt x="313" y="308" on="1"/>
        <pt x="317" y="349" on="1"/>
        <pt x="328" y="349" on="1"/>
        <pt x="370" y="349" on="0"/>
        <pt x="410" y="421" on="0"/>
        <pt x="410" y="528" on="0"/>
        <pt x="371" y="586" on="0"/>
        <pt x="322" y="586" on="1"/>
        <pt x="300" y="586" on="0"/>
      </contour>
      <contour>
        <pt x="492" y="883" on="1"/>
        <pt x="501" y="886" on="0"/>
        <pt x="532" y="886" on="0"/>
        <pt x="540" y="883" on="1"/>
        <pt x="549" y="867" on="0"/>
        <pt x="564" y="799" on="0"/>
        <pt x="565" y="773" on="1"/>
        <pt x="303" y="707" on="1"/>
        <pt x="293" y="731" on="1"/>
        <pt x="436" y="798" on="0"/>
      </contour>
    </TTGlyph>
    <TTGlyph name="Rcaron" xMin="-104" yMin="-9" xMax="679" yMax="886">
      <contour>
        <pt x="283" y="583" on="1"/>
        <pt x="275" y="466" on="0"/>
        <pt x="275" y="129" on="0"/>
        <pt x="289" y="34" on="1"/>
        <pt x="328" y="27" on="0"/>
        <pt x="349" y="17" on="1"/>
        <pt x="346" y="-9" on="1"/>
        <pt x="274" y="0" on="0"/>
        <pt x="105" y="0" on="0"/>
        <pt x="45" y="-9" on="1"/>
        <pt x="41" y="18" on="1"/>
        <pt x="63" y="30" on="0"/>
        <pt x="97" y="37" on="1"/>
        <pt x="110" y="135" on="0"/>
        <pt x="110" y="451" on="0"/>
        <pt x="98" y="583" on="1"/>
        <pt x="17" y="580" on="0"/>
        <pt x="-2" y="561" on="1"/>
        <pt x="-11" y="536" on="0"/>
        <pt x="-11" y="483" on="0"/>
        <pt x="4" y="474" on="1"/>
        <pt x="3" y="467" on="1"/>
        <pt x="-44" y="448" on="0"/>
        <pt x="-78" y="417" on="1"/>
        <pt x="-104" y="419" on="0"/>
        <pt x="-104" y="446" on="1"/>
        <pt x="-104" y="506" on="0"/>
        <pt x="3" y="630" on="0"/>
        <pt x="67" y="658" on="1"/>
        <pt x="170" y="651" on="0"/>
        <pt x="403" y="651" on="0"/>
        <pt x="467" y="645" on="0"/>
        <pt x="531" y="627" on="0"/>
        <pt x="550" y="610" on="1"/>
        <pt x="592" y="572" on="0"/>
        <pt x="592" y="494" on="1"/>
        <pt x="592" y="441" on="0"/>
        <pt x="531" y="356" on="0"/>
        <pt x="479" y="329" on="1"/>
        <pt x="623" y="37" on="1"/>
        <pt x="659" y="29" on="0"/>
        <pt x="679" y="18" on="1"/>
        <pt x="675" y="-9" on="1"/>
        <pt x="626" y="0" on="0"/>
        <pt x="465" y="0" on="0"/>
        <pt x="408" y="-5" on="1"/>
        <pt x="405" y="13" on="1"/>
        <pt x="423" y="31" on="0"/>
        <pt x="423" y="77" on="1"/>
        <pt x="423" y="145" on="0"/>
        <pt x="363" y="304" on="1"/>
        <pt x="339" y="308" on="0"/>
        <pt x="313" y="308" on="1"/>
        <pt x="317" y="349" on="1"/>
        <pt x="328" y="349" on="1"/>
        <pt x="370" y="349" on="0"/>
        <pt x="410" y="421" on="0"/>
        <pt x="410" y="528" on="0"/>
        <pt x="371" y="586" on="0"/>
        <pt x="322" y="586" on="1"/>
        <pt x="300" y="586" on="0"/>
      </contour>
      <contour>
        <pt x="348" y="707" on="0"/>
        <pt x="308" y="707" on="0"/>
        <pt x="297" y="710" on="1"/>
        <pt x="240" y="795" on="0"/>
        <pt x="114" y="862" on="1"/>
        <pt x="124" y="886" on="1"/>
        <pt x="328" y="824" on="1"/>
        <pt x="532" y="886" on="1"/>
        <pt x="542" y="862" on="1"/>
        <pt x="416" y="795" on="0"/>
        <pt x="359" y="710" on="1"/>
      </contour>
    </TTGlyph>
    <TTGlyph name="Rcommaaccent" xMin="-104" yMin="-251" xMax="679" yMax="658">
      <contour>
        <pt x="283" y="583" on="1"/>
        <pt x="275" y="466" on="0"/>
        <pt x="275" y="129" on="0"/>
        <pt x="289" y="34" on="1"/>
        <pt x="328" y="27" on="0"/>
        <pt x="349" y="17" on="1"/>
        <pt x="346" y="-9" on="1"/>
        <pt x="274" y="0" on="0"/>
        <pt x="105" y="0" on="0"/>
        <pt x="45" y="-9" on="1"/>
        <pt x="41" y="18" on="1"/>
        <pt x="63" y="30" on="0"/>
        <pt x="97" y="37" on="1"/>
        <pt x="110" y="135" on="0"/>
        <pt x="110" y="451" on="0"/>
        <pt x="98" y="583" on="1"/>
        <pt x="17" y="580" on="0"/>
        <pt x="-2" y="561" on="1"/>
        <pt x="-11" y="536" on="0"/>
        <pt x="-11" y="483" on="0"/>
        <pt x="4" y="474" on="1"/>
        <pt x="3" y="467" on="1"/>
        <pt x="-44" y="448" on="0"/>
        <pt x="-78" y="417" on="1"/>
        <pt x="-104" y="419" on="0"/>
        <pt x="-104" y="446" on="1"/>
        <pt x="-104" y="506" on="0"/>
        <pt x="3" y="630" on="0"/>
        <pt x="67" y="658" on="1"/>
        <pt x="170" y="651" on="0"/>
        <pt x="403" y="651" on="0"/>
        <pt x="467" y="645" on="0"/>
        <pt x="531" y="627" on="0"/>
        <pt x="550" y="610" on="1"/>
        <pt x="592" y="572" on="0"/>
        <pt x="592" y="494" on="1"/>
        <pt x="592" y="441" on="0"/>
        <pt x="531" y="356" on="0"/>
        <pt x="479" y="329" on="1"/>
        <pt x="623" y="37" on="1"/>
        <pt x="659" y="29" on="0"/>
        <pt x="679" y="18" on="1"/>
        <pt x="675" y="-9" on="1"/>
        <pt x="626" y="0" on="0"/>
        <pt x="465" y="0" on="0"/>
        <pt x="408" y="-5" on="1"/>
        <pt x="405" y="13" on="1"/>
        <pt x="423" y="31" on="0"/>
        <pt x="423" y="77" on="1"/>
        <pt x="423" y="145" on="0"/>
        <pt x="363" y="304" on="1"/>
        <pt x="339" y="308" on="0"/>
        <pt x="313" y="308" on="1"/>
        <pt x="317" y="349" on="1"/>
        <pt x="328" y="349" on="1"/>
        <pt x="370" y="349" on="0"/>
        <pt x="410" y="421" on="0"/>
        <pt x="410" y="528" on="0"/>
        <pt x="371" y="586" on="0"/>
        <pt x="322" y="586" on="1"/>
        <pt x="300" y="586" on="0"/>
      </contour>
      <contour>
        <pt x="457" y="-95" on="1"/>
        <pt x="449" y="-149" on="0"/>
        <pt x="358" y="-236" on="0"/>
        <pt x="291" y="-251" on="1"/>
        <pt x="281" y="-227" on="1"/>
        <pt x="331" y="-199" on="0"/>
        <pt x="345" y="-171" on="1"/>
        <pt x="304" y="-137" on="0"/>
        <pt x="290" y="-95" on="1"/>
        <pt x="303" y="-78" on="0"/>
        <pt x="352" y="-43" on="0"/>
        <pt x="374" y="-34" on="1"/>
        <pt x="427" y="-55" on="0"/>
      </contour>
    </TTGlyph>
    <TTGlyph name="S" xMin="7" yMin="-145" xMax="464" yMax="666">
      <contour>
        <pt x="7" y="-45" on="1"/>
        <pt x="7" y="52" on="0"/>
        <pt x="108" y="201" on="0"/>
        <pt x="156" y="201" on="1"/>
        <pt x="171" y="201" on="0"/>
        <pt x="179" y="184" on="1"/>
        <pt x="162" y="142" on="0"/>
        <pt x="160" y="92" on="1"/>
        <pt x="153" y="88" on="1"/>
        <pt x="147" y="94" on="0"/>
        <pt x="137" y="94" on="1"/>
        <pt x="101" y="94" on="0"/>
        <pt x="69" y="64" on="1"/>
        <pt x="66" y="56" on="0"/>
        <pt x="66" y="48" on="1"/>
        <pt x="66" y="14" on="0"/>
        <pt x="167" y="-34" on="0"/>
        <pt x="222" y="-34" on="1"/>
        <pt x="321" y="-34" on="0"/>
        <pt x="321" y="60" on="1"/>
        <pt x="321" y="91" on="0"/>
        <pt x="266" y="161" on="0"/>
        <pt x="188" y="222" on="0"/>
        <pt x="149" y="252" on="1"/>
        <pt x="55" y="324" on="0"/>
        <pt x="55" y="367" on="1"/>
        <pt x="55" y="466" on="0"/>
        <pt x="197" y="631" on="0"/>
        <pt x="291" y="666" on="1"/>
        <pt x="385" y="666" on="0"/>
        <pt x="464" y="644" on="1"/>
        <pt x="464" y="624" on="1"/>
        <pt x="438" y="600" on="0"/>
        <pt x="409" y="507" on="0"/>
        <pt x="406" y="460" on="1"/>
        <pt x="379" y="460" on="1"/>
        <pt x="379" y="510" on="0"/>
        <pt x="373" y="542" on="1"/>
        <pt x="328" y="581" on="0"/>
        <pt x="265" y="581" on="1"/>
        <pt x="231" y="581" on="0"/>
        <pt x="182" y="544" on="0"/>
        <pt x="182" y="478" on="0"/>
        <pt x="239" y="409" on="0"/>
        <pt x="320" y="349" on="0"/>
        <pt x="360" y="320" on="1"/>
        <pt x="457" y="248" on="0"/>
        <pt x="457" y="205" on="1"/>
        <pt x="457" y="117" on="0"/>
        <pt x="290" y="-112" on="0"/>
        <pt x="212" y="-145" on="1"/>
        <pt x="97" y="-145" on="0"/>
        <pt x="11" y="-93" on="1"/>
        <pt x="7" y="-74" on="0"/>
      </contour>
    </TTGlyph>
    <TTGlyph name="Scaron" xMin="7" yMin="-145" xMax="507" yMax="886">
      <contour>
        <pt x="7" y="-45" on="1"/>
        <pt x="7" y="52" on="0"/>
        <pt x="108" y="201" on="0"/>
        <pt x="156" y="201" on="1"/>
        <pt x="171" y="201" on="0"/>
        <pt x="179" y="184" on="1"/>
        <pt x="162" y="142" on="0"/>
        <pt x="160" y="92" on="1"/>
        <pt x="153" y="88" on="1"/>
        <pt x="147" y="94" on="0"/>
        <pt x="137" y="94" on="1"/>
        <pt x="101" y="94" on="0"/>
        <pt x="69" y="64" on="1"/>
        <pt x="66" y="56" on="0"/>
        <pt x="66" y="48" on="1"/>
        <pt x="66" y="14" on="0"/>
        <pt x="167" y="-34" on="0"/>
        <pt x="222" y="-34" on="1"/>
        <pt x="321" y="-34" on="0"/>
        <pt x="321" y="60" on="1"/>
        <pt x="321" y="91" on="0"/>
        <pt x="266" y="161" on="0"/>
        <pt x="188" y="222" on="0"/>
        <pt x="149" y="252" on="1"/>
        <pt x="55" y="324" on="0"/>
        <pt x="55" y="367" on="1"/>
        <pt x="55" y="466" on="0"/>
        <pt x="197" y="631" on="0"/>
        <pt x="291" y="666" on="1"/>
        <pt x="385" y="666" on="0"/>
        <pt x="464" y="644" on="1"/>
        <pt x="464" y="624" on="1"/>
        <pt x="438" y="600" on="0"/>
        <pt x="409" y="507" on="0"/>
        <pt x="406" y="460" on="1"/>
        <pt x="379" y="460" on="1"/>
        <pt x="379" y="510" on="0"/>
        <pt x="373" y="542" on="1"/>
        <pt x="328" y="581" on="0"/>
        <pt x="265" y="581" on="1"/>
        <pt x="231" y="581" on="0"/>
        <pt x="182" y="544" on="0"/>
        <pt x="182" y="478" on="0"/>
        <pt x="239" y="409" on="0"/>
        <pt x="320" y="349" on="0"/>
        <pt x="360" y="320" on="1"/>
        <pt x="457" y="248" on="0"/>
        <pt x="457" y="205" on="1"/>
        <pt x="457" y="117" on="0"/>
        <pt x="290" y="-112" on="0"/>
        <pt x="212" y="-145" on="1"/>
        <pt x="97" y="-145" on="0"/>
        <pt x="11" y="-93" on="1"/>
        <pt x="7" y="-74" on="0"/>
      </contour>
      <contour>
        <pt x="324" y="710" on="1"/>
        <pt x="313" y="707" on="0"/>
        <pt x="272" y="707" on="0"/>
        <pt x="262" y="710" on="1"/>
        <pt x="205" y="795" on="0"/>
        <pt x="79" y="862" on="1"/>
        <pt x="89" y="886" on="1"/>
        <pt x="293" y="824" on="1"/>
        <pt x="497" y="886" on="1"/>
        <pt x="507" y="862" on="1"/>
        <pt x="381" y="795" on="0"/>
      </contour>
    </TTGlyph>
    <TTGlyph name="T" xMin="-100" yMin="-9" xMax="523" yMax="695">
      <contour>
        <pt x="122" y="666" on="0"/>
        <pt x="323" y="651" on="0"/>
        <pt x="429" y="651" on="0"/>
        <pt x="465" y="660" on="1"/>
        <pt x="484" y="673" on="0"/>
        <pt x="498" y="695" on="1"/>
        <pt x="523" y="681" on="1"/>
        <pt x="483" y="626" on="0"/>
        <pt x="460" y="533" on="1"/>
        <pt x="431" y="545" on="1"/>
        <pt x="382" y="566" on="0"/>
        <pt x="317" y="572" on="1"/>
        <pt x="310" y="474" on="0"/>
        <pt x="310" y="129" on="0"/>
        <pt x="324" y="34" on="1"/>
        <pt x="363" y="27" on="0"/>
        <pt x="384" y="17" on="1"/>
        <pt x="381" y="-9" on="1"/>
        <pt x="309" y="0" on="0"/>
        <pt x="140" y="0" on="0"/>
        <pt x="80" y="-9" on="1"/>
        <pt x="76" y="18" on="1"/>
        <pt x="98" y="30" on="0"/>
        <pt x="132" y="37" on="1"/>
        <pt x="145" y="135" on="0"/>
        <pt x="145" y="456" on="0"/>
        <pt x="134" y="581" on="1"/>
        <pt x="115" y="588" on="0"/>
        <pt x="36" y="588" on="0"/>
        <pt x="2" y="569" on="1"/>
        <pt x="-7" y="544" on="0"/>
        <pt x="-7" y="491" on="0"/>
        <pt x="8" y="482" on="1"/>
        <pt x="7" y="475" on="1"/>
        <pt x="-40" y="456" on="0"/>
        <pt x="-74" y="425" on="1"/>
        <pt x="-100" y="427" on="0"/>
        <pt x="-100" y="454" on="1"/>
        <pt x="-100" y="514" on="0"/>
        <pt x="7" y="638" on="0"/>
        <pt x="71" y="666" on="1"/>
      </contour>
    </TTGlyph>
    <TTGlyph name="Thorn" xMin="39" yMin="-9" xMax="584" yMax="660">
      <contour>
        <pt x="278" y="482" on="1"/>
        <pt x="275" y="464" on="0"/>
        <pt x="275" y="129" on="0"/>
        <pt x="289" y="34" on="1"/>
        <pt x="328" y="27" on="0"/>
        <pt x="349" y="17" on="1"/>
        <pt x="346" y="-9" on="1"/>
        <pt x="274" y="0" on="0"/>
        <pt x="105" y="0" on="0"/>
        <pt x="45" y="-9" on="1"/>
        <pt x="41" y="18" on="1"/>
        <pt x="63" y="30" on="0"/>
        <pt x="97" y="37" on="1"/>
        <pt x="110" y="135" on="0"/>
        <pt x="110" y="503" on="0"/>
        <pt x="95" y="614" on="1"/>
        <pt x="61" y="621" on="0"/>
        <pt x="39" y="633" on="1"/>
        <pt x="43" y="660" on="1"/>
        <pt x="103" y="651" on="0"/>
        <pt x="272" y="651" on="0"/>
        <pt x="344" y="660" on="1"/>
        <pt x="347" y="634" on="1"/>
        <pt x="326" y="624" on="0"/>
        <pt x="287" y="617" on="1"/>
        <pt x="283" y="586" on="0"/>
        <pt x="280" y="535" on="1"/>
        <pt x="342" y="536" on="1"/>
        <pt x="345" y="536" on="0"/>
        <pt x="348" y="536" on="1"/>
        <pt x="460" y="536" on="0"/>
        <pt x="584" y="467" on="0"/>
        <pt x="584" y="279" on="0"/>
        <pt x="434" y="159" on="0"/>
        <pt x="336" y="159" on="1"/>
        <pt x="318" y="159" on="0"/>
        <pt x="310" y="160" on="1"/>
        <pt x="314" y="206" on="1"/>
        <pt x="326" y="206" on="1"/>
        <pt x="404" y="206" on="0"/>
        <pt x="404" y="357" on="1"/>
        <pt x="404" y="418" on="0"/>
        <pt x="365" y="487" on="0"/>
        <pt x="315" y="487" on="1"/>
        <pt x="296" y="487" on="0"/>
      </contour>
    </TTGlyph>
    <TTGlyph name="U" xMin="-100" yMin="-15" xMax="679" yMax="664">
      <contour>
        <pt x="2" y="560" on="1"/>
        <pt x="-7" y="535" on="0"/>
        <pt x="-7" y="482" on="0"/>
        <pt x="8" y="473" on="1"/>
        <pt x="7" y="466" on="1"/>
        <pt x="-40" y="447" on="0"/>
        <pt x="-74" y="416" on="1"/>
        <pt x="-100" y="418" on="0"/>
        <pt x="-100" y="445" on="1"/>
        <pt x="-100" y="510" on="0"/>
        <pt x="26" y="641" on="0"/>
        <pt x="96" y="664" on="1"/>
        <pt x="110" y="664" on="0"/>
        <pt x="209" y="651" on="0"/>
        <pt x="284" y="651" on="0"/>
        <pt x="309" y="659" on="1"/>
        <pt x="312" y="641" on="1"/>
        <pt x="288" y="628" on="0"/>
        <pt x="270" y="588" on="0"/>
        <pt x="256" y="417" on="0"/>
        <pt x="256" y="242" on="0"/>
        <pt x="257" y="208" on="0"/>
        <pt x="262" y="154" on="0"/>
        <pt x="273" y="126" on="0"/>
        <pt x="283" y="111" on="1"/>
        <pt x="302" y="83" on="0"/>
        <pt x="393" y="83" on="0"/>
        <pt x="437" y="117" on="1"/>
        <pt x="440" y="161" on="0"/>
        <pt x="440" y="503" on="0"/>
        <pt x="425" y="614" on="1"/>
        <pt x="391" y="621" on="0"/>
        <pt x="369" y="633" on="1"/>
        <pt x="373" y="660" on="1"/>
        <pt x="433" y="651" on="0"/>
        <pt x="602" y="651" on="0"/>
        <pt x="674" y="660" on="1"/>
        <pt x="677" y="634" on="1"/>
        <pt x="656" y="624" on="0"/>
        <pt x="617" y="617" on="1"/>
        <pt x="605" y="540" on="0"/>
        <pt x="605" y="129" on="0"/>
        <pt x="619" y="34" on="1"/>
        <pt x="658" y="27" on="0"/>
        <pt x="679" y="17" on="1"/>
        <pt x="676" y="-9" on="1"/>
        <pt x="604" y="0" on="0"/>
        <pt x="485" y="0" on="0"/>
        <pt x="425" y="-9" on="1"/>
        <pt x="421" y="9" on="1"/>
        <pt x="430" y="23" on="0"/>
        <pt x="434" y="66" on="1"/>
        <pt x="383" y="17" on="0"/>
        <pt x="303" y="-15" on="1"/>
        <pt x="180" y="-15" on="0"/>
        <pt x="86" y="107" on="0"/>
        <pt x="86" y="241" on="1"/>
        <pt x="86" y="298" on="0"/>
        <pt x="100" y="546" on="0"/>
        <pt x="100" y="574" on="0"/>
        <pt x="99" y="582" on="1"/>
        <pt x="18" y="576" on="0"/>
      </contour>
    </TTGlyph>
    <TTGlyph name="Uacute" xMin="-100" yMin="-15" xMax="679" yMax="886">
      <contour>
        <pt x="2" y="560" on="1"/>
        <pt x="-7" y="535" on="0"/>
        <pt x="-7" y="482" on="0"/>
        <pt x="8" y="473" on="1"/>
        <pt x="7" y="466" on="1"/>
        <pt x="-40" y="447" on="0"/>
        <pt x="-74" y="416" on="1"/>
        <pt x="-100" y="418" on="0"/>
        <pt x="-100" y="445" on="1"/>
        <pt x="-100" y="510" on="0"/>
        <pt x="26" y="641" on="0"/>
        <pt x="96" y="664" on="1"/>
        <pt x="110" y="664" on="0"/>
        <pt x="209" y="651" on="0"/>
        <pt x="284" y="651" on="0"/>
        <pt x="309" y="659" on="1"/>
        <pt x="312" y="641" on="1"/>
        <pt x="288" y="628" on="0"/>
        <pt x="270" y="588" on="0"/>
        <pt x="256" y="417" on="0"/>
        <pt x="256" y="242" on="0"/>
        <pt x="257" y="208" on="0"/>
        <pt x="262" y="154" on="0"/>
        <pt x="273" y="126" on="0"/>
        <pt x="283" y="111" on="1"/>
        <pt x="302" y="83" on="0"/>
        <pt x="393" y="83" on="0"/>
        <pt x="437" y="117" on="1"/>
        <pt x="440" y="161" on="0"/>
        <pt x="440" y="503" on="0"/>
        <pt x="425" y="614" on="1"/>
        <pt x="391" y="621" on="0"/>
        <pt x="369" y="633" on="1"/>
        <pt x="373" y="660" on="1"/>
        <pt x="433" y="651" on="0"/>
        <pt x="602" y="651" on="0"/>
        <pt x="674" y="660" on="1"/>
        <pt x="677" y="634" on="1"/>
        <pt x="656" y="624" on="0"/>
        <pt x="617" y="617" on="1"/>
        <pt x="605" y="540" on="0"/>
        <pt x="605" y="129" on="0"/>
        <pt x="619" y="34" on="1"/>
        <pt x="658" y="27" on="0"/>
        <pt x="679" y="17" on="1"/>
        <pt x="676" y="-9" on="1"/>
        <pt x="604" y="0" on="0"/>
        <pt x="485" y="0" on="0"/>
        <pt x="425" y="-9" on="1"/>
        <pt x="421" y="9" on="1"/>
        <pt x="430" y="23" on="0"/>
        <pt x="434" y="66" on="1"/>
        <pt x="383" y="17" on="0"/>
        <pt x="303" y="-15" on="1"/>
        <pt x="180" y="-15" on="0"/>
        <pt x="86" y="107" on="0"/>
        <pt x="86" y="241" on="1"/>
        <pt x="86" y="298" on="0"/>
        <pt x="100" y="546" on="0"/>
        <pt x="100" y="574" on="0"/>
        <pt x="99" y="582" on="1"/>
        <pt x="18" y="576" on="0"/>
      </contour>
      <contour>
        <pt x="510" y="883" on="1"/>
        <pt x="519" y="886" on="0"/>
        <pt x="550" y="886" on="0"/>
        <pt x="558" y="883" on="1"/>
        <pt x="567" y="867" on="0"/>
        <pt x="582" y="799" on="0"/>
        <pt x="583" y="773" on="1"/>
        <pt x="321" y="707" on="1"/>
        <pt x="311" y="731" on="1"/>
        <pt x="454" y="798" on="0"/>
      </contour>
    </TTGlyph>
    <TTGlyph name="Ucircumflex" xMin="-100" yMin="-15" xMax="679" yMax="886">
      <contour>
        <pt x="2" y="560" on="1"/>
        <pt x="-7" y="535" on="0"/>
        <pt x="-7" y="482" on="0"/>
        <pt x="8" y="473" on="1"/>
        <pt x="7" y="466" on="1"/>
        <pt x="-40" y="447" on="0"/>
        <pt x="-74" y="416" on="1"/>
        <pt x="-100" y="418" on="0"/>
        <pt x="-100" y="445" on="1"/>
        <pt x="-100" y="510" on="0"/>
        <pt x="26" y="641" on="0"/>
        <pt x="96" y="664" on="1"/>
        <pt x="110" y="664" on="0"/>
        <pt x="209" y="651" on="0"/>
        <pt x="284" y="651" on="0"/>
        <pt x="309" y="659" on="1"/>
        <pt x="312" y="641" on="1"/>
        <pt x="288" y="628" on="0"/>
        <pt x="270" y="588" on="0"/>
        <pt x="256" y="417" on="0"/>
        <pt x="256" y="242" on="0"/>
        <pt x="257" y="208" on="0"/>
        <pt x="262" y="154" on="0"/>
        <pt x="273" y="126" on="0"/>
        <pt x="283" y="111" on="1"/>
        <pt x="302" y="83" on="0"/>
        <pt x="393" y="83" on="0"/>
        <pt x="437" y="117" on="1"/>
        <pt x="440" y="161" on="0"/>
        <pt x="440" y="503" on="0"/>
        <pt x="425" y="614" on="1"/>
        <pt x="391" y="621" on="0"/>
        <pt x="369" y="633" on="1"/>
        <pt x="373" y="660" on="1"/>
        <pt x="433" y="651" on="0"/>
        <pt x="602" y="651" on="0"/>
        <pt x="674" y="660" on="1"/>
        <pt x="677" y="634" on="1"/>
        <pt x="656" y="624" on="0"/>
        <pt x="617" y="617" on="1"/>
        <pt x="605" y="540" on="0"/>
        <pt x="605" y="129" on="0"/>
        <pt x="619" y="34" on="1"/>
        <pt x="658" y="27" on="0"/>
        <pt x="679" y="17" on="1"/>
        <pt x="676" y="-9" on="1"/>
        <pt x="604" y="0" on="0"/>
        <pt x="485" y="0" on="0"/>
        <pt x="425" y="-9" on="1"/>
        <pt x="421" y="9" on="1"/>
        <pt x="430" y="23" on="0"/>
        <pt x="434" y="66" on="1"/>
        <pt x="383" y="17" on="0"/>
        <pt x="303" y="-15" on="1"/>
        <pt x="180" y="-15" on="0"/>
        <pt x="86" y="107" on="0"/>
        <pt x="86" y="241" on="1"/>
        <pt x="86" y="298" on="0"/>
        <pt x="100" y="546" on="0"/>
        <pt x="100" y="574" on="0"/>
        <pt x="99" y="582" on="1"/>
        <pt x="18" y="576" on="0"/>
      </contour>
      <contour>
        <pt x="346" y="886" on="0"/>
        <pt x="388" y="886" on="0"/>
        <pt x="398" y="883" on="1"/>
        <pt x="455" y="798" on="0"/>
        <pt x="581" y="731" on="1"/>
        <pt x="571" y="707" on="1"/>
        <pt x="367" y="769" on="1"/>
        <pt x="163" y="707" on="1"/>
        <pt x="153" y="731" on="1"/>
        <pt x="279" y="798" on="0"/>
        <pt x="336" y="883" on="1"/>
      </contour>
    </TTGlyph>
    <TTGlyph name="Udieresis" xMin="-100" yMin="-15" xMax="679" yMax="885">
      <contour>
        <pt x="2" y="560" on="1"/>
        <pt x="-7" y="535" on="0"/>
        <pt x="-7" y="482" on="0"/>
        <pt x="8" y="473" on="1"/>
        <pt x="7" y="466" on="1"/>
        <pt x="-40" y="447" on="0"/>
        <pt x="-74" y="416" on="1"/>
        <pt x="-100" y="418" on="0"/>
        <pt x="-100" y="445" on="1"/>
        <pt x="-100" y="510" on="0"/>
        <pt x="26" y="641" on="0"/>
        <pt x="96" y="664" on="1"/>
        <pt x="110" y="664" on="0"/>
        <pt x="209" y="651" on="0"/>
        <pt x="284" y="651" on="0"/>
        <pt x="309" y="659" on="1"/>
        <pt x="312" y="641" on="1"/>
        <pt x="288" y="628" on="0"/>
        <pt x="270" y="588" on="0"/>
        <pt x="256" y="417" on="0"/>
        <pt x="256" y="242" on="0"/>
        <pt x="257" y="208" on="0"/>
        <pt x="262" y="154" on="0"/>
        <pt x="273" y="126" on="0"/>
        <pt x="283" y="111" on="1"/>
        <pt x="302" y="83" on="0"/>
        <pt x="393" y="83" on="0"/>
        <pt x="437" y="117" on="1"/>
        <pt x="440" y="161" on="0"/>
        <pt x="440" y="503" on="0"/>
        <pt x="425" y="614" on="1"/>
        <pt x="391" y="621" on="0"/>
        <pt x="369" y="633" on="1"/>
        <pt x="373" y="660" on="1"/>
        <pt x="433" y="651" on="0"/>
        <pt x="602" y="651" on="0"/>
        <pt x="674" y="660" on="1"/>
        <pt x="677" y="634" on="1"/>
        <pt x="656" y="624" on="0"/>
        <pt x="617" y="617" on="1"/>
        <pt x="605" y="540" on="0"/>
        <pt x="605" y="129" on="0"/>
        <pt x="619" y="34" on="1"/>
        <pt x="658" y="27" on="0"/>
        <pt x="679" y="17" on="1"/>
        <pt x="676" y="-9" on="1"/>
        <pt x="604" y="0" on="0"/>
        <pt x="485" y="0" on="0"/>
        <pt x="425" y="-9" on="1"/>
        <pt x="421" y="9" on="1"/>
        <pt x="430" y="23" on="0"/>
        <pt x="434" y="66" on="1"/>
        <pt x="383" y="17" on="0"/>
        <pt x="303" y="-15" on="1"/>
        <pt x="180" y="-15" on="0"/>
        <pt x="86" y="107" on="0"/>
        <pt x="86" y="241" on="1"/>
        <pt x="86" y="298" on="0"/>
        <pt x="100" y="546" on="0"/>
        <pt x="100" y="574" on="0"/>
        <pt x="99" y="582" on="1"/>
        <pt x="18" y="576" on="0"/>
      </contour>
      <contour>
        <pt x="336" y="809" on="1"/>
        <pt x="326" y="788" on="0"/>
        <pt x="269" y="729" on="0"/>
        <pt x="247" y="714" on="1"/>
        <pt x="225" y="729" on="0"/>
        <pt x="168" y="788" on="0"/>
        <pt x="157" y="809" on="1"/>
        <pt x="169" y="829" on="0"/>
        <pt x="222" y="874" on="0"/>
        <pt x="247" y="885" on="1"/>
        <pt x="270" y="873" on="0"/>
        <pt x="323" y="828" on="0"/>
      </contour>
      <contour>
        <pt x="558" y="809" on="1"/>
        <pt x="548" y="788" on="0"/>
        <pt x="491" y="729" on="0"/>
        <pt x="469" y="714" on="1"/>
        <pt x="447" y="729" on="0"/>
        <pt x="390" y="788" on="0"/>
        <pt x="379" y="809" on="1"/>
        <pt x="391" y="829" on="0"/>
        <pt x="444" y="874" on="0"/>
        <pt x="469" y="885" on="1"/>
        <pt x="492" y="873" on="0"/>
        <pt x="545" y="828" on="0"/>
      </contour>
    </TTGlyph>
    <TTGlyph name="Ugrave" xMin="-100" yMin="-15" xMax="679" yMax="896">
      <contour>
        <pt x="2" y="560" on="1"/>
        <pt x="-7" y="535" on="0"/>
        <pt x="-7" y="482" on="0"/>
        <pt x="8" y="473" on="1"/>
        <pt x="7" y="466" on="1"/>
        <pt x="-40" y="447" on="0"/>
        <pt x="-74" y="416" on="1"/>
        <pt x="-100" y="418" on="0"/>
        <pt x="-100" y="445" on="1"/>
        <pt x="-100" y="510" on="0"/>
        <pt x="26" y="641" on="0"/>
        <pt x="96" y="664" on="1"/>
        <pt x="110" y="664" on="0"/>
        <pt x="209" y="651" on="0"/>
        <pt x="284" y="651" on="0"/>
        <pt x="309" y="659" on="1"/>
        <pt x="312" y="641" on="1"/>
        <pt x="288" y="628" on="0"/>
        <pt x="270" y="588" on="0"/>
        <pt x="256" y="417" on="0"/>
        <pt x="256" y="242" on="0"/>
        <pt x="257" y="208" on="0"/>
        <pt x="262" y="154" on="0"/>
        <pt x="273" y="126" on="0"/>
        <pt x="283" y="111" on="1"/>
        <pt x="302" y="83" on="0"/>
        <pt x="393" y="83" on="0"/>
        <pt x="437" y="117" on="1"/>
        <pt x="440" y="161" on="0"/>
        <pt x="440" y="503" on="0"/>
        <pt x="425" y="614" on="1"/>
        <pt x="391" y="621" on="0"/>
        <pt x="369" y="633" on="1"/>
        <pt x="373" y="660" on="1"/>
        <pt x="433" y="651" on="0"/>
        <pt x="602" y="651" on="0"/>
        <pt x="674" y="660" on="1"/>
        <pt x="677" y="634" on="1"/>
        <pt x="656" y="624" on="0"/>
        <pt x="617" y="617" on="1"/>
        <pt x="605" y="540" on="0"/>
        <pt x="605" y="129" on="0"/>
        <pt x="619" y="34" on="1"/>
        <pt x="658" y="27" on="0"/>
        <pt x="679" y="17" on="1"/>
        <pt x="676" y="-9" on="1"/>
        <pt x="604" y="0" on="0"/>
        <pt x="485" y="0" on="0"/>
        <pt x="425" y="-9" on="1"/>
        <pt x="421" y="9" on="1"/>
        <pt x="430" y="23" on="0"/>
        <pt x="434" y="66" on="1"/>
        <pt x="383" y="17" on="0"/>
        <pt x="303" y="-15" on="1"/>
        <pt x="180" y="-15" on="0"/>
        <pt x="86" y="107" on="0"/>
        <pt x="86" y="241" on="1"/>
        <pt x="86" y="298" on="0"/>
        <pt x="100" y="546" on="0"/>
        <pt x="100" y="574" on="0"/>
        <pt x="99" y="582" on="1"/>
        <pt x="18" y="576" on="0"/>
      </contour>
      <contour>
        <pt x="182" y="893" on="1"/>
        <pt x="189" y="896" on="0"/>
        <pt x="220" y="896" on="0"/>
        <pt x="230" y="893" on="1"/>
        <pt x="286" y="808" on="0"/>
        <pt x="429" y="741" on="1"/>
        <pt x="419" y="717" on="1"/>
        <pt x="157" y="783" on="1"/>
        <pt x="158" y="809" on="0"/>
        <pt x="173" y="877" on="0"/>
      </contour>
    </TTGlyph>
    <TTGlyph name="V" xMin="-100" yMin="-9" xMax="675" yMax="664">
      <contour>
        <pt x="498" y="-9" on="1"/>
        <pt x="438" y="0" on="0"/>
        <pt x="253" y="0" on="0"/>
        <pt x="194" y="-5" on="1"/>
        <pt x="191" y="11" on="1"/>
        <pt x="225" y="20" on="0"/>
        <pt x="225" y="41" on="1"/>
        <pt x="225" y="111" on="0"/>
        <pt x="117" y="529" on="1"/>
        <pt x="107" y="565" on="0"/>
        <pt x="100" y="582" on="1"/>
        <pt x="21" y="579" on="0"/>
        <pt x="2" y="560" on="1"/>
        <pt x="-7" y="535" on="0"/>
        <pt x="-7" y="482" on="0"/>
        <pt x="8" y="473" on="1"/>
        <pt x="7" y="466" on="1"/>
        <pt x="-40" y="447" on="0"/>
        <pt x="-74" y="416" on="1"/>
        <pt x="-100" y="418" on="0"/>
        <pt x="-100" y="445" on="1"/>
        <pt x="-100" y="509" on="0"/>
        <pt x="19" y="639" on="0"/>
        <pt x="87" y="664" on="1"/>
        <pt x="100" y="664" on="0"/>
        <pt x="215" y="651" on="0"/>
        <pt x="299" y="651" on="0"/>
        <pt x="341" y="660" on="1"/>
        <pt x="345" y="633" on="1"/>
        <pt x="326" y="623" on="0"/>
        <pt x="288" y="611" on="1"/>
        <pt x="309" y="397" on="0"/>
        <pt x="395" y="79" on="1"/>
        <pt x="473" y="379" on="0"/>
        <pt x="473" y="518" on="1"/>
        <pt x="473" y="612" on="0"/>
        <pt x="414" y="639" on="1"/>
        <pt x="417" y="659" on="1"/>
        <pt x="486" y="651" on="0"/>
        <pt x="611" y="651" on="0"/>
        <pt x="671" y="660" on="1"/>
        <pt x="675" y="633" on="1"/>
        <pt x="654" y="625" on="0"/>
        <pt x="619" y="617" on="1"/>
        <pt x="637" y="581" on="0"/>
        <pt x="637" y="452" on="0"/>
        <pt x="551" y="241" on="0"/>
        <pt x="435" y="32" on="1"/>
        <pt x="479" y="22" on="0"/>
        <pt x="502" y="15" on="1"/>
      </contour>
    </TTGlyph>
    <TTGlyph name="W" xMin="-100" yMin="-9" xMax="990" yMax="664">
      <contour>
        <pt x="819" y="-9" on="1"/>
        <pt x="759" y="0" on="0"/>
        <pt x="585" y="0" on="0"/>
        <pt x="522" y="-8" on="1"/>
        <pt x="519" y="8" on="1"/>
        <pt x="532" y="11" on="0"/>
        <pt x="553" y="29" on="0"/>
        <pt x="553" y="41" on="1"/>
        <pt x="553" y="102" on="0"/>
        <pt x="516" y="267" on="1"/>
        <pt x="501" y="222" on="0"/>
        <pt x="435" y="32" on="1"/>
        <pt x="453" y="20" on="0"/>
        <pt x="482" y="15" on="1"/>
        <pt x="478" y="-9" on="1"/>
        <pt x="418" y="0" on="0"/>
        <pt x="253" y="0" on="0"/>
        <pt x="194" y="-5" on="1"/>
        <pt x="191" y="11" on="1"/>
        <pt x="225" y="20" on="0"/>
        <pt x="225" y="41" on="1"/>
        <pt x="225" y="111" on="0"/>
        <pt x="117" y="529" on="1"/>
        <pt x="107" y="565" on="0"/>
        <pt x="100" y="582" on="1"/>
        <pt x="21" y="579" on="0"/>
        <pt x="2" y="560" on="1"/>
        <pt x="-7" y="535" on="0"/>
        <pt x="-7" y="482" on="0"/>
        <pt x="8" y="473" on="1"/>
        <pt x="7" y="466" on="1"/>
        <pt x="-40" y="447" on="0"/>
        <pt x="-74" y="416" on="1"/>
        <pt x="-100" y="418" on="0"/>
        <pt x="-100" y="445" on="1"/>
        <pt x="-100" y="509" on="0"/>
        <pt x="19" y="639" on="0"/>
        <pt x="87" y="664" on="1"/>
        <pt x="97" y="664" on="0"/>
        <pt x="132" y="660" on="1"/>
        <pt x="235" y="650" on="0"/>
        <pt x="375" y="650" on="0"/>
        <pt x="554" y="650" on="0"/>
        <pt x="666" y="660" on="1"/>
        <pt x="669" y="634" on="1"/>
        <pt x="641" y="623" on="0"/>
        <pt x="609" y="616" on="1"/>
        <pt x="628" y="404" on="0"/>
        <pt x="716" y="79" on="1"/>
        <pt x="788" y="387" on="0"/>
        <pt x="788" y="518" on="1"/>
        <pt x="788" y="612" on="0"/>
        <pt x="729" y="639" on="1"/>
        <pt x="732" y="659" on="1"/>
        <pt x="801" y="651" on="0"/>
        <pt x="926" y="651" on="0"/>
        <pt x="986" y="660" on="1"/>
        <pt x="990" y="633" on="1"/>
        <pt x="969" y="625" on="0"/>
        <pt x="934" y="617" on="1"/>
        <pt x="952" y="581" on="0"/>
        <pt x="952" y="453" on="0"/>
        <pt x="869" y="244" on="0"/>
        <pt x="756" y="32" on="1"/>
        <pt x="800" y="22" on="0"/>
        <pt x="823" y="15" on="1"/>
      </contour>
      <contour>
        <pt x="467" y="574" on="0"/>
        <pt x="438" y="618" on="0"/>
        <pt x="339" y="618" on="0"/>
        <pt x="289" y="605" on="1"/>
        <pt x="307" y="404" on="0"/>
        <pt x="395" y="79" on="1"/>
        <pt x="467" y="387" on="0"/>
        <pt x="467" y="518" on="1"/>
      </contour>
    </TTGlyph>
    <TTGlyph name="X" xMin="-100" yMin="-9" xMax="675" yMax="664">
      <contour>
        <pt x="378" y="427" on="1"/>
        <pt x="438" y="553" on="0"/>
        <pt x="438" y="630" on="0"/>
        <pt x="415" y="642" on="1"/>
        <pt x="419" y="658" on="1"/>
        <pt x="475" y="651" on="0"/>
        <pt x="606" y="651" on="0"/>
        <pt x="666" y="660" on="1"/>
        <pt x="670" y="633" on="1"/>
        <pt x="643" y="620" on="0"/>
        <pt x="614" y="614" on="1"/>
        <pt x="516" y="515" on="0"/>
        <pt x="413" y="378" on="1"/>
        <pt x="619" y="35" on="1"/>
        <pt x="655" y="27" on="0"/>
        <pt x="675" y="18" on="1"/>
        <pt x="671" y="-9" on="1"/>
        <pt x="611" y="0" on="0"/>
        <pt x="452" y="0" on="0"/>
        <pt x="404" y="-6" on="1"/>
        <pt x="400" y="9" on="1"/>
        <pt x="404" y="17" on="0"/>
        <pt x="404" y="44" on="1"/>
        <pt x="404" y="106" on="0"/>
        <pt x="299" y="276" on="1"/>
        <pt x="237" y="110" on="0"/>
        <pt x="237" y="35" on="1"/>
        <pt x="262" y="30" on="0"/>
        <pt x="292" y="17" on="1"/>
        <pt x="289" y="-9" on="1"/>
        <pt x="229" y="0" on="0"/>
        <pt x="67" y="0" on="0"/>
        <pt x="7" y="-9" on="1"/>
        <pt x="2" y="17" on="1"/>
        <pt x="24" y="28" on="0"/>
        <pt x="64" y="37" on="1"/>
        <pt x="193" y="229" on="0"/>
        <pt x="263" y="327" on="1"/>
        <pt x="100" y="582" on="1"/>
        <pt x="21" y="579" on="0"/>
        <pt x="2" y="560" on="1"/>
        <pt x="-7" y="535" on="0"/>
        <pt x="-7" y="482" on="0"/>
        <pt x="8" y="473" on="1"/>
        <pt x="7" y="466" on="1"/>
        <pt x="-40" y="447" on="0"/>
        <pt x="-74" y="416" on="1"/>
        <pt x="-100" y="418" on="0"/>
        <pt x="-100" y="445" on="1"/>
        <pt x="-100" y="509" on="0"/>
        <pt x="19" y="639" on="0"/>
        <pt x="87" y="664" on="1"/>
        <pt x="100" y="664" on="0"/>
        <pt x="229" y="651" on="0"/>
        <pt x="320" y="651" on="0"/>
        <pt x="362" y="660" on="1"/>
        <pt x="366" y="633" on="1"/>
        <pt x="348" y="624" on="0"/>
        <pt x="308" y="611" on="1"/>
        <pt x="308" y="576" on="0"/>
        <pt x="334" y="499" on="0"/>
      </contour>
    </TTGlyph>
    <TTGlyph name="Y" xMin="-200" yMin="-9" xMax="598" yMax="773">
      <contour>
        <pt x="198" y="275" on="1"/>
        <pt x="198" y="300" on="1"/>
        <pt x="36" y="622" on="1"/>
        <pt x="1" y="689" on="0"/>
        <pt x="-34" y="714" on="1"/>
        <pt x="-106" y="706" on="0"/>
        <pt x="-111" y="674" on="1"/>
        <pt x="-119" y="671" on="1"/>
        <pt x="-154" y="706" on="0"/>
        <pt x="-197" y="726" on="1"/>
        <pt x="-200" y="732" on="0"/>
        <pt x="-200" y="738" on="1"/>
        <pt x="-200" y="757" on="0"/>
        <pt x="-143" y="773" on="0"/>
        <pt x="-113" y="773" on="1"/>
        <pt x="-26" y="773" on="0"/>
        <pt x="181" y="692" on="0"/>
        <pt x="255" y="634" on="1"/>
        <pt x="249" y="612" on="0"/>
        <pt x="249" y="585" on="1"/>
        <pt x="249" y="522" on="0"/>
        <pt x="281" y="453" on="1"/>
        <pt x="322" y="363" on="1"/>
        <pt x="364" y="488" on="0"/>
        <pt x="387" y="575" on="0"/>
        <pt x="387" y="631" on="0"/>
        <pt x="365" y="642" on="1"/>
        <pt x="368" y="658" on="1"/>
        <pt x="433" y="651" on="0"/>
        <pt x="544" y="651" on="0"/>
        <pt x="594" y="660" on="1"/>
        <pt x="598" y="634" on="1"/>
        <pt x="574" y="621" on="0"/>
        <pt x="540" y="614" on="1"/>
        <pt x="364" y="328" on="1"/>
        <pt x="364" y="130" on="0"/>
        <pt x="377" y="34" on="1"/>
        <pt x="420" y="25" on="0"/>
        <pt x="437" y="17" on="1"/>
        <pt x="434" y="-9" on="1"/>
        <pt x="370" y="0" on="0"/>
        <pt x="193" y="0" on="0"/>
        <pt x="133" y="-9" on="1"/>
        <pt x="129" y="18" on="1"/>
        <pt x="150" y="29" on="0"/>
        <pt x="186" y="37" on="1"/>
        <pt x="198" y="127" on="0"/>
      </contour>
    </TTGlyph>
    <TTGlyph name="Yacute" xMin="-200" yMin="-9" xMax="598" yMax="886">
      <contour>
        <pt x="198" y="275" on="1"/>
        <pt x="198" y="300" on="1"/>
        <pt x="36" y="622" on="1"/>
        <pt x="1" y="689" on="0"/>
        <pt x="-34" y="714" on="1"/>
        <pt x="-106" y="706" on="0"/>
        <pt x="-111" y="674" on="1"/>
        <pt x="-119" y="671" on="1"/>
        <pt x="-154" y="706" on="0"/>
        <pt x="-197" y="726" on="1"/>
        <pt x="-200" y="732" on="0"/>
        <pt x="-200" y="738" on="1"/>
        <pt x="-200" y="757" on="0"/>
        <pt x="-143" y="773" on="0"/>
        <pt x="-113" y="773" on="1"/>
        <pt x="-26" y="773" on="0"/>
        <pt x="181" y="692" on="0"/>
        <pt x="255" y="634" on="1"/>
        <pt x="249" y="612" on="0"/>
        <pt x="249" y="585" on="1"/>
        <pt x="249" y="522" on="0"/>
        <pt x="281" y="453" on="1"/>
        <pt x="322" y="363" on="1"/>
        <pt x="364" y="488" on="0"/>
        <pt x="387" y="575" on="0"/>
        <pt x="387" y="631" on="0"/>
        <pt x="365" y="642" on="1"/>
        <pt x="368" y="658" on="1"/>
        <pt x="433" y="651" on="0"/>
        <pt x="544" y="651" on="0"/>
        <pt x="594" y="660" on="1"/>
        <pt x="598" y="634" on="1"/>
        <pt x="574" y="621" on="0"/>
        <pt x="540" y="614" on="1"/>
        <pt x="364" y="328" on="1"/>
        <pt x="364" y="130" on="0"/>
        <pt x="377" y="34" on="1"/>
        <pt x="420" y="25" on="0"/>
        <pt x="437" y="17" on="1"/>
        <pt x="434" y="-9" on="1"/>
        <pt x="370" y="0" on="0"/>
        <pt x="193" y="0" on="0"/>
        <pt x="133" y="-9" on="1"/>
        <pt x="129" y="18" on="1"/>
        <pt x="150" y="29" on="0"/>
        <pt x="186" y="37" on="1"/>
        <pt x="198" y="127" on="0"/>
      </contour>
      <contour>
        <pt x="484" y="883" on="1"/>
        <pt x="493" y="886" on="0"/>
        <pt x="524" y="886" on="0"/>
        <pt x="532" y="883" on="1"/>
        <pt x="541" y="867" on="0"/>
        <pt x="556" y="799" on="0"/>
        <pt x="557" y="773" on="1"/>
        <pt x="295" y="707" on="1"/>
        <pt x="285" y="731" on="1"/>
        <pt x="428" y="798" on="0"/>
      </contour>
    </TTGlyph>
    <TTGlyph name="Ydieresis" xMin="-200" yMin="-9" xMax="598" yMax="885">
      <contour>
        <pt x="198" y="275" on="1"/>
        <pt x="198" y="300" on="1"/>
        <pt x="36" y="622" on="1"/>
        <pt x="1" y="689" on="0"/>
        <pt x="-34" y="714" on="1"/>
        <pt x="-106" y="706" on="0"/>
        <pt x="-111" y="674" on="1"/>
        <pt x="-119" y="671" on="1"/>
        <pt x="-154" y="706" on="0"/>
        <pt x="-197" y="726" on="1"/>
        <pt x="-200" y="732" on="0"/>
        <pt x="-200" y="738" on="1"/>
        <pt x="-200" y="757" on="0"/>
        <pt x="-143" y="773" on="0"/>
        <pt x="-113" y="773" on="1"/>
        <pt x="-26" y="773" on="0"/>
        <pt x="181" y="692" on="0"/>
        <pt x="255" y="634" on="1"/>
        <pt x="249" y="612" on="0"/>
        <pt x="249" y="585" on="1"/>
        <pt x="249" y="522" on="0"/>
        <pt x="281" y="453" on="1"/>
        <pt x="322" y="363" on="1"/>
        <pt x="364" y="488" on="0"/>
        <pt x="387" y="575" on="0"/>
        <pt x="387" y="631" on="0"/>
        <pt x="365" y="642" on="1"/>
        <pt x="368" y="658" on="1"/>
        <pt x="433" y="651" on="0"/>
        <pt x="544" y="651" on="0"/>
        <pt x="594" y="660" on="1"/>
        <pt x="598" y="634" on="1"/>
        <pt x="574" y="621" on="0"/>
        <pt x="540" y="614" on="1"/>
        <pt x="364" y="328" on="1"/>
        <pt x="364" y="130" on="0"/>
        <pt x="377" y="34" on="1"/>
        <pt x="420" y="25" on="0"/>
        <pt x="437" y="17" on="1"/>
        <pt x="434" y="-9" on="1"/>
        <pt x="370" y="0" on="0"/>
        <pt x="193" y="0" on="0"/>
        <pt x="133" y="-9" on="1"/>
        <pt x="129" y="18" on="1"/>
        <pt x="150" y="29" on="0"/>
        <pt x="186" y="37" on="1"/>
        <pt x="198" y="127" on="0"/>
      </contour>
      <contour>
        <pt x="300" y="809" on="1"/>
        <pt x="290" y="788" on="0"/>
        <pt x="233" y="729" on="0"/>
        <pt x="211" y="714" on="1"/>
        <pt x="189" y="729" on="0"/>
        <pt x="132" y="788" on="0"/>
        <pt x="121" y="809" on="1"/>
        <pt x="133" y="829" on="0"/>
        <pt x="186" y="874" on="0"/>
        <pt x="211" y="885" on="1"/>
        <pt x="234" y="873" on="0"/>
        <pt x="287" y="828" on="0"/>
      </contour>
      <contour>
        <pt x="522" y="809" on="1"/>
        <pt x="512" y="788" on="0"/>
        <pt x="455" y="729" on="0"/>
        <pt x="433" y="714" on="1"/>
        <pt x="411" y="729" on="0"/>
        <pt x="354" y="788" on="0"/>
        <pt x="343" y="809" on="1"/>
        <pt x="355" y="829" on="0"/>
        <pt x="408" y="874" on="0"/>
        <pt x="433" y="885" on="1"/>
        <pt x="456" y="873" on="0"/>
        <pt x="509" y="828" on="0"/>
      </contour>
    </TTGlyph>
    <TTGlyph name="Z" xMin="-21" yMin="-205" xMax="706" yMax="686">
      <contour>
        <pt x="82" y="0" on="1"/>
        <pt x="46" y="0" on="0"/>
        <pt x="4" y="-23" on="1"/>
        <pt x="-13" y="-6" on="1"/>
        <pt x="37" y="47" on="0"/>
        <pt x="78" y="118" on="1"/>
        <pt x="339" y="572" on="1"/>
        <pt x="301" y="558" on="1"/>
        <pt x="240" y="575" on="1"/>
        <pt x="185" y="588" on="0"/>
        <pt x="164" y="588" on="1"/>
        <pt x="115" y="588" on="0"/>
        <pt x="81" y="569" on="1"/>
        <pt x="72" y="544" on="0"/>
        <pt x="72" y="491" on="0"/>
        <pt x="87" y="482" on="1"/>
        <pt x="86" y="475" on="1"/>
        <pt x="39" y="456" on="0"/>
        <pt x="5" y="425" on="1"/>
        <pt x="-21" y="427" on="0"/>
        <pt x="-21" y="454" on="1"/>
        <pt x="-21" y="513" on="0"/>
        <pt x="99" y="644" on="0"/>
        <pt x="164" y="672" on="1"/>
        <pt x="215" y="672" on="0"/>
        <pt x="372" y="651" on="0"/>
        <pt x="514" y="651" on="0"/>
        <pt x="549" y="686" on="1"/>
        <pt x="571" y="668" on="1"/>
        <pt x="550" y="646" on="0"/>
        <pt x="533" y="624" on="1"/>
        <pt x="514" y="595" on="0"/>
        <pt x="492" y="549" on="1"/>
        <pt x="254" y="59" on="1"/>
        <pt x="296" y="41" on="0"/>
        <pt x="404" y="-49" on="0"/>
        <pt x="505" y="-112" on="0"/>
        <pt x="560" y="-112" on="1"/>
        <pt x="598" y="-77" on="0"/>
        <pt x="598" y="-47" on="1"/>
        <pt x="598" y="-38" on="0"/>
        <pt x="592" y="-33" on="1"/>
        <pt x="598" y="-25" on="1"/>
        <pt x="616" y="-28" on="0"/>
        <pt x="667" y="-28" on="0"/>
        <pt x="691" y="-17" on="1"/>
        <pt x="706" y="-23" on="0"/>
        <pt x="706" y="-37" on="1"/>
        <pt x="706" y="-84" on="0"/>
        <pt x="511" y="-181" on="0"/>
        <pt x="387" y="-205" on="1"/>
        <pt x="356" y="-173" on="1"/>
        <pt x="188" y="0" on="0"/>
      </contour>
    </TTGlyph>
    <TTGlyph name="Zcaron" xMin="-21" yMin="-205" xMax="706" yMax="886">
      <contour>
        <pt x="82" y="0" on="1"/>
        <pt x="46" y="0" on="0"/>
        <pt x="4" y="-23" on="1"/>
        <pt x="-13" y="-6" on="1"/>
        <pt x="37" y="47" on="0"/>
        <pt x="78" y="118" on="1"/>
        <pt x="339" y="572" on="1"/>
        <pt x="301" y="558" on="1"/>
        <pt x="240" y="575" on="1"/>
        <pt x="185" y="588" on="0"/>
        <pt x="164" y="588" on="1"/>
        <pt x="115" y="588" on="0"/>
        <pt x="81" y="569" on="1"/>
        <pt x="72" y="544" on="0"/>
        <pt x="72" y="491" on="0"/>
        <pt x="87" y="482" on="1"/>
        <pt x="86" y="475" on="1"/>
        <pt x="39" y="456" on="0"/>
        <pt x="5" y="425" on="1"/>
        <pt x="-21" y="427" on="0"/>
        <pt x="-21" y="454" on="1"/>
        <pt x="-21" y="513" on="0"/>
        <pt x="99" y="644" on="0"/>
        <pt x="164" y="672" on="1"/>
        <pt x="215" y="672" on="0"/>
        <pt x="372" y="651" on="0"/>
        <pt x="514" y="651" on="0"/>
        <pt x="549" y="686" on="1"/>
        <pt x="571" y="668" on="1"/>
        <pt x="550" y="646" on="0"/>
        <pt x="533" y="624" on="1"/>
        <pt x="514" y="595" on="0"/>
        <pt x="492" y="549" on="1"/>
        <pt x="254" y="59" on="1"/>
        <pt x="296" y="41" on="0"/>
        <pt x="404" y="-49" on="0"/>
        <pt x="505" y="-112" on="0"/>
        <pt x="560" y="-112" on="1"/>
        <pt x="598" y="-77" on="0"/>
        <pt x="598" y="-47" on="1"/>
        <pt x="598" y="-38" on="0"/>
        <pt x="592" y="-33" on="1"/>
        <pt x="598" y="-25" on="1"/>
        <pt x="616" y="-28" on="0"/>
        <pt x="667" y="-28" on="0"/>
        <pt x="691" y="-17" on="1"/>
        <pt x="706" y="-23" on="0"/>
        <pt x="706" y="-37" on="1"/>
        <pt x="706" y="-84" on="0"/>
        <pt x="511" y="-181" on="0"/>
        <pt x="387" y="-205" on="1"/>
        <pt x="356" y="-173" on="1"/>
        <pt x="188" y="0" on="0"/>
      </contour>
      <contour>
        <pt x="398" y="710" on="1"/>
        <pt x="387" y="707" on="0"/>
        <pt x="346" y="707" on="0"/>
        <pt x="336" y="710" on="1"/>
        <pt x="279" y="795" on="0"/>
        <pt x="153" y="862" on="1"/>
        <pt x="163" y="886" on="1"/>
        <pt x="367" y="824" on="1"/>
        <pt x="571" y="886" on="1"/>
        <pt x="581" y="862" on="1"/>
        <pt x="455" y="795" on="0"/>
      </contour>
    </TTGlyph>
    <TTGlyph name="a" xMin="-14" yMin="-9" xMax="531" yMax="550">
      <contour>
        <pt x="319" y="184" on="1"/>
        <pt x="300" y="190" on="0"/>
        <pt x="212" y="190" on="0"/>
        <pt x="190" y="185" on="1"/>
        <pt x="178" y="106" on="0"/>
        <pt x="178" y="78" on="1"/>
        <pt x="178" y="25" on="0"/>
        <pt x="213" y="9" on="1"/>
        <pt x="210" y="-7" on="1"/>
        <pt x="178" y="0" on="0"/>
        <pt x="43" y="0" on="0"/>
        <pt x="-10" y="-9" on="1"/>
        <pt x="-14" y="15" on="1"/>
        <pt x="4" y="24" on="0"/>
        <pt x="33" y="32" on="1"/>
        <pt x="165" y="504" on="1"/>
        <pt x="133" y="515" on="0"/>
        <pt x="115" y="526" on="1"/>
        <pt x="121" y="549" on="1"/>
        <pt x="189" y="540" on="0"/>
        <pt x="455" y="540" on="0"/>
        <pt x="527" y="550" on="1"/>
        <pt x="529" y="528" on="1"/>
        <pt x="509" y="519" on="0"/>
        <pt x="481" y="513" on="1"/>
        <pt x="471" y="440" on="0"/>
        <pt x="471" y="113" on="0"/>
        <pt x="483" y="29" on="1"/>
        <pt x="506" y="24" on="0"/>
        <pt x="531" y="16" on="1"/>
        <pt x="529" y="-7" on="1"/>
        <pt x="479" y="0" on="0"/>
        <pt x="330" y="0" on="0"/>
        <pt x="277" y="-8" on="1"/>
        <pt x="273" y="16" on="1"/>
        <pt x="286" y="23" on="0"/>
        <pt x="310" y="31" on="1"/>
        <pt x="317" y="98" on="0"/>
      </contour>
      <contour>
        <pt x="320" y="274" on="1"/>
        <pt x="320" y="406" on="0"/>
        <pt x="311" y="483" on="1"/>
        <pt x="299" y="489" on="0"/>
        <pt x="257" y="489" on="0"/>
        <pt x="242" y="484" on="1"/>
        <pt x="199" y="252" on="1"/>
        <pt x="227" y="248" on="0"/>
        <pt x="288" y="248" on="0"/>
        <pt x="320" y="252" on="1"/>
      </contour>
    </TTGlyph>
    <TTGlyph name="aacute" xMin="-7" yMin="-9" xMax="538" yMax="787">
      <contour>
        <pt x="326" y="184" on="1"/>
        <pt x="307" y="190" on="0"/>
        <pt x="219" y="190" on="0"/>
        <pt x="197" y="185" on="1"/>
        <pt x="185" y="106" on="0"/>
        <pt x="185" y="78" on="1"/>
        <pt x="185" y="25" on="0"/>
        <pt x="220" y="9" on="1"/>
        <pt x="217" y="-7" on="1"/>
        <pt x="185" y="0" on="0"/>
        <pt x="50" y="0" on="0"/>
        <pt x="-3" y="-9" on="1"/>
        <pt x="-7" y="15" on="1"/>
        <pt x="11" y="24" on="0"/>
        <pt x="40" y="32" on="1"/>
        <pt x="172" y="504" on="1"/>
        <pt x="140" y="515" on="0"/>
        <pt x="122" y="526" on="1"/>
        <pt x="128" y="549" on="1"/>
        <pt x="196" y="540" on="0"/>
        <pt x="462" y="540" on="0"/>
        <pt x="534" y="550" on="1"/>
        <pt x="536" y="528" on="1"/>
        <pt x="516" y="519" on="0"/>
        <pt x="488" y="513" on="1"/>
        <pt x="478" y="440" on="0"/>
        <pt x="478" y="113" on="0"/>
        <pt x="490" y="29" on="1"/>
        <pt x="512" y="24" on="0"/>
        <pt x="538" y="16" on="1"/>
        <pt x="536" y="-7" on="1"/>
        <pt x="486" y="0" on="0"/>
        <pt x="337" y="0" on="0"/>
        <pt x="284" y="-8" on="1"/>
        <pt x="280" y="16" on="1"/>
        <pt x="293" y="23" on="0"/>
        <pt x="317" y="31" on="1"/>
        <pt x="324" y="98" on="0"/>
      </contour>
      <contour>
        <pt x="327" y="274" on="1"/>
        <pt x="327" y="406" on="0"/>
        <pt x="318" y="483" on="1"/>
        <pt x="306" y="489" on="0"/>
        <pt x="264" y="489" on="0"/>
        <pt x="249" y="484" on="1"/>
        <pt x="206" y="252" on="1"/>
        <pt x="234" y="248" on="0"/>
        <pt x="295" y="248" on="0"/>
        <pt x="327" y="252" on="1"/>
      </contour>
      <contour>
        <pt x="456" y="784" on="1"/>
        <pt x="465" y="787" on="0"/>
        <pt x="498" y="787" on="0"/>
        <pt x="504" y="785" on="1"/>
        <pt x="513" y="770" on="0"/>
        <pt x="528" y="691" on="0"/>
        <pt x="529" y="664" on="1"/>
        <pt x="267" y="567" on="1"/>
        <pt x="257" y="591" on="1"/>
        <pt x="382" y="659" on="0"/>
      </contour>
    </TTGlyph>
    <TTGlyph name="acircumflex" xMin="-14" yMin="-9" xMax="539" yMax="794">
      <contour>
        <pt x="319" y="184" on="1"/>
        <pt x="300" y="190" on="0"/>
        <pt x="212" y="190" on="0"/>
        <pt x="190" y="185" on="1"/>
        <pt x="178" y="106" on="0"/>
        <pt x="178" y="78" on="1"/>
        <pt x="178" y="25" on="0"/>
        <pt x="213" y="9" on="1"/>
        <pt x="210" y="-7" on="1"/>
        <pt x="178" y="0" on="0"/>
        <pt x="43" y="0" on="0"/>
        <pt x="-10" y="-9" on="1"/>
        <pt x="-14" y="15" on="1"/>
        <pt x="4" y="24" on="0"/>
        <pt x="33" y="32" on="1"/>
        <pt x="165" y="504" on="1"/>
        <pt x="133" y="515" on="0"/>
        <pt x="115" y="526" on="1"/>
        <pt x="121" y="549" on="1"/>
        <pt x="189" y="540" on="0"/>
        <pt x="455" y="540" on="0"/>
        <pt x="527" y="550" on="1"/>
        <pt x="529" y="528" on="1"/>
        <pt x="509" y="519" on="0"/>
        <pt x="481" y="513" on="1"/>
        <pt x="471" y="440" on="0"/>
        <pt x="471" y="113" on="0"/>
        <pt x="483" y="29" on="1"/>
        <pt x="506" y="24" on="0"/>
        <pt x="531" y="16" on="1"/>
        <pt x="529" y="-7" on="1"/>
        <pt x="479" y="0" on="0"/>
        <pt x="330" y="0" on="0"/>
        <pt x="277" y="-8" on="1"/>
        <pt x="273" y="16" on="1"/>
        <pt x="286" y="23" on="0"/>
        <pt x="310" y="31" on="1"/>
        <pt x="317" y="98" on="0"/>
      </contour>
      <contour>
        <pt x="320" y="274" on="1"/>
        <pt x="320" y="406" on="0"/>
        <pt x="311" y="483" on="1"/>
        <pt x="299" y="489" on="0"/>
        <pt x="257" y="489" on="0"/>
        <pt x="242" y="484" on="1"/>
        <pt x="199" y="252" on="1"/>
        <pt x="227" y="248" on="0"/>
        <pt x="288" y="248" on="0"/>
        <pt x="320" y="252" on="1"/>
      </contour>
      <contour>
        <pt x="308" y="794" on="0"/>
        <pt x="338" y="794" on="0"/>
        <pt x="344" y="792" on="1"/>
        <pt x="413" y="674" on="0"/>
        <pt x="539" y="598" on="1"/>
        <pt x="529" y="574" on="1"/>
        <pt x="323" y="653" on="1"/>
        <pt x="117" y="574" on="1"/>
        <pt x="107" y="598" on="1"/>
        <pt x="233" y="674" on="0"/>
        <pt x="302" y="792" on="1"/>
      </contour>
    </TTGlyph>
    <TTGlyph name="acute" xMin="0" yMin="567" xMax="272" yMax="787">
      <contour>
        <pt x="199" y="784" on="1"/>
        <pt x="208" y="787" on="0"/>
        <pt x="241" y="787" on="0"/>
        <pt x="247" y="785" on="1"/>
        <pt x="256" y="770" on="0"/>
        <pt x="271" y="691" on="0"/>
        <pt x="272" y="664" on="1"/>
        <pt x="10" y="567" on="1"/>
        <pt x="0" y="591" on="1"/>
        <pt x="125" y="659" on="0"/>
      </contour>
    </TTGlyph>
    <TTGlyph name="acute.cap" xMin="0" yMin="707" xMax="272" yMax="886">
      <contour>
        <pt x="199" y="883" on="1"/>
        <pt x="208" y="886" on="0"/>
        <pt x="240" y="886" on="0"/>
        <pt x="247" y="883" on="1"/>
        <pt x="256" y="867" on="0"/>
        <pt x="271" y="799" on="0"/>
        <pt x="272" y="773" on="1"/>
        <pt x="10" y="707" on="1"/>
        <pt x="0" y="731" on="1"/>
        <pt x="143" y="798" on="0"/>
      </contour>
    </TTGlyph>
    <TTGlyph name="adieresis" xMin="-14" yMin="-9" xMax="531" yMax="764">
      <contour>
        <pt x="319" y="184" on="1"/>
        <pt x="300" y="190" on="0"/>
        <pt x="212" y="190" on="0"/>
        <pt x="190" y="185" on="1"/>
        <pt x="178" y="106" on="0"/>
        <pt x="178" y="78" on="1"/>
        <pt x="178" y="25" on="0"/>
        <pt x="213" y="9" on="1"/>
        <pt x="210" y="-7" on="1"/>
        <pt x="178" y="0" on="0"/>
        <pt x="43" y="0" on="0"/>
        <pt x="-10" y="-9" on="1"/>
        <pt x="-14" y="15" on="1"/>
        <pt x="4" y="24" on="0"/>
        <pt x="33" y="32" on="1"/>
        <pt x="165" y="504" on="1"/>
        <pt x="133" y="515" on="0"/>
        <pt x="115" y="526" on="1"/>
        <pt x="121" y="549" on="1"/>
        <pt x="189" y="540" on="0"/>
        <pt x="455" y="540" on="0"/>
        <pt x="527" y="550" on="1"/>
        <pt x="529" y="528" on="1"/>
        <pt x="509" y="519" on="0"/>
        <pt x="481" y="513" on="1"/>
        <pt x="471" y="440" on="0"/>
        <pt x="471" y="113" on="0"/>
        <pt x="483" y="29" on="1"/>
        <pt x="506" y="24" on="0"/>
        <pt x="531" y="16" on="1"/>
        <pt x="529" y="-7" on="1"/>
        <pt x="479" y="0" on="0"/>
        <pt x="330" y="0" on="0"/>
        <pt x="277" y="-8" on="1"/>
        <pt x="273" y="16" on="1"/>
        <pt x="286" y="23" on="0"/>
        <pt x="310" y="31" on="1"/>
        <pt x="317" y="98" on="0"/>
      </contour>
      <contour>
        <pt x="320" y="274" on="1"/>
        <pt x="320" y="406" on="0"/>
        <pt x="311" y="483" on="1"/>
        <pt x="299" y="489" on="0"/>
        <pt x="257" y="489" on="0"/>
        <pt x="242" y="484" on="1"/>
        <pt x="199" y="252" on="1"/>
        <pt x="227" y="248" on="0"/>
        <pt x="288" y="248" on="0"/>
        <pt x="320" y="252" on="1"/>
      </contour>
      <contour>
        <pt x="305" y="688" on="1"/>
        <pt x="295" y="667" on="0"/>
        <pt x="238" y="608" on="0"/>
        <pt x="216" y="593" on="1"/>
        <pt x="194" y="608" on="0"/>
        <pt x="137" y="667" on="0"/>
        <pt x="126" y="688" on="1"/>
        <pt x="138" y="708" on="0"/>
        <pt x="191" y="753" on="0"/>
        <pt x="216" y="764" on="1"/>
        <pt x="239" y="752" on="0"/>
        <pt x="292" y="707" on="0"/>
      </contour>
      <contour>
        <pt x="527" y="688" on="1"/>
        <pt x="517" y="667" on="0"/>
        <pt x="460" y="608" on="0"/>
        <pt x="438" y="593" on="1"/>
        <pt x="416" y="608" on="0"/>
        <pt x="359" y="667" on="0"/>
        <pt x="348" y="688" on="1"/>
        <pt x="360" y="708" on="0"/>
        <pt x="413" y="753" on="0"/>
        <pt x="438" y="764" on="1"/>
        <pt x="461" y="752" on="0"/>
        <pt x="514" y="707" on="0"/>
      </contour>
    </TTGlyph>
    <TTGlyph name="ae" xMin="-21" yMin="-15" xMax="655" yMax="552">
      <contour>
        <pt x="131" y="549" on="1"/>
        <pt x="199" y="540" on="0"/>
        <pt x="561" y="540" on="0"/>
        <pt x="643" y="552" on="1"/>
        <pt x="649" y="531" on="1"/>
        <pt x="617" y="480" on="0"/>
        <pt x="613" y="398" on="1"/>
        <pt x="587" y="398" on="1"/>
        <pt x="579" y="435" on="0"/>
        <pt x="579" y="467" on="1"/>
        <pt x="552" y="481" on="0"/>
        <pt x="486" y="481" on="0"/>
        <pt x="466" y="478" on="1"/>
        <pt x="446" y="426" on="0"/>
        <pt x="443" y="320" on="1"/>
        <pt x="443" y="319" on="1"/>
        <pt x="459" y="315" on="0"/>
        <pt x="481" y="315" on="1"/>
        <pt x="544" y="315" on="0"/>
        <pt x="573" y="346" on="1"/>
        <pt x="594" y="340" on="1"/>
        <pt x="583" y="305" on="0"/>
        <pt x="583" y="238" on="0"/>
        <pt x="592" y="195" on="1"/>
        <pt x="568" y="191" on="1"/>
        <pt x="557" y="217" on="0"/>
        <pt x="550" y="252" on="1"/>
        <pt x="525" y="257" on="0"/>
        <pt x="457" y="257" on="0"/>
        <pt x="441" y="253" on="1"/>
        <pt x="441" y="138" on="0"/>
        <pt x="461" y="107" on="1"/>
        <pt x="483" y="73" on="0"/>
        <pt x="528" y="73" on="1"/>
        <pt x="558" y="73" on="0"/>
        <pt x="605" y="99" on="0"/>
        <pt x="639" y="126" on="1"/>
        <pt x="655" y="107" on="1"/>
        <pt x="587" y="14" on="0"/>
        <pt x="475" y="-15" on="1"/>
        <pt x="381" y="-15" on="0"/>
        <pt x="337" y="28" on="1"/>
        <pt x="299" y="64" on="0"/>
        <pt x="292" y="156" on="1"/>
        <pt x="289" y="194" on="0"/>
        <pt x="289" y="254" on="1"/>
        <pt x="274" y="257" on="0"/>
        <pt x="218" y="257" on="0"/>
        <pt x="199" y="253" on="1"/>
        <pt x="171" y="133" on="0"/>
        <pt x="171" y="25" on="0"/>
        <pt x="206" y="9" on="1"/>
        <pt x="203" y="-7" on="1"/>
        <pt x="171" y="0" on="0"/>
        <pt x="36" y="0" on="0"/>
        <pt x="-17" y="-9" on="1"/>
        <pt x="-21" y="15" on="1"/>
        <pt x="-3" y="24" on="0"/>
        <pt x="26" y="32" on="1"/>
        <pt x="175" y="504" on="1"/>
        <pt x="143" y="515" on="0"/>
        <pt x="125" y="526" on="1"/>
      </contour>
      <contour>
        <pt x="308" y="483" on="1"/>
        <pt x="296" y="487" on="0"/>
        <pt x="262" y="487" on="0"/>
        <pt x="252" y="484" on="1"/>
        <pt x="213" y="315" on="1"/>
        <pt x="224" y="312" on="0"/>
        <pt x="277" y="312" on="0"/>
        <pt x="293" y="316" on="1"/>
        <pt x="308" y="425" on="1"/>
        <pt x="311" y="452" on="0"/>
        <pt x="311" y="476" on="0"/>
      </contour>
    </TTGlyph>
    <TTGlyph name="agrave" xMin="-14" yMin="-9" xMax="531" yMax="787">
      <contour>
        <pt x="319" y="184" on="1"/>
        <pt x="300" y="190" on="0"/>
        <pt x="212" y="190" on="0"/>
        <pt x="190" y="185" on="1"/>
        <pt x="178" y="106" on="0"/>
        <pt x="178" y="78" on="1"/>
        <pt x="178" y="25" on="0"/>
        <pt x="213" y="9" on="1"/>
        <pt x="210" y="-7" on="1"/>
        <pt x="178" y="0" on="0"/>
        <pt x="43" y="0" on="0"/>
        <pt x="-10" y="-9" on="1"/>
        <pt x="-14" y="15" on="1"/>
        <pt x="4" y="24" on="0"/>
        <pt x="33" y="32" on="1"/>
        <pt x="165" y="504" on="1"/>
        <pt x="133" y="515" on="0"/>
        <pt x="115" y="526" on="1"/>
        <pt x="121" y="549" on="1"/>
        <pt x="189" y="540" on="0"/>
        <pt x="455" y="540" on="0"/>
        <pt x="527" y="550" on="1"/>
        <pt x="529" y="528" on="1"/>
        <pt x="509" y="519" on="0"/>
        <pt x="481" y="513" on="1"/>
        <pt x="471" y="440" on="0"/>
        <pt x="471" y="113" on="0"/>
        <pt x="483" y="29" on="1"/>
        <pt x="506" y="24" on="0"/>
        <pt x="531" y="16" on="1"/>
        <pt x="529" y="-7" on="1"/>
        <pt x="479" y="0" on="0"/>
        <pt x="330" y="0" on="0"/>
        <pt x="277" y="-8" on="1"/>
        <pt x="273" y="16" on="1"/>
        <pt x="286" y="23" on="0"/>
        <pt x="310" y="31" on="1"/>
        <pt x="317" y="98" on="0"/>
      </contour>
      <contour>
        <pt x="320" y="274" on="1"/>
        <pt x="320" y="406" on="0"/>
        <pt x="311" y="483" on="1"/>
        <pt x="299" y="489" on="0"/>
        <pt x="257" y="489" on="0"/>
        <pt x="242" y="484" on="1"/>
        <pt x="199" y="252" on="1"/>
        <pt x="227" y="248" on="0"/>
        <pt x="288" y="248" on="0"/>
        <pt x="320" y="252" on="1"/>
      </contour>
      <contour>
        <pt x="145" y="785" on="1"/>
        <pt x="151" y="787" on="0"/>
        <pt x="184" y="787" on="0"/>
        <pt x="193" y="784" on="1"/>
        <pt x="267" y="659" on="0"/>
        <pt x="392" y="591" on="1"/>
        <pt x="382" y="567" on="1"/>
        <pt x="120" y="664" on="1"/>
        <pt x="121" y="691" on="0"/>
        <pt x="136" y="770" on="0"/>
      </contour>
    </TTGlyph>
    <TTGlyph name="ampersand" xMin="26" yMin="-15" xMax="617" yMax="682">
      <contour>
        <pt x="26" y="177" on="1"/>
        <pt x="26" y="250" on="0"/>
        <pt x="141" y="344" on="0"/>
        <pt x="219" y="344" on="1"/>
        <pt x="219" y="353" on="1"/>
        <pt x="148" y="360" on="0"/>
        <pt x="61" y="429" on="0"/>
        <pt x="60" y="492" on="1"/>
        <pt x="152" y="607" on="0"/>
        <pt x="323" y="666" on="1"/>
        <pt x="404" y="666" on="0"/>
        <pt x="464" y="646" on="1"/>
        <pt x="470" y="650" on="0"/>
        <pt x="505" y="682" on="1"/>
        <pt x="528" y="667" on="1"/>
        <pt x="493" y="617" on="0"/>
        <pt x="457" y="520" on="0"/>
        <pt x="448" y="453" on="1"/>
        <pt x="420" y="453" on="1"/>
        <pt x="420" y="506" on="0"/>
        <pt x="414" y="540" on="1"/>
        <pt x="369" y="582" on="0"/>
        <pt x="299" y="582" on="1"/>
        <pt x="255" y="582" on="0"/>
        <pt x="229" y="562" on="1"/>
        <pt x="228" y="547" on="0"/>
        <pt x="228" y="533" on="1"/>
        <pt x="228" y="464" on="0"/>
        <pt x="302" y="377" on="0"/>
        <pt x="388" y="377" on="1"/>
        <pt x="498" y="377" on="0"/>
        <pt x="612" y="408" on="1"/>
        <pt x="617" y="403" on="1"/>
        <pt x="607" y="371" on="0"/>
        <pt x="604" y="329" on="1"/>
        <pt x="601" y="325" on="1"/>
        <pt x="582" y="327" on="0"/>
        <pt x="523" y="332" on="1"/>
        <pt x="511" y="200" on="1"/>
        <pt x="504" y="131" on="0"/>
        <pt x="389" y="7" on="0"/>
        <pt x="318" y="-15" on="1"/>
        <pt x="201" y="-15" on="0"/>
        <pt x="118" y="26" on="1"/>
        <pt x="76" y="48" on="0"/>
        <pt x="26" y="125" on="0"/>
      </contour>
      <contour>
        <pt x="206" y="327" on="0"/>
        <pt x="206" y="215" on="1"/>
        <pt x="206" y="153" on="0"/>
        <pt x="274" y="83" on="0"/>
        <pt x="335" y="83" on="1"/>
        <pt x="375" y="83" on="0"/>
        <pt x="399" y="94" on="1"/>
        <pt x="399" y="206" on="1"/>
        <pt x="397" y="305" on="0"/>
        <pt x="385" y="333" on="1"/>
        <pt x="371" y="333" on="1"/>
      </contour>
    </TTGlyph>
    <TTGlyph name="aring" xMin="-14" yMin="-9" xMax="531" yMax="783">
      <contour>
        <pt x="319" y="184" on="1"/>
        <pt x="300" y="190" on="0"/>
        <pt x="212" y="190" on="0"/>
        <pt x="190" y="185" on="1"/>
        <pt x="178" y="106" on="0"/>
        <pt x="178" y="78" on="1"/>
        <pt x="178" y="25" on="0"/>
        <pt x="213" y="9" on="1"/>
        <pt x="210" y="-7" on="1"/>
        <pt x="178" y="0" on="0"/>
        <pt x="43" y="0" on="0"/>
        <pt x="-10" y="-9" on="1"/>
        <pt x="-14" y="15" on="1"/>
        <pt x="4" y="24" on="0"/>
        <pt x="33" y="32" on="1"/>
        <pt x="165" y="504" on="1"/>
        <pt x="133" y="515" on="0"/>
        <pt x="115" y="526" on="1"/>
        <pt x="121" y="549" on="1"/>
        <pt x="189" y="540" on="0"/>
        <pt x="455" y="540" on="0"/>
        <pt x="527" y="550" on="1"/>
        <pt x="529" y="528" on="1"/>
        <pt x="509" y="519" on="0"/>
        <pt x="481" y="513" on="1"/>
        <pt x="471" y="440" on="0"/>
        <pt x="471" y="113" on="0"/>
        <pt x="483" y="29" on="1"/>
        <pt x="506" y="24" on="0"/>
        <pt x="531" y="16" on="1"/>
        <pt x="529" y="-7" on="1"/>
        <pt x="479" y="0" on="0"/>
        <pt x="330" y="0" on="0"/>
        <pt x="277" y="-8" on="1"/>
        <pt x="273" y="16" on="1"/>
        <pt x="286" y="23" on="0"/>
        <pt x="310" y="31" on="1"/>
        <pt x="317" y="98" on="0"/>
      </contour>
      <contour>
        <pt x="320" y="274" on="1"/>
        <pt x="320" y="406" on="0"/>
        <pt x="311" y="483" on="1"/>
        <pt x="299" y="489" on="0"/>
        <pt x="257" y="489" on="0"/>
        <pt x="242" y="484" on="1"/>
        <pt x="199" y="252" on="1"/>
        <pt x="227" y="248" on="0"/>
        <pt x="288" y="248" on="0"/>
        <pt x="320" y="252" on="1"/>
      </contour>
      <contour>
        <pt x="284" y="576" on="0"/>
        <pt x="220" y="619" on="0"/>
        <pt x="220" y="705" on="0"/>
        <pt x="287" y="772" on="0"/>
        <pt x="338" y="783" on="1"/>
        <pt x="441" y="783" on="0"/>
        <pt x="441" y="699" on="1"/>
        <pt x="441" y="654" on="0"/>
        <pt x="379" y="590" on="0"/>
        <pt x="331" y="576" on="1"/>
      </contour>
      <contour>
        <pt x="380" y="703" on="0"/>
        <pt x="349" y="735" on="0"/>
        <pt x="299" y="735" on="0"/>
        <pt x="288" y="727" on="1"/>
        <pt x="281" y="709" on="0"/>
        <pt x="281" y="656" on="0"/>
        <pt x="313" y="623" on="0"/>
        <pt x="360" y="623" on="0"/>
        <pt x="373" y="632" on="1"/>
        <pt x="380" y="650" on="0"/>
      </contour>
    </TTGlyph>
    <TTGlyph name="asciicircum" xMin="45" yMin="278" xMax="473" yMax="696">
      <contour>
        <pt x="259" y="550" on="1"/>
        <pt x="79" y="278" on="1"/>
        <pt x="45" y="296" on="1"/>
        <pt x="103" y="399" on="0"/>
        <pt x="176" y="549" on="0"/>
        <pt x="231" y="686" on="1"/>
        <pt x="284" y="696" on="1"/>
        <pt x="341" y="556" on="0"/>
        <pt x="417" y="395" on="0"/>
        <pt x="473" y="296" on="1"/>
        <pt x="439" y="278" on="1"/>
      </contour>
    </TTGlyph>
    <TTGlyph name="asciitilde" xMin="0" yMin="156" xMax="637" yMax="387">
      <contour>
        <pt x="461" y="272" on="1"/>
        <pt x="551" y="272" on="0"/>
        <pt x="613" y="366" on="1"/>
        <pt x="637" y="350" on="1"/>
        <pt x="611" y="287" on="0"/>
        <pt x="498" y="177" on="0"/>
        <pt x="441" y="156" on="1"/>
        <pt x="398" y="156" on="0"/>
        <pt x="198" y="265" on="0"/>
        <pt x="155" y="265" on="1"/>
        <pt x="70" y="265" on="0"/>
        <pt x="25" y="178" on="1"/>
        <pt x="0" y="194" on="1"/>
        <pt x="29" y="262" on="0"/>
        <pt x="153" y="379" on="0"/>
        <pt x="210" y="387" on="1"/>
        <pt x="266" y="339" on="0"/>
        <pt x="404" y="272" on="0"/>
      </contour>
    </TTGlyph>
    <TTGlyph name="asterisk" xMin="41" yMin="383" xMax="327" yMax="711">
      <contour>
        <pt x="283" y="630" on="1"/>
        <pt x="299" y="632" on="0"/>
        <pt x="322" y="632" on="0"/>
        <pt x="326" y="629" on="1"/>
        <pt x="327" y="623" on="0"/>
        <pt x="305" y="591" on="1"/>
        <pt x="325" y="571" on="0"/>
        <pt x="327" y="568" on="1"/>
        <pt x="326" y="565" on="1"/>
        <pt x="321" y="565" on="0"/>
        <pt x="317" y="565" on="1"/>
        <pt x="271" y="565" on="0"/>
        <pt x="217" y="547" on="1"/>
        <pt x="271" y="529" on="0"/>
        <pt x="317" y="529" on="1"/>
        <pt x="321" y="529" on="0"/>
        <pt x="326" y="529" on="1"/>
        <pt x="327" y="526" on="1"/>
        <pt x="325" y="523" on="0"/>
        <pt x="305" y="503" on="1"/>
        <pt x="327" y="471" on="0"/>
        <pt x="326" y="465" on="1"/>
        <pt x="322" y="462" on="0"/>
        <pt x="299" y="462" on="0"/>
        <pt x="283" y="464" on="1"/>
        <pt x="275" y="436" on="0"/>
        <pt x="274" y="434" on="1"/>
        <pt x="270" y="433" on="1"/>
        <pt x="245" y="477" on="0"/>
        <pt x="201" y="516" on="1"/>
        <pt x="212" y="457" on="0"/>
        <pt x="240" y="415" on="1"/>
        <pt x="237" y="413" on="1"/>
        <pt x="231" y="413" on="0"/>
        <pt x="206" y="420" on="1"/>
        <pt x="191" y="386" on="0"/>
        <pt x="184" y="383" on="1"/>
        <pt x="174" y="388" on="0"/>
        <pt x="162" y="420" on="1"/>
        <pt x="137" y="413" on="0"/>
        <pt x="131" y="413" on="1"/>
        <pt x="128" y="415" on="1"/>
        <pt x="151" y="453" on="0"/>
        <pt x="165" y="516" on="1"/>
        <pt x="119" y="473" on="0"/>
        <pt x="98" y="433" on="1"/>
        <pt x="94" y="434" on="1"/>
        <pt x="93" y="436" on="0"/>
        <pt x="85" y="464" on="1"/>
        <pt x="69" y="463" on="0"/>
        <pt x="45" y="463" on="0"/>
        <pt x="42" y="465" on="1"/>
        <pt x="41" y="476" on="0"/>
        <pt x="63" y="503" on="1"/>
        <pt x="43" y="523" on="0"/>
        <pt x="41" y="526" on="1"/>
        <pt x="42" y="529" on="1"/>
        <pt x="88" y="529" on="0"/>
        <pt x="147" y="547" on="1"/>
        <pt x="88" y="565" on="0"/>
        <pt x="42" y="565" on="1"/>
        <pt x="41" y="568" on="1"/>
        <pt x="43" y="571" on="0"/>
        <pt x="63" y="591" on="1"/>
        <pt x="41" y="618" on="0"/>
        <pt x="42" y="629" on="1"/>
        <pt x="45" y="631" on="0"/>
        <pt x="69" y="631" on="0"/>
        <pt x="85" y="630" on="1"/>
        <pt x="93" y="658" on="0"/>
        <pt x="94" y="660" on="1"/>
        <pt x="98" y="661" on="1"/>
        <pt x="119" y="621" on="0"/>
        <pt x="165" y="578" on="1"/>
        <pt x="151" y="640" on="0"/>
        <pt x="128" y="679" on="1"/>
        <pt x="131" y="681" on="1"/>
        <pt x="138" y="681" on="0"/>
        <pt x="162" y="674" on="1"/>
        <pt x="174" y="706" on="0"/>
        <pt x="184" y="711" on="1"/>
        <pt x="191" y="708" on="0"/>
        <pt x="206" y="674" on="1"/>
        <pt x="231" y="681" on="0"/>
        <pt x="237" y="681" on="1"/>
        <pt x="240" y="679" on="1"/>
        <pt x="212" y="635" on="0"/>
        <pt x="201" y="578" on="1"/>
        <pt x="246" y="619" on="0"/>
        <pt x="270" y="661" on="1"/>
        <pt x="274" y="660" on="1"/>
        <pt x="275" y="658" on="0"/>
      </contour>
    </TTGlyph>
    <TTGlyph name="at" xMin="3" yMin="-190" xMax="819" yMax="684">
      <contour>
        <pt x="462" y="169" on="1"/>
        <pt x="446" y="173" on="0"/>
        <pt x="379" y="173" on="0"/>
        <pt x="353" y="169" on="1"/>
        <pt x="342" y="102" on="0"/>
        <pt x="342" y="76" on="1"/>
        <pt x="342" y="29" on="0"/>
        <pt x="376" y="13" on="1"/>
        <pt x="372" y="-6" on="1"/>
        <pt x="343" y="1" on="0"/>
        <pt x="218" y="1" on="0"/>
        <pt x="169" y="-8" on="1"/>
        <pt x="165" y="18" on="1"/>
        <pt x="178" y="25" on="0"/>
        <pt x="208" y="34" on="1"/>
        <pt x="329" y="460" on="1"/>
        <pt x="294" y="474" on="0"/>
        <pt x="283" y="481" on="1"/>
        <pt x="290" y="506" on="1"/>
        <pt x="340" y="497" on="0"/>
        <pt x="587" y="497" on="0"/>
        <pt x="654" y="507" on="1"/>
        <pt x="655" y="482" on="1"/>
        <pt x="634" y="472" on="0"/>
        <pt x="611" y="469" on="1"/>
        <pt x="602" y="388" on="0"/>
        <pt x="602" y="116" on="0"/>
        <pt x="616" y="55" on="1"/>
        <pt x="675" y="96" on="0"/>
        <pt x="735" y="253" on="0"/>
        <pt x="735" y="336" on="1"/>
        <pt x="735" y="634" on="0"/>
        <pt x="430" y="634" on="1"/>
        <pt x="323" y="634" on="0"/>
        <pt x="251" y="585" on="1"/>
        <pt x="176" y="505" on="0"/>
        <pt x="89" y="287" on="0"/>
        <pt x="89" y="178" on="1"/>
        <pt x="89" y="26" on="0"/>
        <pt x="235" y="-140" on="0"/>
        <pt x="381" y="-140" on="1"/>
        <pt x="443" y="-140" on="0"/>
        <pt x="500" y="-118" on="1"/>
        <pt x="507" y="-131" on="1"/>
        <pt x="447" y="-173" on="0"/>
        <pt x="373" y="-190" on="1"/>
        <pt x="193" y="-190" on="0"/>
        <pt x="3" y="-15" on="0"/>
        <pt x="3" y="161" on="1"/>
        <pt x="3" y="363" on="0"/>
        <pt x="249" y="656" on="0"/>
        <pt x="446" y="684" on="1"/>
        <pt x="617" y="684" on="0"/>
        <pt x="819" y="528" on="0"/>
        <pt x="819" y="227" on="0"/>
        <pt x="648" y="0" on="0"/>
        <pt x="514" y="-15" on="1"/>
        <pt x="462" y="4" on="0"/>
      </contour>
      <contour>
        <pt x="463" y="255" on="1"/>
        <pt x="463" y="390" on="0"/>
        <pt x="455" y="443" on="1"/>
        <pt x="444" y="447" on="0"/>
        <pt x="412" y="447" on="0"/>
        <pt x="401" y="443" on="1"/>
        <pt x="363" y="234" on="1"/>
        <pt x="382" y="231" on="0"/>
        <pt x="440" y="231" on="0"/>
        <pt x="463" y="234" on="1"/>
      </contour>
    </TTGlyph>
    <TTGlyph name="atilde" xMin="-14" yMin="-9" xMax="556" yMax="770">
      <contour>
        <pt x="319" y="184" on="1"/>
        <pt x="300" y="190" on="0"/>
        <pt x="212" y="190" on="0"/>
        <pt x="190" y="185" on="1"/>
        <pt x="178" y="106" on="0"/>
        <pt x="178" y="78" on="1"/>
        <pt x="178" y="25" on="0"/>
        <pt x="213" y="9" on="1"/>
        <pt x="210" y="-7" on="1"/>
        <pt x="178" y="0" on="0"/>
        <pt x="43" y="0" on="0"/>
        <pt x="-10" y="-9" on="1"/>
        <pt x="-14" y="15" on="1"/>
        <pt x="4" y="24" on="0"/>
        <pt x="33" y="32" on="1"/>
        <pt x="165" y="504" on="1"/>
        <pt x="133" y="515" on="0"/>
        <pt x="115" y="526" on="1"/>
        <pt x="121" y="549" on="1"/>
        <pt x="189" y="540" on="0"/>
        <pt x="455" y="540" on="0"/>
        <pt x="527" y="550" on="1"/>
        <pt x="529" y="528" on="1"/>
        <pt x="509" y="519" on="0"/>
        <pt x="481" y="513" on="1"/>
        <pt x="471" y="440" on="0"/>
        <pt x="471" y="113" on="0"/>
        <pt x="483" y="29" on="1"/>
        <pt x="506" y="24" on="0"/>
        <pt x="531" y="16" on="1"/>
        <pt x="529" y="-7" on="1"/>
        <pt x="479" y="0" on="0"/>
        <pt x="330" y="0" on="0"/>
        <pt x="277" y="-8" on="1"/>
        <pt x="273" y="16" on="1"/>
        <pt x="286" y="23" on="0"/>
        <pt x="310" y="31" on="1"/>
        <pt x="317" y="98" on="0"/>
      </contour>
      <contour>
        <pt x="320" y="274" on="1"/>
        <pt x="320" y="406" on="0"/>
        <pt x="311" y="483" on="1"/>
        <pt x="299" y="489" on="0"/>
        <pt x="257" y="489" on="0"/>
        <pt x="242" y="484" on="1"/>
        <pt x="199" y="252" on="1"/>
        <pt x="227" y="248" on="0"/>
        <pt x="288" y="248" on="0"/>
        <pt x="320" y="252" on="1"/>
      </contour>
      <contour>
        <pt x="446" y="719" on="1"/>
        <pt x="505" y="719" on="0"/>
        <pt x="532" y="758" on="1"/>
        <pt x="556" y="741" on="1"/>
        <pt x="481" y="639" on="0"/>
        <pt x="418" y="605" on="1"/>
        <pt x="391" y="605" on="0"/>
        <pt x="255" y="657" on="0"/>
        <pt x="226" y="657" on="1"/>
        <pt x="169" y="657" on="0"/>
        <pt x="144" y="618" on="1"/>
        <pt x="120" y="635" on="1"/>
        <pt x="192" y="735" on="0"/>
        <pt x="289" y="770" on="1"/>
        <pt x="368" y="719" on="0"/>
      </contour>
    </TTGlyph>
    <TTGlyph name="b" xMin="45" yMin="-22" xMax="539" yMax="544">
      <contour>
        <pt x="45" y="536" on="1"/>
        <pt x="307" y="544" on="1"/>
        <pt x="437" y="544" on="0"/>
        <pt x="474" y="523" on="1"/>
        <pt x="491" y="513" on="0"/>
        <pt x="518" y="474" on="0"/>
        <pt x="518" y="403" on="0"/>
        <pt x="447" y="328" on="0"/>
        <pt x="400" y="308" on="1"/>
        <pt x="400" y="301" on="1"/>
        <pt x="539" y="301" on="0"/>
        <pt x="539" y="194" on="1"/>
        <pt x="539" y="148" on="0"/>
        <pt x="451" y="54" on="0"/>
        <pt x="334" y="-6" on="0"/>
        <pt x="282" y="-15" on="1"/>
        <pt x="249" y="-15" on="0"/>
        <pt x="146" y="5" on="0"/>
        <pt x="116" y="17" on="1"/>
        <pt x="103" y="1" on="0"/>
        <pt x="95" y="-22" on="1"/>
        <pt x="70" y="-16" on="1"/>
        <pt x="95" y="93" on="0"/>
        <pt x="95" y="421" on="0"/>
        <pt x="84" y="498" on="1"/>
        <pt x="69" y="507" on="0"/>
        <pt x="45" y="513" on="1"/>
      </contour>
      <contour>
        <pt x="292" y="319" on="1"/>
        <pt x="322" y="319" on="0"/>
        <pt x="340" y="330" on="1"/>
        <pt x="358" y="364" on="0"/>
        <pt x="358" y="419" on="1"/>
        <pt x="358" y="503" on="0"/>
        <pt x="287" y="503" on="1"/>
        <pt x="268" y="503" on="0"/>
        <pt x="253" y="497" on="1"/>
        <pt x="246" y="429" on="0"/>
        <pt x="246" y="150" on="0"/>
        <pt x="250" y="77" on="1"/>
        <pt x="278" y="55" on="0"/>
        <pt x="348" y="55" on="0"/>
        <pt x="365" y="65" on="1"/>
        <pt x="377" y="106" on="0"/>
        <pt x="377" y="220" on="0"/>
        <pt x="336" y="278" on="0"/>
        <pt x="277" y="278" on="1"/>
        <pt x="281" y="319" on="1"/>
      </contour>
    </TTGlyph>
    <TTGlyph name="backslash" xMin="14" yMin="-45" xMax="330" yMax="717">
      <contour>
        <pt x="275" y="-45" on="1"/>
        <pt x="270" y="-45" on="1"/>
        <pt x="92" y="478" on="1"/>
        <pt x="46" y="615" on="0"/>
        <pt x="14" y="696" on="1"/>
        <pt x="15" y="696" on="0"/>
        <pt x="67" y="712" on="0"/>
        <pt x="76" y="717" on="1"/>
        <pt x="80" y="717" on="1"/>
        <pt x="106" y="622" on="0"/>
        <pt x="149" y="493" on="1"/>
        <pt x="258" y="175" on="1"/>
        <pt x="290" y="82" on="0"/>
        <pt x="330" y="-17" on="1"/>
        <pt x="324" y="-24" on="0"/>
      </contour>
    </TTGlyph>
    <TTGlyph name="bar" xMin="82" yMin="-216" xMax="153" yMax="750">
      <contour>
        <pt x="151" y="-199" on="1"/>
        <pt x="96" y="-216" on="1"/>
        <pt x="89" y="-213" on="1"/>
        <pt x="89" y="476" on="0"/>
        <pt x="82" y="723" on="1"/>
        <pt x="87" y="725" on="0"/>
        <pt x="102" y="730" on="1"/>
        <pt x="139" y="744" on="0"/>
        <pt x="148" y="750" on="1"/>
        <pt x="153" y="749" on="1"/>
        <pt x="151" y="607" on="0"/>
      </contour>
    </TTGlyph>
    <TTGlyph name="braceleft" xMin="44" yMin="-215" xMax="230" yMax="711">
      <contour>
        <pt x="174" y="-201" on="0"/>
        <pt x="79" y="-116" on="0"/>
        <pt x="79" y="-26" on="0"/>
        <pt x="116" y="130" on="0"/>
        <pt x="116" y="177" on="1"/>
        <pt x="116" y="197" on="0"/>
        <pt x="73" y="232" on="0"/>
        <pt x="48" y="236" on="1"/>
        <pt x="44" y="255" on="1"/>
        <pt x="70" y="261" on="0"/>
        <pt x="116" y="297" on="0"/>
        <pt x="116" y="319" on="1"/>
        <pt x="116" y="366" on="0"/>
        <pt x="79" y="522" on="0"/>
        <pt x="79" y="612" on="0"/>
        <pt x="174" y="697" on="0"/>
        <pt x="224" y="711" on="1"/>
        <pt x="229" y="693" on="1"/>
        <pt x="174" y="665" on="0"/>
        <pt x="154" y="604" on="1"/>
        <pt x="154" y="557" on="0"/>
        <pt x="199" y="369" on="0"/>
        <pt x="199" y="329" on="1"/>
        <pt x="185" y="295" on="0"/>
        <pt x="108" y="250" on="1"/>
        <pt x="108" y="246" on="1"/>
        <pt x="185" y="201" on="0"/>
        <pt x="199" y="167" on="1"/>
        <pt x="199" y="127" on="0"/>
        <pt x="154" y="-61" on="0"/>
        <pt x="154" y="-108" on="1"/>
        <pt x="173" y="-167" on="0"/>
        <pt x="230" y="-196" on="1"/>
        <pt x="224" y="-215" on="1"/>
      </contour>
    </TTGlyph>
    <TTGlyph name="braceright" xMin="70" yMin="-215" xMax="256" yMax="711">
      <contour>
        <pt x="126" y="697" on="0"/>
        <pt x="221" y="612" on="0"/>
        <pt x="221" y="522" on="0"/>
        <pt x="184" y="366" on="0"/>
        <pt x="184" y="319" on="1"/>
        <pt x="184" y="297" on="0"/>
        <pt x="230" y="261" on="0"/>
        <pt x="256" y="255" on="1"/>
        <pt x="252" y="236" on="1"/>
        <pt x="227" y="232" on="0"/>
        <pt x="184" y="197" on="0"/>
        <pt x="184" y="177" on="1"/>
        <pt x="184" y="130" on="0"/>
        <pt x="221" y="-26" on="0"/>
        <pt x="221" y="-116" on="0"/>
        <pt x="126" y="-201" on="0"/>
        <pt x="76" y="-215" on="1"/>
        <pt x="70" y="-196" on="1"/>
        <pt x="119" y="-171" on="0"/>
        <pt x="139" y="-108" on="1"/>
        <pt x="139" y="-61" on="0"/>
        <pt x="94" y="127" on="0"/>
        <pt x="94" y="167" on="1"/>
        <pt x="106" y="196" on="0"/>
        <pt x="192" y="246" on="1"/>
        <pt x="192" y="250" on="1"/>
        <pt x="106" y="300" on="0"/>
        <pt x="94" y="329" on="1"/>
        <pt x="94" y="369" on="0"/>
        <pt x="139" y="557" on="0"/>
        <pt x="139" y="604" on="1"/>
        <pt x="118" y="669" on="0"/>
        <pt x="71" y="693" on="1"/>
        <pt x="76" y="711" on="1"/>
      </contour>
    </TTGlyph>
    <TTGlyph name="bracketleft" xMin="81" yMin="-211" xMax="296" yMax="707">
      <contour>
        <pt x="268" y="-196" on="1"/>
        <pt x="150" y="-196" on="0"/>
        <pt x="88" y="-211" on="1"/>
        <pt x="81" y="-206" on="1"/>
        <pt x="91" y="-137" on="0"/>
        <pt x="91" y="633" on="0"/>
        <pt x="81" y="702" on="1"/>
        <pt x="88" y="707" on="1"/>
        <pt x="150" y="692" on="0"/>
        <pt x="268" y="692" on="1"/>
        <pt x="281" y="692" on="0"/>
        <pt x="296" y="692" on="1"/>
        <pt x="296" y="671" on="1"/>
        <pt x="218" y="669" on="0"/>
        <pt x="164" y="654" on="1"/>
        <pt x="164" y="-158" on="1"/>
        <pt x="218" y="-173" on="0"/>
        <pt x="296" y="-175" on="1"/>
        <pt x="296" y="-196" on="1"/>
        <pt x="281" y="-196" on="0"/>
      </contour>
    </TTGlyph>
    <TTGlyph name="bracketright" xMin="30" yMin="-211" xMax="245" yMax="707">
      <contour>
        <pt x="58" y="692" on="1"/>
        <pt x="176" y="692" on="0"/>
        <pt x="238" y="707" on="1"/>
        <pt x="245" y="702" on="1"/>
        <pt x="235" y="633" on="0"/>
        <pt x="235" y="-137" on="0"/>
        <pt x="245" y="-206" on="1"/>
        <pt x="238" y="-211" on="1"/>
        <pt x="176" y="-196" on="0"/>
        <pt x="58" y="-196" on="1"/>
        <pt x="45" y="-196" on="0"/>
        <pt x="30" y="-196" on="1"/>
        <pt x="30" y="-175" on="1"/>
        <pt x="108" y="-173" on="0"/>
        <pt x="162" y="-158" on="1"/>
        <pt x="162" y="654" on="1"/>
        <pt x="108" y="669" on="0"/>
        <pt x="30" y="671" on="1"/>
        <pt x="30" y="692" on="1"/>
        <pt x="45" y="692" on="0"/>
      </contour>
    </TTGlyph>
    <TTGlyph name="brokenbar" xMin="87" yMin="-215" xMax="158" yMax="752">
      <contour>
        <pt x="156" y="340" on="1"/>
        <pt x="101" y="323" on="1"/>
        <pt x="94" y="326" on="1"/>
        <pt x="93" y="508" on="0"/>
        <pt x="87" y="725" on="1"/>
        <pt x="92" y="727" on="0"/>
        <pt x="107" y="732" on="1"/>
        <pt x="144" y="746" on="0"/>
        <pt x="153" y="752" on="1"/>
        <pt x="158" y="751" on="1"/>
        <pt x="156" y="609" on="0"/>
      </contour>
      <contour>
        <pt x="156" y="-198" on="1"/>
        <pt x="101" y="-215" on="1"/>
        <pt x="94" y="-212" on="1"/>
        <pt x="93" y="-30" on="0"/>
        <pt x="87" y="187" on="1"/>
        <pt x="92" y="189" on="0"/>
        <pt x="107" y="194" on="1"/>
        <pt x="144" y="208" on="0"/>
        <pt x="153" y="214" on="1"/>
        <pt x="158" y="213" on="1"/>
        <pt x="156" y="71" on="0"/>
      </contour>
    </TTGlyph>
    <TTGlyph name="bullet" xMin="34" yMin="120" xMax="359" yMax="456">
      <contour>
        <pt x="359" y="302" on="1"/>
        <pt x="359" y="288" on="1"/>
        <pt x="309" y="254" on="0"/>
        <pt x="238" y="175" on="0"/>
        <pt x="207" y="120" on="1"/>
        <pt x="187" y="120" on="1"/>
        <pt x="125" y="229" on="0"/>
        <pt x="34" y="287" on="1"/>
        <pt x="34" y="301" on="1"/>
        <pt x="92" y="342" on="0"/>
        <pt x="159" y="406" on="0"/>
        <pt x="187" y="456" on="1"/>
        <pt x="207" y="456" on="1"/>
        <pt x="235" y="406" on="0"/>
        <pt x="303" y="340" on="0"/>
      </contour>
    </TTGlyph>
</ttFont>
